<svg width="22" height="22" viewBox="0 0 22 22" fill="none" xmlns="http://www.w3.org/2000/svg">
<path opacity="0.3" d="M19.6441 6.63678L12.5491 2.27344C12.0834 1.98629 11.5471 1.83423 10.9999 1.83423C10.4528 1.83423 9.91647 1.98629 9.45077 2.27344L2.35577 6.63678C1.3566 7.26011 1.8791 8.58011 3.12577 8.58011H4.26243V16.7476C4.26122 16.8531 4.28095 16.9578 4.32049 17.0556C4.36002 17.1534 4.41858 17.2424 4.49275 17.3175C4.56693 17.3925 4.65525 17.4521 4.75261 17.4927C4.84997 17.5334 4.95443 17.5543 5.05993 17.5543H6.4166C6.52288 17.5555 6.62832 17.5355 6.72675 17.4954C6.82517 17.4553 6.91459 17.3959 6.98974 17.3207C7.06489 17.2456 7.12426 17.1562 7.16437 17.0578C7.20447 16.9593 7.2245 16.8539 7.22327 16.7476V8.58011H9.4691V16.7476C9.46789 16.8531 9.48762 16.9578 9.52716 17.0556C9.56669 17.1534 9.62524 17.2424 9.69942 17.3175C9.77359 17.3925 9.86192 17.4521 9.95928 17.4927C10.0566 17.5334 10.1611 17.5543 10.2666 17.5543H11.6599C11.7654 17.5543 11.8699 17.5334 11.9673 17.4927C12.0646 17.4521 12.1529 17.3925 12.2271 17.3175C12.3013 17.2424 12.3598 17.1534 12.3994 17.0556C12.4389 16.9578 12.4586 16.8531 12.4574 16.7476V8.58011H14.6666V16.7476C14.6654 16.8531 14.6851 16.9578 14.7247 17.0556C14.7642 17.1534 14.8227 17.2424 14.8969 17.3175C14.9711 17.3925 15.0594 17.4521 15.1568 17.4927C15.2541 17.5334 15.3586 17.5543 15.4641 17.5543H16.8666C16.9721 17.5543 17.0766 17.5334 17.1739 17.4927C17.2713 17.4521 17.3596 17.3925 17.4338 17.3175C17.508 17.2424 17.5665 17.1534 17.606 17.0556C17.6456 16.9578 17.6653 16.8531 17.6641 16.7476V8.58011H18.9108C20.1666 8.58011 20.6433 7.26011 19.6441 6.63678Z" fill="#3E97FF"/>
<path d="M19.635 20.8726H2.36499C2.18265 20.8726 2.00779 20.8001 1.87885 20.6712C1.74992 20.5423 1.67749 20.3674 1.67749 20.1851C1.67749 20.0027 1.74992 19.8279 1.87885 19.6989C2.00779 19.57 2.18265 19.4976 2.36499 19.4976H19.635C19.8173 19.4976 19.9922 19.57 20.1211 19.6989C20.2501 19.8279 20.3225 20.0027 20.3225 20.1851C20.3225 20.3674 20.2501 20.5423 20.1211 20.6712C19.9922 20.8001 19.8173 20.8726 19.635 20.8726Z" fill="#3E97FF"/>
</svg>
