<svg width="22" height="22" viewBox="0 0 22 22" fill="none" xmlns="http://www.w3.org/2000/svg">
<path opacity="0.3" d="M16.8759 3.60242C16.901 3.16035 16.7503 2.72628 16.4566 2.39487C16.163 2.06345 15.7502 1.86157 15.3084 1.83325H6.83837C6.39486 1.85925 5.97977 2.06012 5.68419 2.3918C5.38861 2.72347 5.23666 3.15885 5.2617 3.60242C5.2617 7.95658 7.09504 11.8524 9.4967 13.0441C9.6581 13.1296 9.78736 13.2652 9.86506 13.4305C9.94275 13.5958 9.96468 13.7819 9.92754 13.9608C9.51491 15.6866 8.87044 17.3487 8.0117 18.9016C7.92785 19.023 7.87891 19.1651 7.87023 19.3125C7.86154 19.4598 7.89344 19.6067 7.96245 19.7371C8.03146 19.8676 8.13493 19.9766 8.2616 20.0523C8.38827 20.128 8.53329 20.1676 8.68087 20.1666H13.5025C13.6419 20.1834 13.7832 20.1598 13.9096 20.0987C14.0359 20.0375 14.1421 19.9414 14.2155 19.8217C14.2889 19.702 14.3263 19.5638 14.3234 19.4234C14.3205 19.2831 14.2774 19.1465 14.1992 19.0299C13.4616 17.3607 12.8905 15.6229 12.4942 13.8416C12.4492 13.6667 12.4635 13.4818 12.5348 13.316C12.6061 13.1501 12.7305 13.0125 12.8884 12.9249C15.2075 11.6874 16.8759 8.05742 16.8759 3.60242Z" fill="#3E97FF"/>
<path d="M20.1667 6.65491C20.1862 7.43127 20.0521 8.20382 19.772 8.92817C19.492 9.65253 19.0716 10.3144 18.5349 10.8757C17.9983 11.4371 17.356 11.8869 16.6449 12.1992C15.9339 12.5115 15.1682 12.6803 14.3917 12.6957H13.3009C13.8263 12.3237 14.2876 11.8686 14.6667 11.3482C15.8305 11.2597 16.9167 10.7304 17.7036 9.86853C18.4906 9.00661 18.9191 7.87692 18.9017 6.70991C18.9054 6.55461 18.8784 6.40011 18.8223 6.25524C18.7663 6.11038 18.6822 5.97798 18.5749 5.86561C18.4677 5.75324 18.3393 5.66311 18.1972 5.60036C18.0551 5.53761 17.902 5.50348 17.7467 5.49991V5.49991C17.6829 5.49872 17.62 5.48497 17.5615 5.45944C17.503 5.43392 17.4501 5.39712 17.4059 5.35115C17.3616 5.30519 17.3268 5.25095 17.3035 5.19154C17.2802 5.13213 17.2688 5.06871 17.2701 5.00491V4.68408C17.2688 4.62071 17.2803 4.55774 17.3037 4.49885C17.3271 4.43995 17.362 4.38632 17.4064 4.34108C17.4508 4.29584 17.5037 4.25991 17.5622 4.23538C17.6206 4.21086 17.6834 4.19823 17.7467 4.19824C18.3919 4.20787 19.0074 4.47094 19.4602 4.93062C19.913 5.39029 20.1668 6.00966 20.1667 6.65491V6.65491ZM7.57173 11.3757C6.36252 11.3469 5.21375 10.8412 4.3758 9.9689C3.53786 9.09662 3.0787 7.92847 3.0984 6.71908C3.09099 6.40455 3.20827 6.09985 3.42464 5.87146C3.64101 5.64306 3.93893 5.5095 4.2534 5.49991V5.49991C4.32358 5.49995 4.39306 5.48585 4.45768 5.45846C4.52229 5.43106 4.58073 5.39093 4.6295 5.34045C4.67826 5.28997 4.71636 5.23019 4.74151 5.16466C4.76667 5.09914 4.77836 5.02922 4.7759 4.95908V4.72991C4.77711 4.66053 4.7645 4.5916 4.73879 4.52714C4.71307 4.46269 4.67478 4.404 4.62614 4.35451C4.5775 4.30501 4.51949 4.2657 4.45549 4.23887C4.39149 4.21204 4.32279 4.19823 4.2534 4.19824V4.19824C3.60822 4.20787 2.99274 4.47094 2.53993 4.93062C2.08711 5.39029 1.83333 6.00966 1.8334 6.65491C1.81392 7.43127 1.94806 8.20382 2.2281 8.92817C2.50814 9.65253 2.92857 10.3144 3.46522 10.8757C4.00187 11.4371 4.64416 11.8869 5.35518 12.1992C6.06621 12.5115 6.83195 12.6803 7.6084 12.6957H8.91923C8.40643 12.3258 7.95218 11.8808 7.57173 11.3757Z" fill="#3E97FF"/>
</svg>
