<svg width="182" height="157" viewBox="0 0 182 157" fill="none" xmlns="http://www.w3.org/2000/svg">
<path d="M19.9267 97.3483L18.5396 70.882L34.8004 91.6893" fill="#4BD657"/>
<path d="M27.392 94.8033C27.31 94.8033 27.2296 94.7795 27.1608 94.7348C27.092 94.6901 27.0376 94.6264 27.0042 94.5514L20.9828 80.9629C20.9587 80.9118 20.9451 80.8564 20.9428 80.7999C20.9404 80.7434 20.9493 80.6871 20.969 80.6341C20.9886 80.5811 21.0187 80.5326 21.0574 80.4914C21.0961 80.4502 21.1426 80.4171 21.1943 80.3941C21.2459 80.3712 21.3016 80.3587 21.3581 80.3575C21.4146 80.3563 21.4708 80.3664 21.5233 80.3872C21.5759 80.408 21.6237 80.4392 21.6641 80.4787C21.7045 80.5183 21.7366 80.5655 21.7585 80.6176L27.7798 94.206C27.8038 94.2572 27.8173 94.3126 27.8194 94.3691C27.8215 94.4256 27.8122 94.4819 27.7921 94.5347C27.7721 94.5875 27.7416 94.6357 27.7025 94.6765C27.6634 94.7173 27.6166 94.7499 27.5647 94.7722C27.51 94.7948 27.4512 94.8054 27.392 94.8033Z" fill="white"/>
<path d="M41.4019 89.9058C41.4019 89.9058 22.9811 68.8324 35.5249 56.0196C47.5875 43.6966 63.0699 61.6984 60.171 84.176L41.4019 89.9058Z" fill="#07ACEE"/>
<path d="M50.4863 86.9758C50.3982 86.9762 50.3121 86.9491 50.2401 86.8984C50.1681 86.8477 50.1136 86.7758 50.0842 86.6928L41.7047 63.063C41.6861 63.0104 41.6781 62.9546 41.681 62.8989C41.684 62.8432 41.6979 62.7886 41.7219 62.7383C41.746 62.6879 41.7797 62.6428 41.8212 62.6055C41.8627 62.5682 41.9112 62.5394 41.9638 62.5209C42.0164 62.5023 42.0721 62.4942 42.1278 62.4972C42.1835 62.5001 42.2381 62.514 42.2885 62.5381C42.3388 62.5621 42.3839 62.5959 42.4212 62.6374C42.4585 62.6789 42.4872 62.7273 42.5058 62.7799L50.8854 86.4097C50.9094 86.4736 50.9175 86.5425 50.9088 86.6102C50.9001 86.6779 50.8749 86.7425 50.8356 86.7984C50.7962 86.8542 50.7439 86.8995 50.683 86.9305C50.6221 86.9614 50.5546 86.977 50.4863 86.9758Z" fill="white"/>
<path d="M47.6977 79.7683C47.601 79.7679 47.5073 79.735 47.4316 79.6749L40.1759 73.8347C40.0893 73.7633 40.034 73.6608 40.0218 73.5492C40.0097 73.4376 40.0416 73.3257 40.1108 73.2373C40.1457 73.1938 40.1889 73.1576 40.2378 73.1308C40.2867 73.104 40.3405 73.087 40.3959 73.081C40.4514 73.0749 40.5076 73.0799 40.5611 73.0955C40.6147 73.1112 40.6646 73.1372 40.7081 73.1722L47.9638 79.0124C48.0324 79.0675 48.0822 79.1425 48.1064 79.2271C48.1305 79.3117 48.1278 79.4017 48.0986 79.4847C48.0694 79.5676 48.0151 79.6395 47.9433 79.6903C47.8715 79.7411 47.7857 79.7684 47.6977 79.7683Z" fill="white"/>
<path d="M45.5746 70.9216C45.5172 70.9215 45.4604 70.9099 45.4075 70.8876C45.3551 70.8657 45.3077 70.8336 45.268 70.7931C45.2282 70.7526 45.197 70.7045 45.1762 70.6517C45.1553 70.5989 45.1453 70.5425 45.1466 70.4858C45.1479 70.429 45.1606 70.3732 45.1839 70.3214L48.6971 62.0494C48.7438 61.9501 48.8272 61.8727 48.9297 61.8335C49.0323 61.7943 49.146 61.7964 49.247 61.8392C49.3481 61.8821 49.4287 61.9624 49.4718 62.0633C49.5149 62.1643 49.5173 62.278 49.4784 62.3806L45.9652 70.6526C45.9336 70.7308 45.8798 70.798 45.8103 70.8458C45.7409 70.8936 45.6589 70.9199 45.5746 70.9216Z" fill="white"/>
<path d="M135.389 80.0825C135.389 80.0825 128.181 58.9099 135.865 51.7732C143.548 44.6364 150.948 53.2566 151.038 60.7217C151.038 60.7217 153.702 55.7053 157.572 59.0656C161.442 62.426 151.03 82.8964 151.03 82.8964L135.389 80.0825Z" fill="#4BD657"/>
<path d="M143.12 81.8886C143.013 81.8889 142.911 81.8488 142.832 81.7763C142.754 81.7038 142.706 81.6043 142.698 81.4979L140.858 58.3919C140.854 58.3362 140.86 58.2802 140.877 58.2271C140.894 58.174 140.922 58.1248 140.958 58.0824C140.995 58.04 141.039 58.0052 141.089 57.9801C141.139 57.955 141.193 57.94 141.249 57.9361C141.36 57.9283 141.471 57.9644 141.556 58.037C141.641 58.1095 141.694 58.2125 141.705 58.324L143.545 81.43C143.549 81.4856 143.543 81.5415 143.526 81.5947C143.509 81.6478 143.482 81.6971 143.446 81.7396C143.41 81.7822 143.366 81.8173 143.316 81.8429C143.267 81.8684 143.212 81.884 143.157 81.8886H143.12Z" fill="white"/>
<path d="M142.843 78.384C142.768 78.3838 142.695 78.3639 142.63 78.3263C142.565 78.2887 142.512 78.2347 142.475 78.1698C142.438 78.1049 142.418 78.0314 142.419 77.9566C142.419 77.8819 142.44 77.8086 142.477 77.7442L148.193 67.986C148.219 67.9344 148.256 67.8887 148.301 67.8518C148.345 67.8148 148.397 67.7874 148.453 67.7712C148.508 67.755 148.567 67.7504 148.624 67.7576C148.682 67.7648 148.737 67.7836 148.787 67.8131C148.837 67.8425 148.88 67.8818 148.914 67.9285C148.949 67.9753 148.973 68.0287 148.986 68.0852C148.998 68.1417 148.999 68.2002 148.989 68.2571C148.978 68.3141 148.956 68.3683 148.924 68.4163L143.211 78.1745C143.173 78.2384 143.119 78.2913 143.054 78.328C142.99 78.3647 142.917 78.384 142.843 78.384Z" fill="white"/>
<path d="M150.648 82.5991C150.648 82.5991 147.927 71.0433 155.177 68.7276C162.144 66.4996 164.375 76.3201 158.826 84.1703L150.648 82.5991Z" fill="#07ACEE"/>
<path d="M154.721 83.5673H154.659C154.547 83.5505 154.447 83.4902 154.379 83.3994C154.312 83.3087 154.283 83.195 154.3 83.0832L155.848 72.5635C155.856 72.5082 155.874 72.455 155.903 72.407C155.931 72.359 155.969 72.3171 156.014 72.2839C156.059 72.2507 156.11 72.2267 156.164 72.2135C156.218 72.2003 156.274 72.198 156.329 72.2068C156.385 72.2148 156.438 72.2336 156.486 72.2621C156.534 72.2906 156.575 72.3282 156.609 72.3729C156.642 72.4176 156.667 72.4684 156.68 72.5225C156.694 72.5766 156.697 72.6328 156.689 72.688L155.14 83.2078C155.125 83.3081 155.075 83.3996 154.998 83.4656C154.921 83.5316 154.823 83.5678 154.721 83.5673Z" fill="white"/>
<path d="M155.109 80.3146C155.026 80.315 154.945 80.2908 154.875 80.2449C154.806 80.1991 154.751 80.1337 154.719 80.057L153.156 76.4277C153.112 76.3241 153.11 76.2071 153.152 76.1025C153.194 75.998 153.276 75.9143 153.38 75.87C153.483 75.8257 153.6 75.8244 153.705 75.8664C153.809 75.9083 153.893 75.9901 153.937 76.0937L155.497 79.7201C155.521 79.7716 155.533 79.8274 155.535 79.884C155.536 79.9406 155.527 79.9969 155.506 80.0497C155.485 80.1024 155.455 80.1506 155.415 80.1912C155.376 80.2318 155.329 80.2641 155.276 80.2863C155.223 80.3062 155.166 80.3158 155.109 80.3146Z" fill="white"/>
<path d="M156.066 76.5749C155.977 76.5779 155.89 76.553 155.816 76.5036C155.742 76.4543 155.686 76.3831 155.655 76.3C155.623 76.2168 155.619 76.126 155.642 76.0403C155.665 75.9545 155.714 75.8781 155.783 75.8219L158.741 73.4184C158.785 73.3833 158.835 73.3571 158.888 73.3412C158.942 73.3253 158.998 73.3201 159.053 73.3259C159.108 73.3317 159.162 73.3483 159.211 73.3749C159.26 73.4015 159.304 73.4374 159.339 73.4808C159.374 73.5241 159.4 73.5739 159.416 73.6273C159.432 73.6808 159.437 73.7368 159.431 73.7923C159.426 73.8478 159.409 73.9016 159.382 73.9506C159.356 73.9996 159.32 74.0429 159.276 74.0781L156.318 76.4787C156.247 76.5379 156.159 76.5717 156.066 76.5749Z" fill="white"/>
<path d="M0.282849 107.078L-0.000244141 106.591C0.22623 106.458 23.0039 93.2378 56.6608 84.9375C76.4292 80.0627 96.0306 77.8121 114.924 78.248C138.543 78.7916 161.111 83.5588 182 92.4197L181.779 92.9406C134.616 72.9372 87.7925 77.846 56.7938 85.4895C23.2105 93.77 0.506492 106.948 0.282849 107.078Z" fill="black"/>
<path d="M86.0573 66.6355C96.9235 66.6355 105.732 57.8267 105.732 46.9605C105.732 36.0943 96.9235 27.2855 86.0573 27.2855C75.1911 27.2855 66.3823 36.0943 66.3823 46.9605C66.3823 57.8267 75.1911 66.6355 86.0573 66.6355Z" fill="#07ACEE"/>
<path d="M90.875 56.1632C103.682 44.2415 111.948 32.3042 109.338 29.5004C106.728 26.6967 94.2303 34.0882 81.4235 46.0099C68.6166 57.9316 60.3504 69.869 62.9604 72.6727C65.5703 75.4765 78.0682 68.0849 90.875 56.1632Z" fill="#07ACEE"/>
<path d="M132.484 114.62L120.877 89.1414C117.197 96.7849 107.289 95.0864 107.289 95.0864C107.289 95.0864 113.234 111.789 117.763 120.848C122.293 129.907 127.955 140.947 134.749 134.719C141.543 128.491 136.55 94.6278 131.777 88.1506C127.813 82.7718 107.147 85.3197 107.147 85.3197C99.2209 95.2279 91.0112 84.1873 91.0112 84.1873C91.0112 84.1873 85.6041 82.0754 69.4961 87.5844C58.7386 91.2646 62.985 133.729 62.985 133.729L130.927 132.879" fill="white"/>
<path d="M130.738 136.82C130.441 136.821 130.146 136.793 129.854 136.738C124.94 135.832 120.821 127.594 117.512 120.975C113.025 112.004 107.082 95.3496 107.023 95.1826L106.862 94.7268L107.337 94.8061C107.433 94.8231 117.078 96.3773 120.623 89.0197L120.886 88.4733L132.742 114.504L132.227 114.736L120.863 89.7897C117.441 96.0178 109.695 95.6384 107.711 95.4261C108.679 98.1126 113.953 112.593 118.015 120.72C121.098 126.886 125.319 135.325 129.956 136.183C131.511 136.466 133.017 135.923 134.557 134.51C137.447 131.86 138.48 123.28 137.32 111.557C136.315 101.411 133.835 91.4203 131.55 88.3176C127.87 83.3352 108.945 85.3961 107.295 85.5886C105.03 88.3827 102.513 89.7784 99.8211 89.7302C95.034 89.6453 91.3481 85.0875 90.8385 84.4279C90.1591 84.2213 84.4067 82.7831 69.5868 87.8533C59.1633 91.4175 63.2257 133.278 63.2681 133.714L62.7019 133.771C62.5292 132.027 58.5603 91.041 69.4056 87.3438C85.4258 81.8631 90.8895 83.8646 91.1132 83.9467L91.1896 83.975L91.2377 84.0401C91.2774 84.091 95.0623 89.1046 99.8324 89.1867C102.38 89.2292 104.755 87.876 106.927 85.1668L106.997 85.0762H107.114C107.963 84.9715 127.989 82.5708 132.003 88.0204C136.654 94.3277 142.016 128.48 134.942 134.966C133.569 136.186 132.156 136.82 130.738 136.82Z" fill="black"/>
<path d="M84.738 48.2457C84.738 48.2457 97.8424 30.9204 104.914 35.3791C111.986 39.8379 107.165 48.6505 107.165 48.6505L90.9434 74.2875C90.9434 74.2875 93.5111 80.4561 84.2171 83.9126C70.6456 88.946 74.0966 76.4418 71.4779 72.5889C67.3023 66.4401 69.7794 63.2383 84.738 48.2457Z" fill="#201000"/>
<path d="M91.0854 86.2907L90.9438 74.2875C90.9438 74.2875 85.6076 70.1912 85.4547 66.3184C85.4547 66.3184 75.1614 67.5895 73.6157 61.186C72.07 54.7824 77.0949 51.1362 81.0526 53.132L85.0159 55.1306C85.0159 55.1306 92.297 53.9812 91.561 46.2528C91.561 46.2528 103.301 38.0431 108.459 48.5997C113.617 59.1562 115.717 68.5662 113.271 72.0964C110.825 75.6265 105.249 76.2918 105.249 76.2918L105.288 85.7131C105.288 85.7131 101.011 97.5323 91.0854 86.2907Z" fill="white"/>
<path d="M98.9665 91.4288C96.4951 91.4288 93.7774 89.767 90.8728 86.4775C90.828 86.4266 90.8028 86.3613 90.8021 86.2935L90.6605 74.4262C89.8933 73.8176 85.5648 70.2251 85.194 66.6298C83.4416 66.794 74.796 67.2809 73.3409 61.2511C72.5652 58.0464 73.3409 55.1448 75.4414 53.4887C76.237 52.844 77.2022 52.4434 78.2205 52.3354C79.2388 52.2273 80.2666 52.4165 81.1797 52.88L85.0553 54.8362C85.9045 54.6748 91.9401 53.282 91.2833 46.2783C91.2787 46.2287 91.2873 46.1787 91.3082 46.1335C91.3291 46.0883 91.3615 46.0494 91.4022 46.0207C91.6485 45.848 97.4774 41.828 102.814 43.2067C105.345 43.8607 107.343 45.6328 108.719 48.4751C114.14 59.578 115.975 68.6964 113.509 72.2719C111.29 75.4878 106.678 76.3796 105.54 76.5523L105.577 85.7245C105.577 85.7583 105.571 85.7918 105.56 85.8236C105.489 86.0161 103.788 90.6106 99.9856 91.3325C99.6496 91.3965 99.3085 91.4287 98.9665 91.4288ZM91.3654 86.1803C94.5021 89.7076 97.3585 91.2533 99.8582 90.7777C103.156 90.152 104.809 86.1463 104.993 85.682L104.954 76.3173C104.953 76.2473 104.979 76.1796 105.025 76.1273C105.072 76.0751 105.136 76.0419 105.206 76.0342C105.26 76.0342 110.684 75.3548 113.028 71.9577C115.341 68.603 113.444 59.4846 108.195 48.744C106.882 46.0575 105.019 44.3844 102.655 43.7757C97.9954 42.5698 92.7469 45.8225 91.8438 46.4141C92.478 54.1652 85.126 55.4194 85.0496 55.4307C84.9905 55.4397 84.9301 55.4298 84.8769 55.4023L80.9136 53.4207C80.0969 53.006 79.1774 52.8369 78.2665 52.9339C77.3556 53.0308 76.4923 53.3897 75.7811 53.9671C73.8703 55.4816 73.1597 58.1682 73.8788 61.152C75.348 67.2357 85.3072 66.0835 85.4091 66.0721C85.448 66.0673 85.4874 66.0706 85.525 66.0818C85.5625 66.093 85.5973 66.1119 85.6271 66.1372C85.6568 66.1626 85.6809 66.1938 85.698 66.2288C85.715 66.2639 85.7246 66.3021 85.7262 66.3411C85.8734 70.0354 91.0512 74.0582 91.105 74.0978C91.1389 74.1239 91.1664 74.1573 91.1855 74.1956C91.2046 74.2338 91.2148 74.2759 91.2154 74.3186L91.3654 86.1803Z" fill="black"/>
<path d="M105.973 62.341C105.927 62.3409 105.882 62.3298 105.842 62.3086C105.801 62.2874 105.767 62.2568 105.741 62.2193C105.698 62.158 105.681 62.0822 105.694 62.0085C105.706 61.9348 105.748 61.8691 105.809 61.8258C106.992 60.9765 107.601 59.9857 107.618 58.8589C107.66 55.9063 103.745 52.914 103.705 52.8857C103.676 52.8634 103.651 52.8354 103.632 52.8034C103.613 52.7715 103.6 52.736 103.595 52.6992C103.59 52.6624 103.592 52.625 103.601 52.5889C103.61 52.5529 103.626 52.5191 103.649 52.4894C103.694 52.4293 103.761 52.3896 103.835 52.3789C103.909 52.3683 103.985 52.3877 104.045 52.4327C104.215 52.5629 108.232 55.626 108.184 58.8646C108.164 60.1838 107.476 61.336 106.134 62.2872C106.088 62.3225 106.031 62.3414 105.973 62.341Z" fill="black"/>
<path d="M78.9687 60.6085C78.8936 60.6085 78.8216 60.5787 78.7685 60.5256C78.7154 60.4725 78.6856 60.4005 78.6856 60.3254C78.6856 60.2744 78.6459 59.0401 79.5348 58.4456C80.2086 57.9899 81.2023 58.0521 82.4819 58.6296C82.5456 58.6632 82.5941 58.7199 82.6176 58.788C82.641 58.8562 82.6376 58.9307 82.608 58.9964C82.5784 59.0621 82.5248 59.114 82.4583 59.1416C82.3917 59.1692 82.3171 59.1704 82.2497 59.1449C81.174 58.6608 80.3445 58.5787 79.8519 58.9156C79.2263 59.3346 79.2574 60.2942 79.2574 60.3027C79.2574 60.3778 79.2276 60.4498 79.1745 60.5029C79.1214 60.556 79.0494 60.5858 78.9743 60.5858L78.9687 60.6085Z" fill="black"/>
<path d="M92.5175 52.5884C92.446 52.5881 92.3772 52.5608 92.325 52.5119C92.2723 52.4589 92.2427 52.3872 92.2427 52.3124C92.2427 52.2376 92.2723 52.1658 92.325 52.1128C92.9481 51.4989 93.7756 51.1362 94.6492 51.0936C94.7243 51.0914 94.7972 51.1191 94.8519 51.1706C94.9066 51.2221 94.9385 51.2931 94.9408 51.3682C94.943 51.4433 94.9154 51.5162 94.8639 51.5709C94.8124 51.6256 94.7413 51.6576 94.6662 51.6598C93.9426 51.7031 93.2587 52.0045 92.7384 52.5091C92.7094 52.5373 92.6747 52.559 92.6366 52.5727C92.5985 52.5864 92.5579 52.5917 92.5175 52.5884Z" fill="black"/>
<path d="M94.6494 54.3181C95.0058 54.3181 95.2948 54.0291 95.2948 53.6726C95.2948 53.3162 95.0058 53.0272 94.6494 53.0272C94.2929 53.0272 94.0039 53.3162 94.0039 53.6726C94.0039 54.0291 94.2929 54.3181 94.6494 54.3181Z" fill="#201000"/>
<path d="M104.857 50.8955C105.214 50.8955 105.503 50.6065 105.503 50.2501C105.503 49.8936 105.214 49.6046 104.857 49.6046C104.501 49.6046 104.212 49.8936 104.212 50.2501C104.212 50.6065 104.501 50.8955 104.857 50.8955Z" fill="#201000"/>
<path d="M98.6379 84.1872C98.5879 84.1882 98.5387 84.1744 98.4964 84.1476C98.4316 84.1103 98.3843 84.0488 98.3647 83.9767C98.345 83.9046 98.3548 83.8276 98.3917 83.7626L99.541 81.781C99.5785 81.7156 99.6405 81.6679 99.7132 81.6483C99.786 81.6286 99.8635 81.6387 99.9289 81.6762C99.9942 81.7137 100.042 81.7757 100.062 81.8484C100.081 81.9212 100.071 81.9987 100.034 82.064L98.8814 84.0457C98.8567 84.0885 98.8212 84.1241 98.7785 84.1489C98.7358 84.1737 98.6873 84.1869 98.6379 84.1872Z" fill="black"/>
<path d="M104.512 45.8111C104.469 45.8109 104.428 45.8012 104.389 45.7826C104.351 45.7639 104.318 45.737 104.291 45.7036C103.482 44.6901 102.109 45.3752 102.049 45.4035C101.983 45.4373 101.905 45.4435 101.834 45.4207C101.763 45.3979 101.704 45.3479 101.67 45.2818C101.653 45.2487 101.642 45.2125 101.639 45.1754C101.636 45.1383 101.64 45.1009 101.651 45.0654C101.663 45.0299 101.681 44.997 101.705 44.9685C101.729 44.9401 101.758 44.9166 101.792 44.8996C102.423 44.574 103.852 44.2485 104.733 45.3525C104.779 45.4108 104.801 45.4852 104.793 45.5595C104.785 45.6337 104.748 45.7017 104.69 45.7489C104.64 45.7894 104.577 45.8114 104.512 45.8111Z" fill="black"/>
<path d="M84.0896 61.789C84.0341 61.7889 83.9798 61.7725 83.9334 61.7418C83.8871 61.7111 83.8508 61.6674 83.8291 61.6163C81.5644 56.2375 77.2954 56.9905 77.117 57.0245C77.0798 57.0318 77.0416 57.0316 77.0045 57.0241C76.9674 57.0165 76.9321 57.0018 76.9007 56.9806C76.8693 56.9595 76.8423 56.9323 76.8214 56.9007C76.8005 56.8692 76.786 56.8338 76.7788 56.7966C76.7715 56.7594 76.7717 56.7212 76.7792 56.684C76.7867 56.6469 76.8015 56.6117 76.8227 56.5803C76.8438 56.5489 76.8709 56.5219 76.9025 56.501C76.9341 56.48 76.9695 56.4656 77.0066 56.4583C77.0576 56.4583 81.9041 55.5779 84.3501 61.3841C84.3644 61.4185 84.3719 61.4554 84.372 61.4927C84.3721 61.5299 84.3649 61.5668 84.3507 61.6013C84.3365 61.6358 84.3156 61.6671 84.2892 61.6934C84.2629 61.7198 84.2316 61.7407 84.1972 61.755C84.1646 61.7748 84.1277 61.7864 84.0896 61.789Z" fill="black"/>
<path d="M109.888 63.5554H109.857C109.783 63.5469 109.715 63.5094 109.668 63.451C109.622 63.3927 109.6 63.3183 109.608 63.244C109.656 62.7939 109.608 62.491 109.447 62.3947C109.096 62.2022 108.116 62.7684 107.564 63.2129C107.535 63.2362 107.501 63.2536 107.466 63.264C107.43 63.2743 107.392 63.2775 107.355 63.2733C107.318 63.2691 107.282 63.2576 107.249 63.2394C107.217 63.2213 107.188 63.1969 107.165 63.1676C107.119 63.1089 107.097 63.0343 107.106 62.9601C107.114 62.8859 107.152 62.818 107.21 62.7712C107.493 62.5476 108.909 61.4577 109.718 61.8993C110.095 62.106 110.248 62.5759 110.168 63.295C110.163 63.3656 110.131 63.4315 110.079 63.4797C110.027 63.5279 109.959 63.5549 109.888 63.5554Z" fill="black"/>
<path d="M77.0354 108.331L76.4695 108.349L77.3209 136.376L77.8868 136.359L77.0354 108.331Z" fill="black"/>
<path d="M107.29 95.0863C106.186 91.9133 104.559 88.9471 102.477 86.3104C99.0798 82.064 95.9658 80.0824 97.0982 76.6853C97.0982 76.6853 96.8151 74.7036 97.9475 73.8543C97.9475 73.8543 97.3813 73.005 97.9475 70.7403C97.9475 70.7403 93.418 66.777 95.6827 64.5123C97.9475 62.2475 100.212 69.891 105.591 71.8727C110.97 73.8543 113.518 73.2881 114.367 67.9094C114.983 68.5978 115.451 69.405 115.743 70.2814C116.036 71.1578 116.145 72.0847 116.065 73.005C115.782 76.1191 117.481 82.9133 120.878 89.1413C120.878 89.1413 119.179 97.068 107.29 95.0863Z" fill="white"/>
<path d="M96.5518 64.6623C97.169 64.6623 98.1201 65.8343 99.1251 67.0743C100.679 68.9936 102.616 71.3801 105.396 72.4049C107.403 73.1438 108.903 73.4863 110.12 73.4863C112.515 73.4863 113.951 72.1784 114.67 69.2852C115.324 70.3951 115.615 71.6819 115.502 72.9654C115.219 76.054 116.799 82.7774 120.272 89.2235C119.964 90.2228 118.143 94.8485 110.888 94.8485C109.826 94.8432 108.766 94.758 107.717 94.5937C106.587 91.4783 104.962 88.5656 102.904 85.9679C102.075 84.9318 101.254 84.0202 100.532 83.2134C98.2447 80.6656 96.8661 79.1397 97.6219 76.8749L97.6644 76.7475L97.6445 76.6173C97.6445 76.6003 97.4322 74.9499 98.273 74.3186L98.7543 74.0072L98.4117 73.5599C98.3664 73.4693 98.0295 72.7106 98.4825 70.8904L98.5674 70.5535L98.307 70.327C97.571 69.6816 95.6516 67.6659 95.6006 66.1032C95.5895 65.8845 95.6255 65.666 95.7061 65.4623C95.7867 65.2587 95.91 65.0747 96.0678 64.9227C96.3197 64.6736 96.4839 64.6736 96.5377 64.6736L96.5518 64.6623ZM96.5377 64.1074C96.3721 64.114 96.2096 64.1543 96.0602 64.2258C95.9107 64.2974 95.7775 64.3987 95.6686 64.5236C93.4038 66.7883 97.9333 70.7516 97.9333 70.7516C97.3671 73.0164 97.9333 73.8657 97.9333 73.8657C96.8009 74.7149 97.084 76.6966 97.084 76.6966C95.9516 80.0937 99.0657 82.0754 102.463 86.3218C104.545 88.9584 106.171 91.9246 107.275 95.0976C108.464 95.3025 109.667 95.4085 110.873 95.4147C119.522 95.4147 120.864 89.1527 120.864 89.1527C117.467 82.9246 115.768 76.1304 116.051 73.0164C116.131 72.0961 116.021 71.1691 115.729 70.2928C115.437 69.4164 114.969 68.6091 114.353 67.9207C113.787 71.482 112.484 72.9314 110.106 72.9314C108.889 72.9314 107.394 72.5549 105.577 71.884C100.88 70.1543 98.559 64.1074 96.5377 64.1074Z" fill="black"/>
<path d="M103.751 74.8452H103.683C100.218 73.9789 97.9473 70.6243 97.8539 70.4799C97.817 70.4176 97.8055 70.3436 97.8215 70.273C97.8376 70.2025 97.88 70.1407 97.9402 70.1005C98.0003 70.0603 98.0736 70.0446 98.145 70.0567C98.2163 70.0689 98.2803 70.1078 98.3238 70.1657C98.3465 70.1996 100.572 73.4835 103.819 74.296C103.894 74.305 103.962 74.3435 104.009 74.4029C104.056 74.4624 104.077 74.538 104.068 74.6131C104.059 74.6882 104.02 74.7566 103.961 74.8033C103.901 74.85 103.826 74.8712 103.751 74.8622V74.8452Z" fill="black"/>
<path d="M102.618 77.9592C102.582 77.9593 102.547 77.9526 102.513 77.9394C100.687 77.1635 99.1521 75.8323 98.1254 74.1346C98.0879 74.0693 98.0778 73.9917 98.0975 73.919C98.1171 73.8463 98.1649 73.7843 98.2302 73.7468C98.2955 73.7092 98.3731 73.6992 98.4458 73.7188C98.5186 73.7385 98.5805 73.7862 98.6181 73.8515C98.6322 73.877 100.034 76.3286 102.723 77.4072C102.784 77.4314 102.835 77.4763 102.867 77.5341C102.899 77.5919 102.909 77.659 102.897 77.7238C102.884 77.7885 102.85 77.8469 102.799 77.8889C102.748 77.9308 102.684 77.9537 102.618 77.9535V77.9592Z" fill="black"/>
<path d="M101.486 80.5071C101.452 80.5074 101.418 80.5016 101.387 80.4901C99.0624 79.6182 97.3582 77.093 97.2874 76.9826C97.2506 76.9203 97.239 76.8463 97.2551 76.7757C97.2712 76.7052 97.3136 76.6434 97.3738 76.6032C97.4339 76.563 97.5072 76.5473 97.5786 76.5594C97.6499 76.5715 97.7139 76.6105 97.7574 76.6683C97.7744 76.6938 99.4333 79.1539 101.585 79.9579C101.648 79.9807 101.7 80.0249 101.734 80.0828C101.767 80.1407 101.779 80.2086 101.767 80.2743C101.755 80.34 101.72 80.3995 101.669 80.4421C101.617 80.4847 101.553 80.5077 101.486 80.5071Z" fill="black"/>
<path d="M76.4661 110.025L76.9982 86.0217L77.5644 86.033L77.0463 109.453L82.8017 109.385V84.1278H83.3678V109.946L76.4661 110.025Z" fill="black"/>
<path d="M78.5554 104.853V124.67H81.9525L81.6694 104.853H78.5554Z" fill="white"/>
<path d="M81.1032 105.419L81.3693 124.103H79.1045V105.419H81.0862H81.1032ZM81.6524 104.853H78.5383V124.67H81.9354L81.6524 104.853Z" fill="black"/>
<path d="M81.6692 104.287V106.835H78.5552V104.287H81.6692ZM82.2354 103.721H77.989V107.401H82.2354V103.721Z" fill="black"/>
<path d="M110.5 103.721C110.5 103.721 117.251 108.412 125.365 98.9902L110.5 103.721Z" fill="white"/>
<path d="M114.871 105.147C113.279 105.175 111.712 104.762 110.341 103.953L110.664 103.489C110.947 103.673 117.314 107.908 125.153 98.8033L125.58 99.1742C121.467 103.953 117.653 105.147 114.871 105.147Z" fill="black"/>
<path d="M124.368 85.0414L123.803 85.0787L124.66 98.036L125.224 97.9986L124.368 85.0414Z" fill="black"/>
<path d="M100.07 98.0588C100.016 98.0589 99.9632 98.0435 99.9176 98.0144C99.8719 97.9853 99.8356 97.9437 99.8129 97.8946C98.1143 94.1946 98.3606 85.9424 98.3719 85.5942C98.3741 85.5191 98.4062 85.448 98.4608 85.3965C98.5155 85.345 98.5884 85.3173 98.6635 85.3196C98.7386 85.3218 98.8097 85.3538 98.8612 85.4085C98.9127 85.4632 98.9403 85.5361 98.9381 85.6112C98.9381 85.6961 98.6776 94.0813 100.328 97.6568C100.344 97.6906 100.353 97.7272 100.354 97.7644C100.356 97.8017 100.35 97.8389 100.337 97.8739C100.324 97.9088 100.304 97.9409 100.279 97.9683C100.254 97.9957 100.223 98.0178 100.189 98.0333C100.152 98.0498 100.111 98.0585 100.07 98.0588Z" fill="black"/>
<path d="M97.6641 85.4612C97.6168 85.4611 97.5702 85.4491 97.5286 85.4264C97.4871 85.4036 97.4519 85.3708 97.4263 85.331C84.2285 64.5519 84.0757 46.0121 84.0757 45.8281C84.0757 45.7531 84.1055 45.681 84.1586 45.6279C84.2117 45.5749 84.2837 45.545 84.3588 45.545C84.4339 45.545 84.5058 45.5749 84.5589 45.6279C84.612 45.681 84.6419 45.7531 84.6419 45.8281C84.6419 46.0121 84.8004 64.3962 97.902 85.0252C97.9294 85.0679 97.9448 85.1173 97.9466 85.168C97.9484 85.2188 97.9365 85.2691 97.9122 85.3136C97.8879 85.3582 97.852 85.3954 97.8084 85.4214C97.7647 85.4473 97.7149 85.4611 97.6641 85.4612Z" fill="black"/>
<path d="M99.3741 83.9042H96.5205C95.9795 83.9042 95.541 84.3427 95.541 84.8837V85.1894C95.541 85.7304 95.9795 86.1689 96.5205 86.1689H99.3741C99.9151 86.1689 100.354 85.7304 100.354 85.1894V84.8837C100.354 84.3427 99.9151 83.9042 99.3741 83.9042Z" fill="white"/>
<path d="M99.3741 84.4704C99.4292 84.4707 99.4837 84.482 99.5345 84.5037C99.5852 84.5253 99.6311 84.5568 99.6696 84.5963C99.708 84.6358 99.7382 84.6825 99.7585 84.7338C99.7787 84.7851 99.7885 84.8399 99.7874 84.895V85.1781C99.7867 85.2875 99.7429 85.3922 99.6656 85.4696C99.5882 85.5469 99.4835 85.5907 99.3741 85.5914H96.5205C96.4111 85.5907 96.3064 85.5469 96.2291 85.4696C96.1517 85.3922 96.1079 85.2875 96.1072 85.1781V84.895C96.1079 84.7856 96.1517 84.6809 96.2291 84.6036C96.3064 84.5262 96.4111 84.4825 96.5205 84.4817H99.3741V84.4704ZM99.3741 83.9155H96.5205C96.2607 83.9155 96.0116 84.0187 95.8279 84.2024C95.6442 84.3861 95.541 84.6352 95.541 84.895V85.1781C95.541 85.4379 95.6442 85.687 95.8279 85.8707C96.0116 86.0544 96.2607 86.1576 96.5205 86.1576H99.3741C99.6339 86.1576 99.883 86.0544 100.067 85.8707C100.25 85.687 100.354 85.4379 100.354 85.1781V84.895C100.354 84.6352 100.25 84.3861 100.067 84.2024C99.883 84.0187 99.6339 83.9155 99.3741 83.9155Z" fill="black"/>
<path d="M96.9564 93.5294C96.9263 93.5332 96.8958 93.5332 96.8657 93.5294C96.8304 93.5175 96.7977 93.4989 96.7696 93.4744C96.7415 93.4499 96.7184 93.4201 96.7019 93.3867C96.6853 93.3533 96.6755 93.3169 96.673 93.2797C96.6705 93.2425 96.6754 93.2051 96.6874 93.1698C98.0548 89.065 96.9705 86.0274 96.9705 85.9963C96.9566 85.961 96.95 85.9234 96.9509 85.8856C96.9518 85.8477 96.9603 85.8104 96.9759 85.776C96.9915 85.7415 97.0138 85.7104 97.0416 85.6847C97.0694 85.659 97.102 85.6391 97.1376 85.6263C97.1732 85.6134 97.211 85.6078 97.2488 85.6098C97.2866 85.6118 97.3236 85.6213 97.3576 85.6379C97.3917 85.6544 97.4221 85.6776 97.447 85.7061C97.4719 85.7346 97.4908 85.7678 97.5027 85.8037C97.5508 85.934 98.6521 89.0593 97.2196 93.351C97.1986 93.4037 97.1623 93.4488 97.1154 93.4806C97.0684 93.5124 97.0131 93.5294 96.9564 93.5294Z" fill="black"/>
<path d="M75.7245 51.3484C75.6829 51.3485 75.6419 51.3394 75.6042 51.3218C75.5665 51.3042 75.5332 51.2785 75.5065 51.2465C68.1093 42.4282 73.975 31.1752 74.0345 31.062C74.0698 30.9955 74.13 30.9458 74.2019 30.9238C74.2739 30.9018 74.3516 30.9092 74.4181 30.9445C74.4845 30.9798 74.5342 31.04 74.5562 31.112C74.5783 31.1839 74.5708 31.2617 74.5356 31.3281C74.4761 31.4385 68.7916 42.3687 75.951 50.8842C75.9855 50.9255 76.0074 50.9759 76.0143 51.0293C76.0211 51.0827 76.0126 51.1369 75.9897 51.1857C75.9668 51.2344 75.9306 51.2756 75.8851 51.3044C75.8396 51.3332 75.7869 51.3485 75.733 51.3484H75.7245Z" fill="black"/>
<path d="M83.0847 44.8203C83.0416 44.8205 82.999 44.8108 82.9602 44.792C73.5133 40.1945 76.449 29.6465 76.483 29.5418C76.4931 29.5058 76.5102 29.4722 76.5333 29.4429C76.5565 29.4136 76.5852 29.3892 76.6179 29.371C76.6505 29.3529 76.6864 29.3414 76.7235 29.3371C76.7606 29.3329 76.7981 29.3361 76.834 29.3464C76.9061 29.3675 76.9669 29.4162 77.003 29.4821C77.0391 29.5479 77.0476 29.6254 77.0265 29.6975C76.9076 30.1136 74.1956 39.8888 83.2093 44.2824C83.2428 44.2987 83.2728 44.3215 83.2974 44.3494C83.3221 44.3773 83.3411 44.4098 83.3531 44.4451C83.3652 44.4803 83.3703 44.5176 83.3679 44.5548C83.3656 44.592 83.3559 44.6283 83.3395 44.6618C83.3161 44.7094 83.2799 44.7495 83.2348 44.7776C83.1898 44.8056 83.1378 44.8204 83.0847 44.8203Z" fill="black"/>
<path d="M78.5966 32.3374C79.8889 31.5948 80.6829 30.5517 80.3702 30.0076C80.0575 29.4635 78.7565 29.6244 77.4643 30.3671C76.1721 31.1098 75.378 32.1529 75.6907 32.697C76.0034 33.241 77.3044 33.0801 78.5966 32.3374Z" fill="white"/>
<path d="M76.8569 28.4519C76.9531 28.4474 77.0493 28.4619 77.14 28.4944C77.14 28.7096 76.6955 29.4031 75.5915 30.0401C75.0391 30.388 74.4106 30.5968 73.7598 30.6488C73.6636 30.6533 73.5674 30.6388 73.4768 30.6063C73.4768 30.3911 73.9212 29.6976 75.0253 29.0606C75.5777 28.7127 76.2061 28.5039 76.8569 28.4519ZM76.8569 27.8858C76.1064 27.9368 75.38 28.1721 74.7422 28.5709C73.4569 29.3126 72.6671 30.3543 72.9785 30.895C73.0695 31.0119 73.1895 31.1028 73.3266 31.159C73.4636 31.2151 73.613 31.2344 73.7598 31.2149C74.5104 31.1639 75.2367 30.9286 75.8745 30.5298C77.1598 29.7881 77.9496 28.7464 77.6382 28.2057C77.5472 28.0888 77.4271 27.9979 77.2901 27.9417C77.153 27.8856 77.0037 27.8663 76.8569 27.8858Z" fill="black"/>
<path d="M69.9096 58.4853C69.8591 58.4854 69.8094 58.4719 69.7658 58.4463C69.7221 58.4207 69.6862 58.3839 69.6616 58.3397C69.637 58.2955 69.6248 58.2455 69.6261 58.1949C69.6274 58.1443 69.6423 58.0951 69.6691 58.0522C78.5101 44.0589 98.8276 32.1718 99.0343 32.0529C99.0666 32.0342 99.1023 32.0221 99.1393 32.0172C99.1763 32.0123 99.214 32.0148 99.25 32.0245C99.286 32.0343 99.3198 32.0511 99.3493 32.0739C99.3789 32.0967 99.4036 32.1252 99.4221 32.1576C99.459 32.2226 99.4687 32.2996 99.4491 32.3717C99.4295 32.4439 99.3821 32.5053 99.3174 32.5426C99.1164 32.6615 78.9149 44.4807 70.1588 58.3522C70.1326 58.3943 70.0957 58.4287 70.052 58.452C70.0083 58.4754 69.9592 58.4869 69.9096 58.4853Z" fill="black"/>
<path d="M14.6466 50.4624C14.5387 50.4626 14.4347 50.4218 14.3559 50.3482C14.277 50.2746 14.2291 50.1737 14.2219 50.066C14.0917 48.1637 14.0747 46.2839 14.0747 44.86C14.0974 43.3171 14.1427 41.494 14.2984 39.6482C14.3091 39.5363 14.3636 39.433 14.45 39.361C14.5364 39.2889 14.6477 39.2538 14.7598 39.2632C14.8152 39.2679 14.8693 39.2834 14.9187 39.309C14.9682 39.3346 15.012 39.3697 15.0478 39.4123C15.0836 39.455 15.1106 39.5043 15.1273 39.5574C15.1439 39.6105 15.1499 39.6664 15.1448 39.7218C14.9919 41.5421 14.9466 43.3426 14.924 44.8656C14.924 46.2811 14.941 48.1297 15.0684 50.0094C15.0726 50.0649 15.0658 50.1207 15.0482 50.1735C15.0306 50.2263 15.0026 50.2751 14.966 50.317C14.9294 50.3589 14.8848 50.3931 14.8348 50.4176C14.7848 50.4421 14.7305 50.4563 14.6749 50.4595L14.6466 50.4624Z" fill="black"/>
<path d="M15.4392 33.2815H15.3656C15.2548 33.2615 15.1563 33.1985 15.0916 33.1062C15.0269 33.014 15.0013 32.9 15.0203 32.7889C15.6101 29.3491 16.518 25.9715 17.7322 22.6995C17.7461 22.6415 17.772 22.5871 17.8083 22.5398C17.8445 22.4925 17.8903 22.4533 17.9427 22.4248C17.9951 22.3964 18.0529 22.3793 18.1124 22.3747C18.1718 22.3701 18.2316 22.378 18.2877 22.398C18.3439 22.418 18.3952 22.4496 18.4383 22.4907C18.4815 22.5318 18.5155 22.5816 18.5381 22.6367C18.5608 22.6919 18.5716 22.7512 18.5698 22.8108C18.568 22.8704 18.5537 22.9289 18.5278 22.9826C17.3319 26.2059 16.4382 29.5333 15.8582 32.922C15.8427 33.022 15.792 33.1132 15.7151 33.1791C15.6383 33.245 15.5405 33.2814 15.4392 33.2815Z" fill="black"/>
<path d="M21.8231 15.7156C21.7469 15.7155 21.6722 15.6948 21.6067 15.6559C21.5412 15.617 21.4875 15.5611 21.451 15.4943C21.4145 15.4274 21.3967 15.352 21.3994 15.2758C21.4021 15.1997 21.4253 15.1257 21.4664 15.0616L21.707 14.6794C21.8599 14.436 22.0099 14.1954 22.1713 13.9576L23.3178 12.3666C23.4169 12.2392 23.5103 12.126 23.6009 12.0156L24.5691 10.8407C24.7588 10.6114 24.9597 10.4019 25.1579 10.1981L25.4665 9.8697L25.9195 9.39412C26.0727 9.22205 26.2362 9.05942 26.4092 8.90718L27.3604 8.0381L27.5274 7.88521C27.635 7.78613 27.7454 7.68424 27.8699 7.58515L28.3824 7.18598C28.426 7.14962 28.4765 7.1224 28.5309 7.10591C28.5853 7.08943 28.6424 7.08402 28.6989 7.09002C28.7554 7.09601 28.8102 7.11328 28.8599 7.14082C28.9096 7.16835 28.9532 7.20557 28.9883 7.25029C29.0233 7.29502 29.0491 7.34633 29.064 7.40117C29.0788 7.45602 29.0825 7.51327 29.0749 7.56957C29.0672 7.62587 29.0483 7.68008 29.0193 7.72895C28.9903 7.77782 28.9518 7.82036 28.9061 7.85408L28.3937 8.25325C28.2946 8.33252 28.2012 8.42028 28.1106 8.50804C28.02 8.5958 27.9945 8.61843 27.935 8.66939L26.9782 9.5413C26.8253 9.67778 26.6797 9.82237 26.5422 9.97444L26.0921 10.4501C25.993 10.5605 25.8827 10.6737 25.7751 10.7869C25.5797 10.9879 25.3985 11.1776 25.2287 11.3814L24.2605 12.5563C24.1727 12.661 24.085 12.7686 24.0001 12.8761L22.8677 14.4445C22.7205 14.6625 22.5846 14.8975 22.4261 15.1296L22.1798 15.5202C22.1416 15.5802 22.0889 15.6296 22.0265 15.6637C21.9642 15.6979 21.8942 15.7157 21.8231 15.7156Z" fill="black"/>
<path d="M35.9239 3.76058C35.825 3.76002 35.7293 3.72489 35.6535 3.6613C35.5777 3.5977 35.5264 3.50963 35.5086 3.41228C35.4908 3.31492 35.5076 3.21442 35.556 3.12811C35.6045 3.04181 35.6815 2.97513 35.7739 2.9396C39.0668 1.70657 42.5365 1.01072 46.0502 0.878676C46.1059 0.87563 46.1617 0.883751 46.2143 0.902555C46.2668 0.921359 46.315 0.950478 46.3562 0.988188C46.3973 1.0259 46.4305 1.07145 46.4538 1.12217C46.4771 1.17288 46.49 1.22774 46.4918 1.28351C46.4945 1.33929 46.4861 1.39505 46.4672 1.44759C46.4483 1.50013 46.4192 1.54841 46.3816 1.58969C46.344 1.63098 46.2986 1.66446 46.2481 1.68818C46.1975 1.7119 46.1428 1.72541 46.087 1.72796C42.6645 1.85589 39.2847 2.53262 36.0768 3.73228C36.0281 3.75123 35.9762 3.76083 35.9239 3.76058Z" fill="black"/>
<path d="M57.1136 3.15479C57.0644 3.15462 57.0155 3.14601 56.9692 3.12932C55.3733 2.56844 53.7173 2.19599 52.0349 2.01958C51.7518 1.99127 51.4885 1.96862 51.2111 1.94598L50.7553 1.90634C50.4949 1.88369 50.2287 1.87803 49.9513 1.87237H49.4842L48.7538 1.84973C48.1512 1.81859 47.5475 1.81859 46.9449 1.84973C46.8891 1.85364 46.8331 1.84653 46.7801 1.82879C46.7271 1.81106 46.6781 1.78304 46.6359 1.74637C46.5937 1.7097 46.5592 1.66508 46.5342 1.61506C46.5093 1.56503 46.4944 1.51058 46.4905 1.45481C46.4866 1.39905 46.4937 1.34306 46.5115 1.29004C46.5292 1.23703 46.5572 1.18803 46.5939 1.14584C46.6305 1.10365 46.6752 1.06908 46.7252 1.04414C46.7752 1.01919 46.8296 1.00436 46.8854 1.00045C47.5172 0.966482 48.1504 0.966482 48.7822 1.00045C49.0256 1.00045 49.2662 1.01743 49.5097 1.02026H49.9711C50.2542 1.02026 50.5373 1.02026 50.8204 1.05706L51.2733 1.0967C51.5564 1.11934 51.8395 1.14483 52.1226 1.17314C53.8726 1.35695 55.5951 1.74457 57.2551 2.32814C57.349 2.3622 57.4278 2.42825 57.4778 2.51465C57.5278 2.60105 57.5458 2.70229 57.5285 2.80061C57.5113 2.89894 57.4599 2.98804 57.3835 3.05229C57.3071 3.11654 57.2106 3.15184 57.1107 3.15195L57.1136 3.15479Z" fill="black"/>
<path d="M67.0613 16.0129C66.9555 16.0133 66.8535 15.9739 66.7753 15.9026C66.6972 15.8313 66.6487 15.7332 66.6394 15.6279C66.5491 14.7836 66.4053 13.9458 66.2091 13.1197C66.0036 12.3028 65.7377 11.5023 65.4137 10.7247C65.0897 9.94672 64.6935 9.20082 64.2303 8.49676C64.0605 8.22814 63.8773 7.9683 63.6811 7.71826L63.4802 7.45496C63.4065 7.36154 63.3188 7.26246 63.2311 7.17187L63.0753 6.99352C62.9465 6.8382 62.8095 6.68985 62.6649 6.54908C62.5858 6.47111 62.5404 6.36526 62.5384 6.2542C62.5364 6.14315 62.578 6.03574 62.6543 5.95501C62.7306 5.87428 62.8355 5.82665 62.9464 5.82234C63.0574 5.81803 63.1657 5.85736 63.248 5.93192C63.4151 6.09272 63.573 6.26287 63.7208 6.4415L63.868 6.61135C63.9662 6.72082 64.0605 6.83407 64.1511 6.95109L64.3521 7.21718C64.5619 7.48412 64.7575 7.76195 64.9381 8.04949C65.4269 8.79232 65.8459 9.57889 66.1894 10.3991C66.5348 11.2196 66.8187 12.0646 67.0387 12.9272C67.2473 13.7937 67.3976 14.6733 67.4887 15.5599C67.4942 15.6154 67.4886 15.6713 67.4723 15.7246C67.4561 15.7779 67.4294 15.8274 67.3938 15.8703C67.3583 15.9132 67.3146 15.9486 67.2653 15.9746C67.216 16.0005 67.1621 16.0164 67.1066 16.0214L67.0613 16.0129Z" fill="black"/>
<path d="M62.5715 33.9638C62.4913 33.9645 62.4126 33.9419 62.345 33.8987C62.2978 33.8689 62.2569 33.8302 62.2246 33.7847C62.1924 33.7391 62.1694 33.6877 62.157 33.6333C62.1447 33.5788 62.1432 33.5225 62.1526 33.4675C62.162 33.4125 62.1822 33.3599 62.212 33.3127C63.1226 31.8672 63.9014 30.3427 64.539 28.7577C65.1835 27.1731 65.6958 25.5378 66.0705 23.8687C66.0956 23.7587 66.1635 23.6632 66.259 23.6032C66.3546 23.5432 66.4701 23.5236 66.5801 23.5488C66.6901 23.5739 66.7855 23.6417 66.8455 23.7373C66.9055 23.8329 66.9252 23.9483 66.9 24.0583C66.5137 25.7717 65.9873 27.4504 65.326 29.0776C64.6691 30.7086 63.8676 32.2775 62.931 33.7656C62.8925 33.8262 62.8395 33.8761 62.7766 33.9107C62.7138 33.9453 62.6432 33.9636 62.5715 33.9638Z" fill="black"/>
<path d="M54.6504 40.0475C54.3903 40.048 54.1307 40.0252 53.8747 39.9796C52.9301 39.8021 52.0537 39.3649 51.3438 38.717C50.6717 38.1005 50.0887 37.3935 49.6113 36.6164C49.1243 35.8445 48.7489 35.0078 48.496 34.1309C48.4777 34.0765 48.4707 34.0191 48.4752 33.962C48.4798 33.9048 48.4959 33.8492 48.5225 33.7985C48.5491 33.7477 48.5858 33.7029 48.6302 33.6667C48.6746 33.6305 48.7259 33.6036 48.7809 33.5878C48.836 33.5719 48.8937 33.5673 48.9506 33.5744C49.0075 33.5814 49.0623 33.5998 49.1118 33.6286C49.1614 33.6574 49.2046 33.6959 49.2389 33.7419C49.2731 33.7878 49.2978 33.8402 49.3112 33.8959C49.5435 34.6947 49.8866 35.457 50.3304 36.1606C50.7654 36.8698 51.296 37.5157 51.9072 38.08C52.4999 38.6217 53.2308 38.9891 54.0191 39.1416C54.8163 39.2587 55.6303 39.161 56.3772 38.8585C56.4292 38.8385 56.4848 38.8291 56.5405 38.8307C56.5962 38.8323 56.651 38.8448 56.7018 38.8677C56.7526 38.8906 56.7983 38.9234 56.8364 38.9641C56.8745 39.0048 56.9042 39.0526 56.9236 39.1048C56.9632 39.2099 56.9594 39.3265 56.9133 39.4289C56.8671 39.5313 56.7823 39.6112 56.6773 39.6512C56.0312 39.9049 55.3445 40.0392 54.6504 40.0475Z" fill="black"/>
<path d="M48.8502 33.5872C48.7514 33.5875 48.6555 33.5531 48.5795 33.49C48.5034 33.4269 48.452 33.3391 48.4341 33.2419C48.1261 31.4659 48.3041 29.6396 48.9492 27.9565C49.581 26.3013 50.481 24.7614 51.6132 23.3987C51.6483 23.3554 51.6916 23.3194 51.7406 23.2929C51.7897 23.2663 51.8435 23.2496 51.8989 23.2439C51.9544 23.2381 52.0104 23.2433 52.0639 23.2592C52.1174 23.2751 52.1672 23.3013 52.2105 23.3364C52.2538 23.3716 52.2898 23.4149 52.3164 23.4639C52.3429 23.513 52.3596 23.5667 52.3654 23.6222C52.3712 23.6777 52.3659 23.7337 52.35 23.7872C52.3341 23.8406 52.3079 23.8905 52.2728 23.9338C51.2003 25.2238 50.3472 26.6813 49.7476 28.2481C49.1559 29.7874 48.9907 31.4579 49.2692 33.0833C49.2891 33.1943 49.2647 33.3087 49.2012 33.4019C49.1376 33.4951 49.0401 33.5596 48.9295 33.5816L48.8502 33.5872Z" fill="black"/>
<path d="M56.8561 19.3221C56.7665 19.3224 56.6791 19.2942 56.6064 19.2417C56.5338 19.1893 56.4796 19.1151 56.4516 19.03C56.4237 18.9449 56.4233 18.8531 56.4507 18.7677C56.4781 18.6824 56.5318 18.6079 56.6041 18.555C59.4494 16.5143 62.5299 14.8234 65.7792 13.5187C65.8309 13.4975 65.8862 13.4867 65.942 13.4869C65.9979 13.4871 66.0531 13.4983 66.1046 13.5199C66.1562 13.5414 66.203 13.5729 66.2423 13.6126C66.2817 13.6522 66.3128 13.6992 66.334 13.7509C66.3552 13.8025 66.366 13.8579 66.3658 13.9137C66.3656 13.9696 66.3544 14.0249 66.3329 14.0764C66.3113 14.1279 66.2798 14.1747 66.2402 14.214C66.2005 14.2534 66.1536 14.2846 66.1019 14.3057C62.9165 15.5849 59.896 17.2415 57.1052 19.24C57.0329 19.293 56.9457 19.3218 56.8561 19.3221Z" fill="black"/>
<path d="M73.9434 11.741C73.8409 11.7394 73.7423 11.7007 73.6661 11.6321C73.5898 11.5635 73.5409 11.4696 73.5285 11.3678C73.5161 11.266 73.5409 11.1631 73.5985 11.0782C73.656 10.9933 73.7424 10.9321 73.8415 10.9058C77.2251 10.0772 80.6672 9.50939 84.1376 9.20728C84.1934 9.20226 84.2495 9.20827 84.303 9.22498C84.3564 9.24168 84.4061 9.26875 84.4491 9.30463C84.4921 9.34051 84.5276 9.38452 84.5535 9.43412C84.5795 9.48372 84.5954 9.53794 84.6005 9.5937C84.6055 9.64947 84.5995 9.70569 84.5828 9.75913C84.5661 9.81257 84.539 9.86219 84.5031 9.90517C84.4673 9.94815 84.4232 9.98362 84.3736 10.0096C84.324 10.0356 84.2698 10.0515 84.214 10.0566C80.7864 10.3546 77.3869 10.9158 74.0454 11.7353C74.0117 11.7412 73.9775 11.7431 73.9434 11.741Z" fill="black"/>
<path d="M102.901 10.8124H102.836L100.271 10.4161C99.7305 10.3396 99.1671 10.2802 98.6264 10.2235C98.3207 10.1924 98.015 10.1613 97.7092 10.1245C96.1465 9.96028 94.4622 9.85553 92.5654 9.80174C92.5097 9.80007 92.4548 9.78744 92.4039 9.76456C92.353 9.74167 92.3072 9.70896 92.2689 9.66835C92.2307 9.62774 92.2008 9.58 92.181 9.52784C92.1612 9.47568 92.1518 9.42011 92.1535 9.36435C92.1552 9.30859 92.1679 9.25371 92.1908 9.20283C92.2136 9.15195 92.2463 9.10606 92.2869 9.06781C92.3275 9.02957 92.3753 8.99969 92.4274 8.9799C92.4796 8.96011 92.5352 8.95079 92.5909 8.95246C94.5075 9.00625 96.2117 9.11383 97.8027 9.28086C98.1084 9.31766 98.4113 9.34879 98.7114 9.37993C99.2776 9.43655 99.8437 9.49599 100.41 9.57525L102.98 9.97159C103.093 9.98022 103.198 10.0333 103.271 10.119C103.345 10.2048 103.381 10.3162 103.373 10.4288C103.364 10.5414 103.311 10.646 103.225 10.7195C103.139 10.793 103.028 10.8295 102.915 10.8209L102.901 10.8124Z" fill="black"/>
<path d="M113.659 13.9491C113.606 13.9483 113.555 13.9377 113.506 13.9179C110.303 12.692 106.998 11.7531 103.629 11.1125C103.574 11.1021 103.522 11.0809 103.475 11.0503C103.429 11.0197 103.388 10.9802 103.357 10.9341C103.326 10.888 103.303 10.8361 103.292 10.7815C103.281 10.7268 103.28 10.6705 103.291 10.6156C103.301 10.5608 103.322 10.5086 103.353 10.4619C103.383 10.4152 103.423 10.375 103.469 10.3436C103.515 10.3122 103.567 10.2902 103.622 10.2788C103.676 10.2674 103.733 10.2669 103.787 10.2774C107.207 10.9278 110.561 11.8809 113.812 13.1253C113.903 13.1622 113.979 13.2296 114.027 13.316C114.074 13.4025 114.09 13.5027 114.072 13.5997C114.054 13.6966 114.003 13.7844 113.928 13.8481C113.853 13.9117 113.758 13.9474 113.659 13.9491Z" fill="black"/>
<path d="M128.79 22.0994C128.702 22.0992 128.616 22.0715 128.544 22.0201C125.751 20.0049 122.819 18.1914 119.768 16.5932C119.716 16.5692 119.669 16.5348 119.631 16.4922C119.592 16.4496 119.563 16.3996 119.544 16.3453C119.525 16.2909 119.518 16.2334 119.522 16.1761C119.526 16.1188 119.542 16.0629 119.569 16.0119C119.595 15.9609 119.632 15.9158 119.676 15.8794C119.72 15.8429 119.772 15.8158 119.827 15.7998C119.882 15.7837 119.94 15.779 119.997 15.7859C120.054 15.7929 120.109 15.8113 120.159 15.8402C123.241 17.4584 126.205 19.2927 129.028 21.3293C129.101 21.3816 129.156 21.4558 129.184 21.5411C129.212 21.6264 129.213 21.7185 129.185 21.8041C129.158 21.8897 129.104 21.9644 129.032 22.0175C128.959 22.0705 128.872 22.0992 128.782 22.0994H128.79Z" fill="black"/>
<path d="M143.46 33.8251C143.363 33.8254 143.268 33.7924 143.191 33.7317C141.841 32.6333 140.482 31.5009 139.166 30.4053C137.849 29.3098 136.527 28.2085 135.203 27.1243C135.115 27.053 135.059 26.9498 135.048 26.8375C135.037 26.7252 135.07 26.613 135.142 26.5255C135.213 26.438 135.316 26.3825 135.428 26.3711C135.541 26.3597 135.653 26.3933 135.74 26.4647C137.074 27.5517 138.416 28.67 139.704 29.7514C140.992 30.8328 142.376 31.9765 143.721 33.072C143.764 33.1069 143.801 33.1502 143.827 33.1992C143.854 33.2482 143.871 33.3021 143.877 33.3577C143.883 33.4133 143.877 33.4694 143.861 33.5229C143.845 33.5765 143.819 33.6262 143.783 33.6694C143.744 33.7178 143.695 33.7568 143.639 33.7837C143.584 33.8107 143.522 33.8248 143.46 33.8251Z" fill="black"/>
<path d="M159.186 43.9258C159.13 43.9265 159.074 43.9159 159.022 43.8947C155.816 42.527 152.762 40.8287 149.909 38.8273C149.863 38.7953 149.825 38.7547 149.794 38.7076C149.764 38.6606 149.744 38.6081 149.734 38.5531C149.715 38.4422 149.74 38.328 149.804 38.2356C149.869 38.1433 149.968 38.0803 150.079 38.0607C150.19 38.0411 150.304 38.0663 150.396 38.1309C153.199 40.0993 156.2 41.7682 159.35 43.1105C159.44 43.1488 159.514 43.2169 159.56 43.3033C159.605 43.3898 159.62 43.4892 159.6 43.585C159.581 43.6808 159.529 43.767 159.454 43.829C159.378 43.8911 159.284 43.9253 159.186 43.9258Z" fill="black"/>
<path d="M168.65 49.6755C168.592 49.6756 168.535 49.6639 168.481 49.641C168.428 49.6181 168.381 49.5846 168.341 49.5424C167.192 48.3104 165.876 47.2451 164.432 46.3774C163.705 45.946 162.948 45.5676 162.167 45.245L159.76 44.3477C159.708 44.3286 159.659 44.2993 159.617 44.2614C159.576 44.2234 159.542 44.1776 159.519 44.1266C159.495 44.0756 159.482 44.0205 159.48 43.9643C159.478 43.9081 159.487 43.8521 159.506 43.7994C159.526 43.7468 159.556 43.6986 159.594 43.6576C159.633 43.6166 159.679 43.5836 159.73 43.5606C159.782 43.5376 159.837 43.525 159.893 43.5236C159.949 43.5221 160.005 43.5318 160.058 43.5522L162.487 44.4581C163.307 44.7991 164.102 45.1993 164.865 45.6556C166.374 46.5635 167.75 47.6773 168.952 48.9649C169.009 49.0252 169.047 49.1009 169.062 49.1825C169.076 49.2642 169.067 49.3483 169.034 49.4245C169.001 49.5007 168.947 49.5656 168.877 49.6112C168.808 49.6568 168.727 49.6811 168.644 49.6811L168.65 49.6755Z" fill="black"/>
<path d="M175.891 65.0587C175.792 65.0578 175.696 65.0226 175.621 64.9591C175.545 64.8956 175.493 64.8077 175.475 64.7105C174.885 61.3329 173.809 58.0585 172.282 54.9891C172.23 54.8885 172.221 54.7715 172.256 54.664C172.29 54.5565 172.366 54.4672 172.467 54.4158C172.568 54.3644 172.684 54.3551 172.792 54.3898C172.9 54.4246 172.989 54.5006 173.04 54.6012C174.603 57.7447 175.704 61.0971 176.31 64.5548C176.32 64.6096 176.32 64.666 176.308 64.7205C176.296 64.7751 176.274 64.8269 176.243 64.8729C176.211 64.9189 176.171 64.9583 176.124 64.9887C176.077 65.0191 176.025 65.04 175.97 65.0502C175.944 65.056 175.918 65.0588 175.891 65.0587Z" fill="black"/>
<path d="M175.656 83.7627H175.571C175.516 83.7515 175.464 83.7297 175.418 83.6985C175.372 83.6673 175.332 83.6273 175.302 83.5808C175.271 83.5342 175.25 83.4821 175.239 83.4273C175.228 83.3726 175.229 83.3162 175.24 83.2616C175.935 79.8971 176.272 76.4688 176.248 73.0334C176.247 72.9777 176.258 72.9224 176.279 72.8707C176.3 72.8191 176.331 72.772 176.37 72.7323C176.409 72.6926 176.456 72.6611 176.507 72.6394C176.559 72.6177 176.614 72.6063 176.669 72.606C176.782 72.606 176.889 72.6503 176.969 72.7293C177.048 72.8084 177.093 72.9156 177.094 73.0278C177.119 76.523 176.775 80.0111 176.069 83.4343C176.047 83.5274 175.994 83.6103 175.919 83.6699C175.844 83.7294 175.752 83.7621 175.656 83.7627Z" fill="black"/>
<path d="M167.163 100.182C167.074 100.185 166.987 100.16 166.913 100.111C166.839 100.062 166.783 99.9903 166.752 99.9072C166.72 99.8241 166.716 99.7332 166.739 99.6475C166.762 99.5617 166.811 99.4853 166.88 99.4291C167.525 98.8788 168.13 98.2828 168.689 97.6456C169.246 97.0067 169.766 96.3365 170.246 95.6385C171.209 94.2269 172.04 92.7296 172.729 91.1656C172.779 91.07 172.864 90.9972 172.966 90.9621C173.069 90.9269 173.18 90.932 173.279 90.9764C173.377 91.0208 173.455 91.1011 173.497 91.201C173.538 91.3008 173.54 91.4127 173.502 91.5138C172.795 93.124 171.942 94.6658 170.954 96.1198C170.451 96.8466 169.909 97.545 169.329 98.2118C168.74 98.8805 168.104 99.5068 167.426 100.086C167.352 100.147 167.259 100.181 167.163 100.182Z" fill="black"/>
<path d="M158.161 106.637C158.091 106.636 158.022 106.619 157.96 106.586C157.864 106.532 157.792 106.443 157.76 106.337C157.728 106.232 157.738 106.118 157.788 106.019C158.228 105.212 158.796 104.48 159.469 103.854C160.139 103.239 160.886 102.715 161.691 102.294C162.099 102.07 162.527 101.886 162.94 101.708C163.353 101.53 163.69 101.385 164.038 101.198C164.784 100.817 165.492 100.367 166.153 99.8537C166.197 99.8164 166.248 99.7885 166.303 99.7716C166.358 99.7546 166.416 99.7491 166.473 99.7552C166.53 99.7614 166.586 99.7792 166.636 99.8074C166.686 99.8356 166.73 99.8738 166.765 99.9195C166.8 99.9652 166.825 100.018 166.839 100.073C166.854 100.129 166.856 100.187 166.847 100.244C166.838 100.301 166.818 100.356 166.787 100.404C166.756 100.453 166.716 100.495 166.668 100.527C165.968 101.069 165.219 101.543 164.429 101.943C164.058 102.141 163.662 102.314 163.277 102.478C162.892 102.642 162.473 102.826 162.093 103.044C161.353 103.432 160.665 103.914 160.05 104.479C159.442 105.042 158.93 105.7 158.535 106.427C158.497 106.492 158.442 106.546 158.377 106.583C158.311 106.62 158.237 106.638 158.161 106.637Z" fill="black"/>
<path d="M158.671 123.571C158.573 123.571 158.478 123.536 158.402 123.474C158.326 123.411 158.274 123.325 158.255 123.229C158.173 122.796 158.088 122.365 158.003 121.932C157.759 120.686 157.507 119.398 157.287 118.127C156.972 116.412 156.763 114.679 156.661 112.938C156.656 112.826 156.695 112.716 156.771 112.632C156.847 112.549 156.953 112.499 157.066 112.494C157.178 112.488 157.288 112.528 157.372 112.604C157.455 112.68 157.505 112.786 157.51 112.899C157.612 114.608 157.818 116.31 158.127 117.994C158.345 119.257 158.597 120.542 158.841 121.782C158.923 122.212 159.008 122.631 159.093 123.079C159.113 123.189 159.089 123.303 159.026 123.396C158.963 123.489 158.866 123.554 158.756 123.577L158.671 123.571Z" fill="black"/>
<path d="M158.43 142.08C158.359 142.081 158.289 142.063 158.227 142.03C158.164 141.996 158.111 141.947 158.072 141.888C158.034 141.828 158.01 141.76 158.005 141.689C158 141.618 158.013 141.547 158.042 141.483C158.723 139.928 159.17 138.282 159.367 136.596C159.567 134.905 159.603 133.199 159.472 131.501C159.465 131.388 159.502 131.277 159.576 131.192C159.651 131.107 159.756 131.055 159.868 131.048C159.981 131.04 160.092 131.078 160.177 131.152C160.262 131.226 160.314 131.331 160.321 131.444C160.454 133.201 160.417 134.966 160.211 136.715C160.003 138.483 159.533 140.21 158.818 141.839C158.783 141.912 158.728 141.973 158.659 142.016C158.591 142.059 158.511 142.081 158.43 142.08Z" fill="black"/>
<path d="M143.709 152.747C143.597 152.757 143.485 152.721 143.398 152.648C143.312 152.576 143.258 152.472 143.248 152.359C143.238 152.246 143.274 152.134 143.346 152.048C143.419 151.961 143.523 151.907 143.636 151.898C145.308 151.588 146.934 151.068 148.477 150.352C150.03 149.649 151.507 148.787 152.882 147.778C152.972 147.711 153.086 147.683 153.197 147.699C153.309 147.716 153.409 147.776 153.476 147.866C153.543 147.957 153.572 148.07 153.555 148.182C153.539 148.293 153.479 148.394 153.388 148.461C151.965 149.504 150.438 150.396 148.831 151.125C147.223 151.87 145.528 152.411 143.786 152.735L143.709 152.747Z" fill="black"/>
<path d="M140.289 152.925C139.405 152.923 138.522 152.863 137.645 152.744C136.776 152.628 135.914 152.457 135.066 152.232C134.219 152.015 133.385 151.751 132.567 151.442C132.51 151.426 132.458 151.399 132.412 151.363C132.367 151.326 132.33 151.281 132.303 151.229C132.276 151.177 132.26 151.12 132.255 151.062C132.251 151.004 132.259 150.945 132.279 150.89C132.298 150.835 132.329 150.785 132.369 150.742C132.409 150.7 132.457 150.666 132.51 150.643C132.564 150.619 132.622 150.608 132.68 150.608C132.739 150.608 132.796 150.62 132.85 150.643C133.642 150.942 134.45 151.198 135.27 151.411C136.088 151.627 136.918 151.791 137.756 151.903C138.594 152.015 139.438 152.073 140.284 152.076C141.121 152.073 141.957 152.014 142.786 151.898C142.899 151.881 143.014 151.909 143.105 151.977C143.197 152.045 143.258 152.146 143.275 152.259C143.291 152.371 143.263 152.486 143.195 152.577C143.128 152.669 143.026 152.73 142.914 152.747C142.044 152.866 141.167 152.926 140.289 152.925Z" fill="black"/>
<path d="M126.497 148.565C126.422 148.565 126.347 148.545 126.282 148.506C123.734 146.991 121.291 145.265 118.922 143.594L117.645 142.7C117.553 142.635 117.49 142.536 117.47 142.425C117.451 142.313 117.477 142.199 117.542 142.107C117.607 142.014 117.706 141.952 117.817 141.932C117.928 141.913 118.042 141.938 118.135 142.003L119.411 142.901C121.767 144.563 124.201 146.278 126.715 147.776C126.795 147.823 126.858 147.896 126.892 147.982C126.927 148.069 126.933 148.164 126.908 148.254C126.883 148.344 126.829 148.423 126.755 148.479C126.681 148.535 126.59 148.566 126.497 148.565Z" fill="black"/>
<path d="M110.848 138.199C110.775 138.199 110.702 138.18 110.638 138.145C109.163 137.295 107.621 136.569 106.027 135.974C105.232 135.683 104.421 135.441 103.598 135.249C102.779 135.061 101.949 134.932 101.112 134.864C101 134.854 100.895 134.801 100.822 134.714C100.749 134.628 100.714 134.516 100.723 134.404C100.732 134.291 100.786 134.187 100.872 134.114C100.959 134.041 101.07 134.005 101.183 134.015C102.062 134.087 102.934 134.222 103.793 134.419C104.649 134.621 105.492 134.872 106.318 135.172C107.956 135.785 109.541 136.532 111.057 137.403C111.138 137.45 111.201 137.522 111.237 137.608C111.273 137.694 111.28 137.789 111.256 137.88C111.232 137.97 111.179 138.05 111.105 138.107C111.032 138.164 110.941 138.195 110.848 138.196V138.199Z" fill="black"/>
<path d="M83.297 140.067C83.1972 140.067 83.1006 140.032 83.0242 139.967C82.9478 139.903 82.8964 139.814 82.8792 139.716C82.8619 139.617 82.8799 139.516 82.9299 139.43C82.9799 139.343 83.0588 139.277 83.1526 139.243C85.9835 138.23 89.0636 137.069 92.8485 135.591C92.9011 135.567 92.958 135.554 93.0157 135.553C93.0735 135.552 93.1308 135.562 93.1844 135.584C93.2379 135.606 93.2864 135.638 93.3269 135.679C93.3675 135.72 93.3993 135.769 93.4203 135.823C93.4413 135.877 93.4512 135.934 93.4492 135.992C93.4472 136.05 93.4335 136.107 93.4088 136.159C93.3842 136.211 93.3492 136.258 93.3059 136.296C93.2626 136.334 93.212 136.363 93.1571 136.381C89.3637 137.865 86.2751 139.025 83.4385 140.042C83.3932 140.059 83.3453 140.067 83.297 140.067Z" fill="black"/>
<path d="M72.6103 143.456C72.5092 143.455 72.4117 143.418 72.3354 143.352C72.2591 143.285 72.2089 143.194 72.1939 143.094C72.1789 142.994 72.2001 142.892 72.2536 142.806C72.307 142.721 72.3894 142.657 72.4857 142.626C75.6535 141.669 78.8695 140.613 82.3147 139.39C82.4209 139.353 82.5377 139.359 82.6394 139.408C82.7411 139.456 82.8193 139.543 82.8568 139.65C82.8944 139.756 82.8881 139.873 82.8396 139.974C82.791 140.076 82.704 140.154 82.5978 140.192C79.1412 141.417 75.9139 142.479 72.732 143.439C72.6924 143.45 72.6514 143.456 72.6103 143.456Z" fill="black"/>
<path d="M55.888 147.606C55.7754 147.615 55.6637 147.579 55.5774 147.506C55.4911 147.433 55.4374 147.329 55.428 147.217C55.4186 147.104 55.4544 146.992 55.5274 146.906C55.6004 146.82 55.7046 146.766 55.8172 146.756C59.0219 146.221 62.3284 145.514 65.9265 144.594C66.0357 144.566 66.1517 144.582 66.2488 144.639C66.346 144.697 66.4164 144.79 66.4446 144.899C66.4727 145.009 66.4564 145.125 66.399 145.222C66.3417 145.319 66.248 145.389 66.1388 145.417C62.5152 146.343 59.186 147.057 55.9475 147.594L55.888 147.606Z" fill="black"/>
<path d="M42.8177 148.795C40.9164 148.8 39.0161 148.706 37.1247 148.512C37.0121 148.5 36.9087 148.444 36.8373 148.356C36.7659 148.268 36.7323 148.156 36.744 148.043C36.7556 147.931 36.8115 147.827 36.8994 147.756C36.9873 147.684 37.0999 147.651 37.2125 147.662C40.6346 148.002 44.0799 148.04 47.5086 147.776C47.6212 147.768 47.7323 147.805 47.8176 147.879C47.9028 147.953 47.9551 148.058 47.963 148.171C47.9709 148.283 47.9336 148.394 47.8596 148.48C47.7855 148.565 47.6807 148.617 47.5681 148.625C45.9233 148.738 44.3436 148.795 42.8177 148.795Z" fill="black"/>
<path d="M28.9433 146.762C28.8971 146.762 28.8513 146.754 28.8074 146.74C25.449 145.642 22.3405 143.892 19.6607 141.59C19.6187 141.553 19.5844 141.508 19.5598 141.457C19.5352 141.407 19.5208 141.352 19.5174 141.296C19.514 141.24 19.5217 141.184 19.5399 141.131C19.5582 141.078 19.5867 141.029 19.6239 140.987C19.6611 140.945 19.7061 140.911 19.7565 140.886C19.807 140.862 19.8618 140.847 19.9178 140.844C19.9738 140.84 20.0298 140.848 20.0829 140.866C20.1359 140.885 20.1848 140.913 20.2269 140.95C22.8219 143.18 25.8324 144.874 29.0848 145.936C29.1378 145.953 29.1868 145.981 29.2289 146.018C29.2711 146.054 29.3055 146.099 29.3303 146.149C29.355 146.199 29.3696 146.253 29.3731 146.309C29.3767 146.365 29.3691 146.421 29.3509 146.473C29.3222 146.558 29.2673 146.632 29.194 146.684C29.1208 146.736 29.033 146.763 28.9433 146.762Z" fill="black"/>
<path d="M19.411 141.027C19.3058 141.026 19.2047 140.985 19.1279 140.913C17.8472 139.718 16.697 138.389 15.6968 136.95C15.2495 136.313 14.8079 135.608 14.304 134.728L13.6925 133.576L13.5283 133.227C13.3953 132.944 13.2452 132.661 13.1404 132.35C13.1178 132.297 13.1061 132.241 13.106 132.184C13.1058 132.126 13.1172 132.07 13.1395 132.017C13.1618 131.964 13.1945 131.917 13.2356 131.877C13.2768 131.837 13.3256 131.806 13.379 131.786C13.4325 131.765 13.4895 131.756 13.5467 131.758C13.6039 131.76 13.6601 131.774 13.7118 131.798C13.7636 131.823 13.8099 131.857 13.8479 131.9C13.8859 131.943 13.9149 131.993 13.9331 132.047C14.0379 132.33 14.1624 132.585 14.2955 132.862C14.3493 132.976 14.4002 133.086 14.4512 133.199L15.0485 134.332C15.5326 135.181 15.9601 135.863 16.3932 136.48C17.3587 137.874 18.47 139.161 19.7082 140.319C19.7897 140.396 19.8375 140.503 19.8412 140.615C19.8449 140.727 19.8043 140.837 19.728 140.919C19.685 140.957 19.6348 140.986 19.5803 141.005C19.5259 141.023 19.4683 141.031 19.411 141.027Z" fill="black"/>
<path d="M12.1949 125.944H12.1779C12.0655 125.938 11.9597 125.889 11.8833 125.806C11.807 125.724 11.7664 125.614 11.7703 125.502C11.9404 121.911 13.2716 118.473 15.5637 115.704C15.5984 115.659 15.6417 115.622 15.6912 115.594C15.7407 115.566 15.7953 115.548 15.8517 115.542C15.9081 115.535 15.9653 115.54 16.0198 115.556C16.0743 115.572 16.125 115.599 16.1689 115.635C16.2129 115.671 16.2492 115.715 16.2756 115.766C16.3021 115.816 16.3182 115.871 16.323 115.928C16.3279 115.984 16.3212 116.041 16.3036 116.095C16.286 116.149 16.2577 116.199 16.2205 116.242C14.0456 118.868 12.782 122.13 12.6195 125.536C12.6152 125.646 12.5684 125.749 12.4893 125.825C12.4101 125.901 12.3046 125.944 12.1949 125.944Z" fill="black"/>
<path d="M32.7304 112.556C32.6534 112.556 32.5779 112.534 32.5125 112.494C31.0768 111.618 29.4615 111.078 27.7876 110.914C26.1099 110.763 24.4193 110.971 22.8278 111.523C22.7752 111.541 22.7195 111.549 22.6638 111.546C22.6081 111.543 22.5535 111.53 22.5031 111.505C22.4528 111.481 22.4077 111.448 22.3704 111.406C22.3331 111.365 22.3044 111.316 22.2858 111.264C22.2672 111.211 22.2591 111.155 22.2621 111.1C22.265 111.044 22.2789 110.989 22.303 110.939C22.327 110.889 22.3607 110.844 22.4022 110.806C22.4437 110.769 22.4921 110.74 22.5447 110.722C24.2503 110.128 26.0627 109.905 27.8612 110.068C29.6663 110.242 31.4084 110.822 32.9569 111.766C33.0047 111.795 33.0464 111.833 33.0795 111.878C33.1127 111.923 33.1365 111.974 33.15 112.028C33.1634 112.082 33.166 112.138 33.1576 112.193C33.1493 112.249 33.1301 112.302 33.1013 112.349C33.0626 112.413 33.0082 112.465 32.9432 112.502C32.8782 112.538 32.8048 112.557 32.7304 112.556Z" fill="black"/>
<path d="M42.5086 128.18C42.4262 128.18 42.3456 128.155 42.2768 128.11C42.2079 128.065 42.1537 128.001 42.1208 127.925C41.7669 127.121 41.4357 126.309 41.1356 125.51C40.9601 125.035 40.7931 124.565 40.626 124.095C40.5043 123.752 40.3826 123.41 40.258 123.067C39.6788 121.462 38.9539 119.912 38.0924 118.439C38.0372 118.342 38.0223 118.227 38.0507 118.12C38.0792 118.012 38.1489 117.92 38.2447 117.863C38.3405 117.806 38.4547 117.79 38.5628 117.816C38.6709 117.843 38.7642 117.911 38.8227 118.006C39.7103 119.525 40.4579 121.121 41.0563 122.776L41.4244 123.812C41.5914 124.282 41.7584 124.752 41.931 125.227C42.2141 126.009 42.5511 126.807 42.8993 127.6C42.9231 127.651 42.9364 127.707 42.9383 127.763C42.9402 127.82 42.9307 127.876 42.9104 127.929C42.8901 127.982 42.8593 128.03 42.8199 128.071C42.7806 128.111 42.7334 128.144 42.6813 128.166C42.6254 128.183 42.5665 128.187 42.5086 128.18Z" fill="black"/>
<path d="M48.0856 137.879C48.02 137.879 47.9552 137.864 47.8963 137.835C47.8374 137.806 47.7859 137.764 47.7459 137.712C45.6274 134.93 43.8156 131.928 42.3417 128.757C42.3182 128.707 42.305 128.652 42.3028 128.596C42.3006 128.54 42.3094 128.484 42.3287 128.432C42.3481 128.38 42.3775 128.331 42.4154 128.29C42.4533 128.249 42.499 128.216 42.5497 128.193C42.6004 128.169 42.6553 128.156 42.7112 128.154C42.767 128.152 42.8228 128.16 42.8752 128.18C42.9277 128.199 42.9758 128.229 43.0168 128.266C43.0579 128.304 43.0911 128.35 43.1145 128.401C44.5603 131.516 46.34 134.465 48.4225 137.196C48.4705 137.259 48.5 137.334 48.5076 137.413C48.5152 137.492 48.5007 137.571 48.4657 137.642C48.4307 137.713 48.3765 137.773 48.3094 137.815C48.2422 137.856 48.1647 137.879 48.0856 137.879Z" fill="black"/>
<path d="M60.7426 149.46C60.6599 149.46 60.579 149.436 60.5105 149.389C57.5949 147.483 54.8819 145.283 52.414 142.824C52.3385 142.744 52.2972 142.638 52.2986 142.528C52.3 142.418 52.3441 142.313 52.4215 142.235C52.499 142.156 52.6038 142.111 52.7138 142.109C52.8238 142.106 52.9305 142.147 53.0113 142.221C55.4388 144.64 58.1071 146.803 60.9747 148.679C61.0518 148.729 61.1107 148.802 61.1426 148.888C61.1744 148.974 61.1775 149.068 61.1514 149.156C61.1252 149.244 61.0713 149.322 60.9976 149.376C60.9239 149.431 60.8344 149.461 60.7426 149.46Z" fill="black"/>
<path d="M78.099 156.116H78.0481C74.5822 155.666 71.1947 154.741 67.9813 153.367C67.8846 153.319 67.81 153.236 67.7724 153.134C67.7348 153.033 67.7372 152.922 67.779 152.822C67.8208 152.723 67.899 152.643 67.9976 152.599C68.0961 152.555 68.2077 152.55 68.3097 152.585C71.4513 153.927 74.7623 154.831 78.15 155.272C78.2626 155.279 78.3679 155.33 78.4428 155.414C78.5176 155.499 78.5559 155.609 78.5491 155.722C78.5424 155.835 78.4912 155.94 78.4068 156.015C78.3224 156.09 78.2116 156.128 78.099 156.121V156.116Z" fill="black"/>
<path d="M86.4446 155.867C86.332 155.878 86.2195 155.844 86.1319 155.772C86.0443 155.7 85.9887 155.597 85.9775 155.484C85.9662 155.372 86.0001 155.259 86.0718 155.172C86.1435 155.084 86.247 155.028 86.3597 155.017C88.0139 154.686 89.6169 154.136 91.1269 153.384C91.877 153.01 92.5964 152.577 93.2784 152.09C93.965 151.607 94.6116 151.069 95.212 150.482C95.2928 150.407 95.3995 150.367 95.5095 150.369C95.6196 150.372 95.7243 150.417 95.8017 150.495C95.8792 150.573 95.9233 150.679 95.9247 150.789C95.9261 150.899 95.8847 151.005 95.8093 151.085C94.5401 152.315 93.0911 153.345 91.5119 154.14C89.9349 154.925 88.2603 155.496 86.5323 155.838C86.5041 155.851 86.4747 155.86 86.4446 155.867Z" fill="black"/>
<path d="M10.4803 54.8494L8.82349 57.1449L20.2848 65.4172L21.9416 63.1217L10.4803 54.8494Z" fill="#ED5564"/>
<path d="M17.8036 53.2094L9.34717 65.0474L11.6507 66.6929L20.1072 54.8549L17.8036 53.2094Z" fill="#ED5564"/>
<path d="M105.18 120.723C105.237 126.272 96.7836 143.886 96.7836 143.886C96.7836 143.886 89.1005 126.439 89.0439 120.89C88.9873 115.342 92.5514 110.807 97.0073 110.761C101.463 110.716 105.124 115.186 105.18 120.723Z" fill="#ED5564"/>
<path d="M99.2447 124.211C101.528 123.188 102.55 120.509 101.528 118.226C100.505 115.942 97.8259 114.92 95.5427 115.942C93.2596 116.965 92.2374 119.644 93.2597 121.927C94.2819 124.211 96.9615 125.233 99.2447 124.211Z" fill="white"/>
<path d="M150.2 16.5847C150.108 16.5843 150.019 16.5546 149.945 16.4998L143.496 11.6532C143.451 11.6194 143.413 11.577 143.385 11.5284C143.356 11.4798 143.337 11.426 143.33 11.3701C143.315 11.2587 143.345 11.146 143.412 11.0559L148.258 4.60704C148.291 4.56212 148.333 4.52426 148.381 4.49563C148.429 4.467 148.482 4.44817 148.538 4.44027C148.593 4.43237 148.649 4.43555 148.703 4.4496C148.757 4.46365 148.808 4.48828 148.853 4.5221L155.302 9.36865C155.347 9.40248 155.385 9.44492 155.413 9.49351C155.442 9.5421 155.461 9.59587 155.469 9.65175C155.483 9.76317 155.453 9.87584 155.386 9.96597L150.54 16.4148C150.501 16.4683 150.45 16.5116 150.391 16.5411C150.332 16.5707 150.266 16.5856 150.2 16.5847ZM144.346 11.2286L150.115 15.5656L154.452 9.79613L148.683 5.45916L144.346 11.2286Z" fill="#ED5564"/>
<path d="M11.8864 149.157C11.7524 149.157 11.623 149.108 11.5212 149.021L5.85935 144.209C5.79055 144.165 5.73193 144.108 5.68747 144.039C5.643 143.971 5.61375 143.894 5.60169 143.814C5.58964 143.733 5.59511 143.651 5.61766 143.573C5.64021 143.495 5.67934 143.423 5.73239 143.361C5.78544 143.299 5.85116 143.25 5.92508 143.216C5.999 143.182 6.0794 143.164 6.16076 143.164C6.24213 143.164 6.32255 143.181 6.39658 143.215C6.47061 143.249 6.53651 143.298 6.58976 143.359L12.2516 148.172C12.3394 148.247 12.4021 148.347 12.4314 148.459C12.4606 148.571 12.455 148.689 12.4153 148.797C12.3755 148.906 12.3036 148.999 12.209 149.066C12.1145 149.132 12.0019 149.168 11.8864 149.169V149.157Z" fill="#4BD657"/>
<path d="M37.9312 36.6277C37.888 36.6281 37.8449 36.6214 37.8038 36.6079L32.4251 34.9094C32.3212 34.8728 32.2356 34.7972 32.1864 34.6987C32.1372 34.6002 32.1281 34.4865 32.1612 34.3814C32.1942 34.2764 32.2668 34.1883 32.3636 34.1357C32.4603 34.0832 32.5737 34.0702 32.6798 34.0997L38.0586 35.7983C38.1552 35.8289 38.2376 35.893 38.2911 35.979C38.3445 36.0651 38.3655 36.1674 38.3501 36.2676C38.3347 36.3677 38.2841 36.4591 38.2073 36.5251C38.1304 36.5912 38.0325 36.6276 37.9312 36.6277Z" fill="#ED5564"/>
<path d="M129.653 44.979H123.991C123.893 44.9774 123.796 44.9501 123.711 44.8998C123.626 44.8494 123.556 44.7778 123.508 44.692C123.459 44.6062 123.434 44.5092 123.434 44.4105C123.434 44.3119 123.461 44.2151 123.51 44.1297L127.19 38.1847C127.247 38.0931 127.328 38.0194 127.425 37.9725C127.522 37.9255 127.631 37.9072 127.738 37.9197C127.845 37.9322 127.946 37.975 128.029 38.043C128.113 38.111 128.175 38.2014 128.209 38.3036L130.191 44.2486C130.219 44.3337 130.227 44.4243 130.213 44.513C130.2 44.6016 130.165 44.6858 130.113 44.7585C130.06 44.8312 129.991 44.8904 129.911 44.9312C129.831 44.972 129.743 44.9932 129.653 44.9931V44.979ZM125.008 43.8466H128.869L127.516 39.7927L125.008 43.8466Z" fill="#07ACEE"/>
</svg>
