<svg width="182" height="165" viewBox="0 0 182 165" fill="none" xmlns="http://www.w3.org/2000/svg">
<path d="M64.9382 104.828H116.863C122.365 99.6304 126.18 92.9009 127.814 85.5107C129.449 78.1205 128.827 70.4098 126.031 63.3767C123.234 56.3436 118.39 50.3118 112.127 46.0622C105.864 41.8126 98.4694 39.5408 90.9006 39.5408C83.3318 39.5408 75.9372 41.8126 69.674 46.0622C63.4108 50.3118 58.5673 56.3436 55.7705 63.3767C52.9737 70.4098 52.3523 78.1205 53.9868 85.5107C55.6213 92.9009 59.4363 99.6304 64.9382 104.828Z" fill="#07ACEE"/>
<path d="M113.139 85.8785L104.586 86.2668L104.832 91.6848L113.385 91.2964L113.139 85.8785Z" fill="#FCE054"/>
<path d="M108.992 88.9213C108.967 88.9222 108.942 88.9152 108.921 88.9014L104.521 86.3886C104.488 86.369 104.465 86.3378 104.455 86.3013C104.444 86.2648 104.449 86.2258 104.467 86.1924C104.476 86.1762 104.488 86.162 104.503 86.1505C104.518 86.1391 104.534 86.1308 104.552 86.126C104.57 86.1212 104.589 86.1201 104.608 86.1227C104.626 86.1254 104.644 86.1317 104.66 86.1413L108.983 88.6115L113.062 85.7689C113.094 85.7479 113.132 85.74 113.169 85.7469C113.207 85.7539 113.24 85.775 113.261 85.8059C113.283 85.8365 113.291 85.8742 113.284 85.9109C113.278 85.9476 113.258 85.9803 113.227 86.002L109.072 88.9071C109.047 88.9199 109.019 88.9249 108.992 88.9213Z" fill="black"/>
<path d="M104.836 91.8235C104.8 91.8228 104.766 91.8086 104.74 91.7837C104.726 91.7708 104.716 91.7553 104.709 91.7382C104.701 91.7211 104.698 91.7028 104.698 91.6843C104.698 91.6657 104.701 91.6474 104.709 91.6303C104.716 91.6132 104.726 91.5977 104.74 91.5848L107.96 88.1623C107.972 88.1458 107.987 88.1319 108.005 88.1217C108.022 88.1115 108.042 88.1052 108.062 88.1032C108.082 88.1012 108.103 88.1036 108.122 88.1102C108.141 88.1168 108.159 88.1274 108.174 88.1414C108.188 88.1553 108.2 88.1723 108.208 88.1911C108.215 88.2099 108.219 88.2302 108.218 88.2505C108.217 88.2708 108.212 88.2907 108.203 88.3088C108.194 88.327 108.181 88.343 108.165 88.3557L104.941 91.7894C104.927 91.802 104.91 91.8115 104.892 91.8174C104.874 91.8232 104.855 91.8253 104.836 91.8235Z" fill="black"/>
<path d="M113.389 91.4341C113.355 91.434 113.322 91.4219 113.296 91.4L109.814 88.2732C109.8 88.26 109.79 88.2443 109.782 88.2269C109.775 88.2096 109.771 88.1911 109.771 88.1723C109.771 88.1535 109.775 88.1349 109.782 88.1176C109.79 88.1003 109.8 88.0846 109.814 88.0714C109.84 88.0454 109.876 88.0308 109.913 88.0308C109.95 88.0308 109.986 88.0454 110.013 88.0714L113.497 91.1982C113.524 91.2252 113.538 91.2614 113.538 91.2991C113.538 91.3368 113.524 91.373 113.497 91.4C113.483 91.4126 113.465 91.4222 113.447 91.428C113.428 91.4339 113.409 91.436 113.389 91.4341Z" fill="black"/>
<path d="M69.3107 74.675L57.1074 78.4036L59.4688 86.1322L71.6721 82.4036L69.3107 74.675Z" fill="#FCE054"/>
<path d="M64.4125 80.5329H64.3755L57.0929 78.5431C57.0747 78.5389 57.0575 78.5309 57.0424 78.5197C57.0273 78.5085 57.0147 78.4943 57.0054 78.4781C56.9961 78.4618 56.9902 78.4438 56.9881 78.4251C56.9861 78.4065 56.9879 78.3876 56.9934 78.3697C57.0034 78.3336 57.0272 78.3029 57.0597 78.2843C57.0922 78.2657 57.1307 78.2606 57.1668 78.2702L64.3642 80.2458L69.2249 74.5863C69.2497 74.5576 69.2846 74.5398 69.3223 74.5366C69.3601 74.5335 69.3975 74.5452 69.4267 74.5692C69.4549 74.5944 69.4722 74.6295 69.4749 74.6672C69.4775 74.7049 69.4654 74.7422 69.4409 74.771L64.5205 80.4874C64.5069 80.5024 64.4902 80.5142 64.4715 80.5221C64.4529 80.5299 64.4327 80.5336 64.4125 80.5329Z" fill="black"/>
<path d="M59.5064 86.2606C59.4826 86.2604 59.4592 86.2545 59.4381 86.2435C59.4054 86.2249 59.3812 86.1944 59.3706 86.1584C59.36 86.1223 59.3638 86.0835 59.3813 86.0502L62.7668 79.899C62.7756 79.8825 62.7878 79.8679 62.8024 79.8562C62.817 79.8445 62.8339 79.8359 62.8519 79.8308C62.87 79.8258 62.8888 79.8244 62.9074 79.8269C62.926 79.8293 62.9439 79.8354 62.96 79.8449C62.9764 79.8535 62.9909 79.8654 63.0026 79.8798C63.0143 79.8941 63.0229 79.9107 63.028 79.9286C63.033 79.9464 63.0344 79.9651 63.032 79.9834C63.0296 80.0018 63.0235 80.0195 63.0141 80.0354L59.6314 86.1867C59.6194 86.2093 59.6014 86.2282 59.5793 86.2412C59.5572 86.2543 59.532 86.261 59.5064 86.2606Z" fill="black"/>
<path d="M71.6949 82.5312C71.672 82.5313 71.6495 82.5254 71.6295 82.5141L65.4413 79.2907C65.4081 79.2726 65.3833 79.2423 65.3722 79.2062C65.361 79.1701 65.3644 79.131 65.3816 79.0974C65.3992 79.0644 65.429 79.0396 65.4646 79.0285C65.5002 79.0173 65.5388 79.0206 65.5721 79.0377L71.7603 82.264C71.7769 82.2724 71.7916 82.284 71.8037 82.2982C71.8157 82.3124 71.8248 82.3288 71.8303 82.3466C71.8359 82.3644 71.8378 82.383 71.8361 82.4016C71.8343 82.4201 71.8288 82.4381 71.82 82.4544C71.8081 82.4774 71.7902 82.4967 71.7681 82.5102C71.7461 82.5237 71.7208 82.531 71.6949 82.5312Z" fill="black"/>
<path d="M87.7356 66.1923C87.7356 66.1923 87.403 59.1968 94.7311 60.5299C102.059 61.8631 100.061 67.5226 100.061 67.5226C100.061 67.5226 104.057 65.1917 106.388 68.5232C108.719 71.8546 104.018 78.3186 104.018 78.3186L82.2665 95.0896C82.2665 95.0896 69.4154 96.4938 68.0851 89.4983C66.7548 82.5028 68.0851 80.5045 68.0851 80.5045C68.0851 80.5045 61.0896 74.177 66.0953 69.8478C71.101 65.5186 77.0874 69.1798 77.0874 69.1798C77.0874 69.1798 74.7537 63.5175 78.7531 60.854C82.7526 58.1905 87.0789 61.8603 87.7356 66.1923Z" fill="black"/>
<path d="M62.8721 140.098H74.7255V161.597L62.8237 161.656L62.8721 140.098Z" fill="white"/>
<path d="M113.404 161.656H112.835L112.963 136.855L126.172 136.727C126.281 133.788 126.852 107.671 113.219 106.312C102.986 105.292 95.1149 105.681 88.162 106.028C85.1091 106.178 82.2296 106.312 79.478 106.312C70.453 106.312 63.1078 115.448 63.1078 126.679C63.1078 136.042 63.1391 138.998 63.1533 139.811H75.0096V160.846H74.4411V140.38H62.599V140.096C62.599 140.079 62.5479 138.39 62.5479 126.67C62.5479 120.962 64.3443 115.653 67.6076 111.719C70.8083 107.858 75.0266 105.735 79.4866 105.735C82.2239 105.735 85.0977 105.59 88.1421 105.451C95.1149 105.104 103.017 104.712 113.284 105.735C119.478 106.355 123.768 111.989 125.689 122.014C127.125 129.521 126.741 136.946 126.735 137.02L126.721 137.284L113.537 137.412L113.404 161.656Z" fill="black"/>
<path d="M85.7799 105.851C85.7799 105.851 82.4769 107.696 85.8084 110.36C89.1398 113.023 92.5821 113.359 93.5259 111.025C93.5259 111.025 96.1325 114.024 99.7965 110.36C103.461 106.696 99.1797 105.365 99.1797 105.365" fill="white"/>
<path d="M90.9589 112.873C89.3955 112.873 87.4768 112.06 85.6291 110.581C84.4921 109.677 83.9662 108.748 84.043 107.821C84.1567 106.446 85.5808 105.635 85.6433 105.601C85.709 105.566 85.7861 105.557 85.8579 105.578C85.9298 105.599 85.9905 105.647 86.0271 105.712C86.0639 105.778 86.0732 105.855 86.053 105.928C86.0327 106 85.9846 106.062 85.9191 106.099C85.9191 106.099 84.6968 106.798 84.6086 107.872C84.5489 108.597 85.0123 109.359 85.9844 110.146C88.068 111.812 90.2909 112.602 91.7917 112.21C92.1229 112.133 92.4301 111.976 92.6863 111.752C92.9425 111.529 93.14 111.246 93.2613 110.928C93.2796 110.883 93.3091 110.844 93.3471 110.813C93.385 110.783 93.43 110.763 93.4779 110.755C93.5258 110.747 93.5749 110.751 93.6206 110.768C93.6663 110.784 93.707 110.812 93.7389 110.849C94.3541 111.48 95.1841 111.856 96.0641 111.903C97.2153 111.94 98.4063 111.357 99.5945 110.166C100.695 109.069 101.149 108.106 100.95 107.301C100.666 106.144 99.1113 105.65 99.0971 105.647C99.0247 105.625 98.9641 105.574 98.9287 105.508C98.8932 105.441 98.8858 105.362 98.908 105.29C98.9303 105.218 98.9804 105.157 99.0473 105.122C99.1142 105.086 99.1924 105.079 99.2648 105.101C99.3415 105.127 101.141 105.701 101.502 107.165C101.752 108.177 101.246 109.322 99.9982 110.576C98.6906 111.883 97.3546 112.52 96.0385 112.477C95.1442 112.437 94.2894 112.098 93.611 111.514C93.4311 111.825 93.1899 112.096 92.9022 112.312C92.6144 112.527 92.286 112.682 91.9367 112.767C91.6165 112.844 91.288 112.879 90.9589 112.873Z" fill="black"/>
<path d="M86.0186 106.241V99.4586C86.0186 99.4586 81.2317 95.479 81.2317 91.8804C81.2317 91.8804 71.6581 92.6791 70.4613 86.6956C69.2646 80.712 74.0515 77.5227 77.6416 79.5153L81.2317 81.5051C81.2317 81.5051 88.0141 80.7064 87.6133 73.5261C87.6133 73.5261 98.7816 66.3487 103.17 76.3203C107.559 86.292 109.14 95.0669 106.761 98.2562C104.381 101.446 99.1796 101.846 99.1796 101.846V106.235C99.1796 106.235 94.7935 117.008 86.0186 106.241Z" fill="white"/>
<path d="M93.3325 111.312C90.9817 111.312 88.4519 109.669 85.8026 106.42C85.7619 106.369 85.7398 106.306 85.7401 106.241V99.5894C85.0408 98.9868 81.192 95.5189 80.9646 92.1817C79.2846 92.2698 71.2999 92.3779 70.1885 86.7496C69.5887 83.7479 70.4244 81.0816 72.4284 79.6205C73.1922 79.0507 74.1046 78.7142 75.0554 78.6516C76.0062 78.5891 76.9548 78.8032 77.7866 79.268L81.2943 81.2152C82.1045 81.093 87.6957 80.0128 87.3347 73.5403C87.3318 73.4899 87.3424 73.4396 87.3654 73.3947C87.3884 73.3497 87.4229 73.3117 87.4655 73.2845C87.6986 73.1338 93.2472 69.6205 98.1478 71.0957C100.476 71.7978 102.252 73.5147 103.435 76.2123C108.048 86.6956 109.404 95.2119 106.994 98.4353C104.833 101.315 100.581 101.983 99.4696 102.111V106.244C99.4696 106.28 99.4629 106.315 99.4496 106.349C99.3786 106.528 97.6276 110.726 94.0687 111.258C93.825 111.295 93.5789 111.313 93.3325 111.312ZM86.3086 106.139C89.0744 109.507 91.6554 111.039 93.9834 110.687C97.025 110.232 98.6992 106.636 98.901 106.173V101.844C98.9009 101.771 98.9281 101.702 98.9771 101.649C99.0262 101.596 99.0935 101.564 99.1654 101.559C99.2166 101.559 104.251 101.133 106.539 98.0828C108.827 95.0328 107.378 86.5705 102.915 76.4312C101.803 73.9042 100.146 72.2924 97.9857 71.6415C93.7504 70.3652 88.7958 73.148 87.9118 73.6796C88.196 80.8826 81.3398 81.7752 81.2716 81.7837C81.2126 81.7904 81.1529 81.7785 81.101 81.7496L77.5109 79.7598C76.7738 79.3484 75.9335 79.159 75.0912 79.2145C74.2489 79.2699 73.4406 79.5679 72.7639 80.0725C70.9446 81.4 70.1913 83.8531 70.7485 86.6331C71.8855 92.2983 81.1209 91.599 81.2147 91.5905C81.2539 91.5872 81.2933 91.5921 81.3305 91.6048C81.3677 91.6175 81.4018 91.6378 81.4308 91.6644C81.4597 91.6912 81.4827 91.7238 81.4984 91.76C81.5141 91.7962 81.522 91.8353 81.5217 91.8747C81.5217 95.2858 86.1608 99.1943 86.2062 99.2341C86.2383 99.2608 86.2641 99.2942 86.2818 99.3321C86.2995 99.3699 86.3086 99.4112 86.3086 99.4529V106.139Z" fill="black"/>
<path d="M100.379 88.9724C100.318 88.972 100.259 88.9521 100.211 88.9156C100.162 88.8792 100.126 88.8282 100.109 88.77C100.091 88.7118 100.093 88.6496 100.113 88.5924C100.134 88.5353 100.172 88.4861 100.223 88.4523C101.343 87.7217 101.928 86.8263 101.996 85.7888C102.144 83.0685 98.6365 80.1634 98.6023 80.135C98.5734 80.1113 98.5494 80.0821 98.5318 80.0491C98.5141 80.0162 98.5031 79.98 98.4994 79.9428C98.4957 79.9056 98.4994 79.868 98.5102 79.8322C98.5211 79.7964 98.5388 79.7631 98.5625 79.7342C98.5863 79.7052 98.6154 79.6813 98.6484 79.6636C98.6814 79.646 98.7175 79.635 98.7547 79.6313C98.7919 79.6276 98.8295 79.6312 98.8653 79.6421C98.9011 79.6529 98.9344 79.6707 98.9633 79.6944C99.1168 79.8194 102.727 82.8212 102.565 85.8172C102.497 87.0452 101.814 88.0912 100.532 88.9269C100.487 88.9565 100.433 88.9723 100.379 88.9724Z" fill="black"/>
<path d="M93.5455 95.3824C92.7744 95.3981 92.0228 95.1392 91.4249 94.6519C89.9525 93.4495 89.7194 91.2039 89.7194 91.1072C89.7126 91.0319 89.7361 90.9569 89.7846 90.8988C89.8331 90.8407 89.9027 90.8042 89.9781 90.7974C90.0535 90.7906 90.1285 90.8141 90.1866 90.8626C90.2447 90.9111 90.2811 90.9807 90.2879 91.0561C90.2879 91.0788 90.4954 93.1624 91.7831 94.2113C92.0874 94.4508 92.4378 94.6248 92.8125 94.7227C93.1871 94.8205 93.578 94.84 93.9605 94.7798C93.9978 94.7757 94.0356 94.779 94.0716 94.7895C94.1077 94.8 94.1413 94.8175 94.1706 94.841C94.1999 94.8645 94.2243 94.8935 94.2424 94.9264C94.2605 94.9593 94.2719 94.9955 94.276 95.0328C94.2801 95.0701 94.2768 95.1079 94.2663 95.144C94.2558 95.18 94.2384 95.2136 94.2149 95.2429C94.1914 95.2722 94.1623 95.2966 94.1294 95.3147C94.0965 95.3328 94.0603 95.3442 94.023 95.3483C93.8645 95.3679 93.7051 95.3792 93.5455 95.3824Z" fill="black"/>
<path d="M75.4473 86.3801C75.372 86.3801 75.2997 86.3501 75.2463 86.2968C75.193 86.2435 75.1631 86.1712 75.1631 86.0958C75.1631 86.0475 75.1631 84.8934 76.0158 84.3675C76.6639 83.9667 77.5878 84.0606 78.7589 84.6518C78.7923 84.6686 78.8221 84.6918 78.8465 84.7201C78.871 84.7484 78.8896 84.7813 78.9013 84.8168C78.9131 84.8523 78.9177 84.8897 78.915 84.927C78.9123 84.9643 78.9022 85.0007 78.8854 85.0341C78.8686 85.0675 78.8454 85.0973 78.8171 85.1217C78.7888 85.1462 78.7559 85.1648 78.7204 85.1766C78.6849 85.1883 78.6475 85.1929 78.6102 85.1902C78.5729 85.1875 78.5365 85.1774 78.5031 85.1606C77.5366 84.6774 76.7805 84.5694 76.3172 84.8565C75.7487 85.2118 75.7231 86.0958 75.7231 86.1043C75.7209 86.1768 75.6912 86.2457 75.6399 86.2969C75.5887 86.3482 75.5198 86.3779 75.4473 86.3801Z" fill="black"/>
<path d="M87.7469 78.0059C87.6907 78.0057 87.6358 77.9888 87.5892 77.9574C87.5426 77.9259 87.5064 77.8814 87.4851 77.8294C87.4638 77.7773 87.4584 77.7202 87.4696 77.6651C87.4808 77.61 87.508 77.5595 87.5479 77.5199C88.146 76.9661 88.9274 76.6523 89.7424 76.6387C89.8178 76.6387 89.8901 76.6686 89.9434 76.7219C89.9967 76.7752 90.0266 76.8475 90.0266 76.9229C90.0266 76.9983 89.9967 77.0706 89.9434 77.1239C89.8901 77.1772 89.8178 77.2072 89.7424 77.2072C89.0781 77.2237 88.4417 77.4778 87.9487 77.9235C87.9222 77.9498 87.8907 77.9707 87.8561 77.9848C87.8214 77.999 87.7843 78.0062 87.7469 78.0059Z" fill="black"/>
<path d="M90.2058 81.11C90.5355 81.11 90.8028 80.8428 90.8028 80.5131C90.8028 80.1834 90.5355 79.9161 90.2058 79.9161C89.8761 79.9161 89.6089 80.1834 89.6089 80.5131C89.6089 80.8428 89.8761 81.11 90.2058 81.11Z" fill="#201000"/>
<path d="M99.7796 78.3186C100.109 78.3186 100.376 78.0514 100.376 77.7217C100.376 77.392 100.109 77.1248 99.7796 77.1248C99.4499 77.1248 99.1826 77.392 99.1826 77.7217C99.1826 78.0514 99.4499 78.3186 99.7796 78.3186Z" fill="#201000"/>
<path d="M97.7841 74.4158C97.7091 74.4147 97.6376 74.3841 97.5851 74.3305C97.5322 74.2773 97.5024 74.2052 97.5024 74.1301C97.5024 74.055 97.5322 73.983 97.5851 73.9297C98.0541 73.4578 99.2366 72.7614 100.337 73.4948C100.368 73.5155 100.395 73.5422 100.416 73.5732C100.436 73.6043 100.451 73.6392 100.458 73.6759C100.466 73.7126 100.466 73.7503 100.459 73.7871C100.451 73.8238 100.437 73.8587 100.416 73.8899C100.396 73.9211 100.369 73.9479 100.338 73.9687C100.307 73.9896 100.272 74.0042 100.235 74.0115C100.199 74.0189 100.161 74.019 100.124 74.0118C100.087 74.0046 100.052 73.9902 100.021 73.9695C99.0348 73.3129 98.0314 74.2907 97.9859 74.3333C97.9593 74.3597 97.9278 74.3805 97.8932 74.3947C97.8586 74.4088 97.8215 74.416 97.7841 74.4158Z" fill="black"/>
<path d="M80.1433 87.662C80.0857 87.6616 80.0295 87.6438 79.9823 87.6108C79.9351 87.5778 79.8991 87.5312 79.8789 87.4772C77.9886 82.4403 74.0261 82.969 73.8584 82.9945C73.783 83.0059 73.7062 82.9868 73.6449 82.9415C73.5836 82.8961 73.5428 82.8283 73.5315 82.7529C73.5202 82.6775 73.5393 82.6008 73.5846 82.5395C73.6299 82.4782 73.6977 82.4373 73.7731 82.426C73.8186 82.426 78.3553 81.7893 80.4105 87.2584C80.4237 87.2933 80.43 87.3304 80.4289 87.3678C80.4277 87.4051 80.4193 87.4418 80.404 87.4759C80.3887 87.5099 80.3668 87.5406 80.3396 87.5662C80.3124 87.5918 80.2805 87.6118 80.2456 87.6251C80.2144 87.6444 80.1796 87.657 80.1433 87.662Z" fill="black"/>
<path d="M62.8233 161.941C62.7479 161.941 62.6756 161.911 62.6223 161.857C62.569 161.804 62.5391 161.732 62.5391 161.656L62.5874 138.893C62.5874 138.818 62.6173 138.745 62.6706 138.692C62.7239 138.639 62.7962 138.609 62.8716 138.609C62.947 138.609 63.0193 138.639 63.0726 138.692C63.1259 138.745 63.1559 138.818 63.1559 138.893L63.1076 161.659C63.1068 161.734 63.0765 161.806 63.0233 161.858C62.9701 161.911 62.8982 161.941 62.8233 161.941Z" fill="black"/>
<path d="M113.247 137.134L121.775 137.006C121.775 137.006 123.108 109.359 124.438 96.7042C124.916 92.1874 128.662 87.6081 131.101 86.0447C135.428 83.2504 141.619 79.9787 141.025 90.5074C140.519 99.4416 144.092 161.324 128.398 161.386C114.37 161.443 113.114 137.006 113.114 137.006" fill="white"/>
<path d="M128.356 161.671C122.511 161.671 117.975 157.407 115.232 149.308C113.176 143.239 112.841 137.085 112.835 137.023C112.832 136.961 112.849 136.899 112.884 136.848C112.919 136.796 112.97 136.757 113.029 136.738C113.088 136.718 113.152 136.718 113.211 136.738C113.27 136.759 113.321 136.798 113.356 136.849L121.511 136.727C121.65 133.845 122.915 108.532 124.163 96.6729C124.64 92.1249 128.427 87.446 130.954 85.8059C133.879 83.9156 137.159 82.1561 139.305 83.404C140.877 84.3193 141.534 86.6473 141.315 90.5103C141.232 91.9486 141.258 94.8424 141.292 98.5064C141.44 115.454 141.75 150.721 133.015 159.567C131.65 160.949 130.101 161.654 128.407 161.659L128.356 161.671ZM113.435 137.415C113.688 140.641 115.809 161.102 128.356 161.102H128.404C129.942 161.102 131.357 160.448 132.611 159.18C141.178 150.502 140.871 115.405 140.724 98.5234C140.689 94.848 140.664 91.9458 140.746 90.4904C140.951 86.9003 140.368 84.6803 139.018 83.8957C137.125 82.7928 133.879 84.5921 131.261 86.2835C128.816 87.8611 125.186 92.3693 124.723 96.7326C123.407 109.24 122.074 136.744 122.059 137.02C122.056 137.093 122.024 137.162 121.971 137.212C121.918 137.262 121.848 137.29 121.775 137.29L113.435 137.415Z" fill="black"/>
<path d="M121.448 146.284C121.373 146.284 121.301 146.254 121.247 146.201C121.194 146.147 121.164 146.075 121.164 146L121.525 136.412C121.527 136.374 121.535 136.338 121.551 136.304C121.567 136.27 121.589 136.239 121.616 136.214C121.644 136.189 121.676 136.169 121.711 136.156C121.746 136.143 121.783 136.137 121.821 136.139C121.858 136.14 121.895 136.149 121.929 136.165C121.963 136.18 121.993 136.203 122.018 136.23C122.044 136.258 122.063 136.29 122.076 136.325C122.089 136.36 122.095 136.397 122.094 136.434L121.733 146.022C121.727 146.094 121.694 146.16 121.642 146.209C121.589 146.257 121.52 146.284 121.448 146.284Z" fill="black"/>
<path d="M111.121 123.694C111.121 123.694 113.111 132.355 113.111 138.683L111.121 123.694Z" fill="white"/>
<path d="M113.119 138.956C113.044 138.956 112.972 138.926 112.918 138.872C112.865 138.819 112.835 138.747 112.835 138.671C112.835 132.449 110.865 123.833 110.845 123.748C110.837 123.712 110.836 123.674 110.842 123.637C110.848 123.6 110.861 123.565 110.881 123.533C110.901 123.502 110.927 123.474 110.957 123.453C110.988 123.431 111.022 123.415 111.058 123.407C111.095 123.399 111.133 123.397 111.169 123.404C111.206 123.41 111.241 123.423 111.273 123.443C111.305 123.463 111.332 123.489 111.354 123.519C111.376 123.549 111.391 123.584 111.4 123.62C111.419 123.705 113.403 132.384 113.403 138.686C113.4 138.759 113.368 138.827 113.315 138.878C113.262 138.928 113.192 138.956 113.119 138.956Z" fill="black"/>
<path d="M138.193 89.8366C138.247 91.6928 140.919 92.5313 141.036 90.3028C141.152 88.0742 142.361 81.3516 140.598 81.4113C138.836 81.471 138.392 84.45 138.281 86.6814C138.171 88.9128 138.193 89.8366 138.193 89.8366Z" fill="white"/>
<path d="M139.905 91.923H139.89C139.358 91.8902 138.858 91.6581 138.489 91.2731C138.12 90.888 137.91 90.3782 137.901 89.8451C137.901 89.8082 137.875 88.8815 137.983 86.6671C138.165 83.04 139.035 81.1753 140.573 81.127C140.701 81.1207 140.829 81.143 140.948 81.1921C141.067 81.2413 141.174 81.3161 141.26 81.4113C142.076 82.2925 141.846 85.0867 141.488 88.3755C141.403 89.16 141.329 89.8394 141.303 90.3113C141.255 91.5023 140.55 91.923 139.905 91.923ZM138.483 89.828C138.489 90.2134 138.637 90.5829 138.9 90.8649C139.163 91.1469 139.521 91.3214 139.905 91.3545C140.405 91.3545 140.712 90.9679 140.757 90.2885C140.78 89.7996 140.857 89.1146 140.942 88.3187C141.175 86.1669 141.57 82.5653 140.863 81.8035C140.832 81.7673 140.794 81.7387 140.75 81.7199C140.707 81.7012 140.66 81.6928 140.612 81.6955C139.129 81.741 138.682 84.4414 138.571 86.6955C138.463 88.8843 138.489 89.8223 138.489 89.8223L138.483 89.828Z" fill="black"/>
<path d="M134.999 89.1999C135.053 91.0532 137.725 91.8946 137.841 89.6632C137.958 87.4318 139.166 80.7149 137.403 80.7717C135.641 80.8286 135.197 83.8133 135.087 86.0418C134.976 88.2704 134.999 89.1999 134.999 89.1999Z" fill="white"/>
<path d="M136.71 91.2891H136.696C136.163 91.2563 135.663 91.0243 135.294 90.6392C134.926 90.2541 134.715 89.7443 134.706 89.2112C134.706 89.1714 134.68 88.2476 134.788 86.0304C134.97 82.4033 135.84 80.5415 137.378 80.4903C137.506 80.4836 137.635 80.5057 137.754 80.5548C137.873 80.604 137.979 80.6791 138.066 80.7746C138.881 81.6529 138.651 84.4471 138.293 87.7359C138.208 88.5233 138.134 89.1999 138.111 89.6717C138.06 90.8628 137.355 91.2891 136.71 91.2891ZM135.288 89.1942C135.295 89.5791 135.444 89.9479 135.707 90.2297C135.969 90.5115 136.326 90.6863 136.71 90.7206C137.207 90.7206 137.514 90.3312 137.548 89.6518C137.571 89.1629 137.648 88.4778 137.733 87.6848C137.969 85.533 138.361 81.9315 137.653 81.1697C137.623 81.1336 137.584 81.1049 137.541 81.0857C137.498 81.0665 137.451 81.0573 137.403 81.0588C135.92 81.1071 135.476 83.8047 135.362 86.0588C135.254 88.2476 135.28 89.1856 135.28 89.1856L135.288 89.1942Z" fill="black"/>
<path d="M131.681 88.4466C131.741 90.4023 134.558 91.2892 134.675 88.9355C134.791 86.5819 136.07 79.4983 134.211 79.5551C132.352 79.612 131.889 82.7616 131.77 85.1152C131.65 87.4688 131.681 88.4466 131.681 88.4466Z" fill="white"/>
<path d="M133.489 90.624H133.472C132.916 90.5878 132.395 90.3441 132.01 89.9413C131.626 89.5386 131.407 89.0061 131.397 88.4495C131.397 88.4097 131.371 87.4347 131.488 85.0981C131.675 81.2834 132.591 79.3221 134.203 79.268C134.336 79.2644 134.469 79.2897 134.592 79.3422C134.716 79.3947 134.826 79.4731 134.916 79.5722C135.769 80.496 135.527 83.4381 135.149 86.9031C135.061 87.7303 134.981 88.4466 134.959 88.9441C134.896 90.1834 134.16 90.624 133.489 90.624ZM131.965 88.4324C131.973 88.8418 132.131 89.234 132.411 89.5336C132.69 89.8333 133.07 90.0191 133.478 90.0555C134.015 90.0555 134.33 89.6405 134.379 88.9185C134.404 88.404 134.484 87.682 134.575 86.8434C134.822 84.5694 135.234 80.7689 134.487 79.9616C134.452 79.9203 134.409 79.8877 134.359 79.8664C134.31 79.8452 134.256 79.8359 134.203 79.8394C132.625 79.8906 132.153 82.7445 132.034 85.1294C131.92 87.4375 131.946 88.4267 131.946 88.4353L131.965 88.4324Z" fill="black"/>
<path d="M126.047 89.4471C126.124 92.9548 129.93 93.4011 130.087 89.106C130.243 84.8109 131.971 71.4822 129.461 72.3549C126.951 73.2275 126.32 79.1002 126.164 83.3953C126.008 87.6904 126.047 89.4471 126.047 89.4471Z" fill="white"/>
<path d="M128.057 92.4858C126.954 92.4858 125.817 91.4341 125.783 89.4528C125.783 89.4358 125.743 87.6421 125.899 83.3868C126.15 76.6045 127.321 72.8041 129.387 72.0877C129.524 72.035 129.672 72.0182 129.816 72.0391C129.961 72.06 130.098 72.1179 130.214 72.2071C131.502 73.2049 131.175 78.745 130.652 85.3312C130.53 86.869 130.425 88.1964 130.391 89.1146C130.285 91.4454 129.148 92.4858 128.057 92.4858ZM126.331 89.4386C126.366 91.0589 127.221 91.9116 128.037 91.9173C128.853 91.923 129.72 91.0646 129.791 89.0947C129.825 88.1652 129.933 86.8206 130.055 85.2857C130.402 80.8968 130.985 73.5488 129.836 72.6591C129.796 72.6288 129.749 72.6096 129.699 72.6036C129.649 72.5976 129.598 72.605 129.552 72.625C128.299 73.0599 126.744 75.2828 126.445 83.4067C126.292 87.6393 126.326 89.4216 126.329 89.4386H126.331Z" fill="black"/>
<path d="M124.331 98.6399C124.515 92.9235 126.849 84.5977 129.845 83.5971C132.841 82.5965 138.839 83.5971 138.839 85.2629C138.839 86.9286 132.844 86.9286 132.844 86.9286C132.844 86.9286 133.177 91.2578 129.513 92.9235" fill="white"/>
<path d="M124.331 98.9241C124.255 98.9241 124.183 98.8942 124.13 98.8409C124.076 98.7876 124.046 98.7153 124.046 98.6399C124.225 93.1168 126.539 84.4073 129.757 83.3356C132.202 82.5227 136.75 82.9718 138.45 84.1884C138.896 84.5124 139.123 84.8735 139.123 85.2657C139.123 86.9713 134.623 87.193 133.134 87.2129C133.134 88.2589 132.85 91.7211 129.629 93.1822C129.561 93.2078 129.487 93.2066 129.42 93.1789C129.353 93.1512 129.299 93.0991 129.269 93.0331C129.24 92.9671 129.236 92.8923 129.26 92.8239C129.283 92.7554 129.332 92.6986 129.396 92.6648C132.83 91.1043 132.574 87.119 132.56 86.9485C132.557 86.9095 132.562 86.8704 132.575 86.8336C132.589 86.7968 132.609 86.763 132.636 86.7345C132.662 86.706 132.695 86.6832 132.73 86.6677C132.766 86.6522 132.805 86.6443 132.844 86.6444C135.215 86.6444 138.555 86.2151 138.555 85.2629C138.555 85.0156 138.316 84.791 138.117 84.6489C136.696 83.6227 132.389 83.0485 129.936 83.8672C127.224 84.7711 124.82 92.6791 124.615 98.6484C124.613 98.7223 124.582 98.7924 124.529 98.8439C124.476 98.8954 124.405 98.9242 124.331 98.9241Z" fill="black"/>
<path d="M76.1467 122.35C76.1467 122.35 74.6373 128.97 74.7254 142.316L76.1467 122.35Z" fill="#FCE054"/>
<path d="M74.4412 142.316C74.3531 129.092 75.8625 122.355 75.8625 122.287L76.4168 122.415C76.4168 122.48 74.9131 129.163 74.9955 142.313L74.4412 142.316Z" fill="black"/>
<path d="M94.1344 120.022C94.687 120.022 95.1349 119.574 95.1349 119.021C95.1349 118.468 94.687 118.02 94.1344 118.02C93.5818 118.02 93.1338 118.468 93.1338 119.021C93.1338 119.574 93.5818 120.022 94.1344 120.022Z" fill="black"/>
<path d="M94.1344 127.35C94.687 127.35 95.1349 126.902 95.1349 126.349C95.1349 125.796 94.687 125.349 94.1344 125.349C93.5818 125.349 93.1338 125.796 93.1338 126.349C93.1338 126.902 93.5818 127.35 94.1344 127.35Z" fill="black"/>
<path d="M143.765 80.6666C143.708 80.6669 143.653 80.6504 143.606 80.6192C143.559 80.588 143.522 80.5435 143.501 80.4913C143.479 80.4392 143.473 80.3818 143.485 80.3264C143.496 80.2711 143.523 80.2203 143.563 80.1805L146.562 77.1845C146.615 77.1315 146.687 77.1018 146.762 77.1018C146.837 77.1018 146.91 77.1315 146.963 77.1845C147.016 77.2377 147.045 77.3098 147.045 77.3848C147.045 77.4599 147.016 77.532 146.963 77.5853L143.967 80.5813C143.94 80.6081 143.909 80.6295 143.874 80.6442C143.84 80.6588 143.803 80.6664 143.765 80.6666Z" fill="black"/>
<path d="M145.763 84.9957C145.688 85.001 145.614 84.9761 145.557 84.9265C145.499 84.877 145.464 84.8068 145.459 84.7314C145.454 84.656 145.479 84.5816 145.528 84.5245C145.578 84.4675 145.648 84.4325 145.724 84.4272L150.385 83.7621C150.46 83.7515 150.536 83.7711 150.596 83.8164C150.656 83.8617 150.696 83.9291 150.707 84.0037C150.717 84.0779 150.698 84.1533 150.653 84.2134C150.609 84.2736 150.542 84.3136 150.468 84.3249L145.803 84.99L145.763 84.9957Z" fill="black"/>
<path d="M151.093 92.3237H151.028L146.699 91.3232C146.625 91.3062 146.561 91.2607 146.521 91.1968C146.481 91.1328 146.468 91.0556 146.485 90.9821C146.502 90.9086 146.548 90.8448 146.612 90.8048C146.676 90.7648 146.753 90.7519 146.826 90.7689L151.156 91.7694C151.231 91.7777 151.3 91.8156 151.347 91.8748C151.395 91.934 151.417 92.0096 151.409 92.085C151.4 92.1604 151.362 92.2294 151.303 92.2768C151.244 92.3242 151.168 92.3462 151.093 92.3379V92.3237Z" fill="black"/>
<path d="M118.714 102.83H63.4234C62.8708 102.83 62.4229 103.277 62.4229 103.829C62.4229 104.381 62.8708 104.828 63.4234 104.828H118.714C119.266 104.828 119.714 104.381 119.714 103.829C119.714 103.277 119.266 102.83 118.714 102.83Z" fill="#07ACEE"/>
<path d="M63.7701 103.194C63.6947 103.194 63.6224 103.164 63.5691 103.11C63.5158 103.057 63.4858 102.985 63.4858 102.909C63.4858 102.834 63.5158 102.762 63.5691 102.708C63.6224 102.655 63.6947 102.625 63.7701 102.625L116.715 102.546C116.791 102.546 116.863 102.576 116.916 102.629C116.97 102.682 117 102.754 117 102.83C117 102.905 116.97 102.977 116.916 103.031C116.863 103.084 116.791 103.114 116.715 103.114L63.7729 103.194H63.7701Z" fill="black"/>
<path d="M119.217 61.1974L108.318 55.9523L104.996 62.8551L115.895 68.1002L119.217 61.1974Z" fill="#FCE054"/>
<path d="M112.093 62.1701C112.069 62.17 112.045 62.1637 112.025 62.1517C112.004 62.1398 111.986 62.1226 111.974 62.1019L108.196 56.0416C108.186 56.0258 108.179 56.0082 108.175 55.9896C108.172 55.9711 108.173 55.9521 108.177 55.9338C108.181 55.9155 108.189 55.8982 108.2 55.883C108.211 55.8678 108.225 55.855 108.242 55.8454C108.274 55.8261 108.312 55.8201 108.349 55.8286C108.385 55.8371 108.417 55.8594 108.438 55.8909L112.179 61.8887L119.2 61.0729C119.218 61.0701 119.237 61.0711 119.255 61.0758C119.273 61.0805 119.289 61.0888 119.304 61.1003C119.319 61.1117 119.331 61.126 119.34 61.1423C119.349 61.1587 119.354 61.1766 119.356 61.1951C119.359 61.2139 119.358 61.233 119.353 61.2513C119.348 61.2696 119.339 61.2867 119.328 61.3016C119.316 61.3165 119.301 61.3289 119.285 61.3379C119.268 61.347 119.25 61.3526 119.231 61.3543L112.125 62.1815L112.093 62.1701Z" fill="black"/>
<path d="M104.987 62.9972C104.949 63.0033 104.911 62.9941 104.88 62.9717C104.849 62.9493 104.828 62.9155 104.822 62.8779C104.816 62.8402 104.825 62.8016 104.848 62.7707C104.87 62.7398 104.904 62.719 104.942 62.713L111.255 60.6038C111.289 60.5966 111.324 60.6021 111.355 60.6193C111.385 60.6364 111.408 60.6641 111.419 60.697C111.43 60.73 111.429 60.7659 111.415 60.7979C111.402 60.83 111.377 60.856 111.346 60.871L105.032 62.983C105.018 62.9908 105.003 62.9957 104.987 62.9972Z" fill="black"/>
<path d="M115.894 68.2446C115.865 68.2446 115.836 68.2356 115.812 68.2188C115.788 68.202 115.77 68.1782 115.76 68.1508L113.515 61.9256C113.508 61.9081 113.505 61.8894 113.505 61.8706C113.506 61.8519 113.511 61.8335 113.519 61.8165C113.527 61.7995 113.538 61.7843 113.552 61.7718C113.566 61.7593 113.582 61.7497 113.6 61.7437C113.635 61.7309 113.674 61.7327 113.709 61.7487C113.743 61.7647 113.769 61.7935 113.782 61.829L116.019 68.0541C116.032 68.0896 116.03 68.1286 116.014 68.1627C115.998 68.1969 115.969 68.2232 115.934 68.2361L115.894 68.2446Z" fill="black"/>
<path d="M77.3686 51.1989L69.6357 54.874L71.9638 59.7725L79.6967 56.0974L77.3686 51.1989Z" fill="#FCE054"/>
<path d="M74.6825 55.6124H74.6654L69.6342 55.0041C69.5969 54.9991 69.563 54.9796 69.5401 54.9498C69.5172 54.9199 69.5071 54.8822 69.5119 54.8449C69.5162 54.8076 69.535 54.7736 69.5643 54.7502C69.5936 54.7267 69.631 54.7158 69.6683 54.7198L74.6114 55.3196L77.2635 51.1098C77.284 51.0783 77.3158 51.0559 77.3524 51.0474C77.389 51.039 77.4275 51.045 77.4597 51.0643C77.4759 51.0739 77.4899 51.0867 77.501 51.1019C77.5122 51.1171 77.5201 51.1343 77.5243 51.1527C77.5286 51.171 77.5291 51.19 77.5258 51.2085C77.5225 51.227 77.5155 51.2447 77.5052 51.2604L74.8019 55.547C74.7892 55.5672 74.7716 55.5838 74.7507 55.5953C74.7298 55.6067 74.7063 55.6126 74.6825 55.6124Z" fill="black"/>
<path d="M71.9793 59.8989C71.9633 59.9016 71.947 59.9016 71.931 59.8989C71.8958 59.8849 71.8674 59.858 71.8515 59.8236C71.8356 59.7892 71.8336 59.75 71.8457 59.7142L73.4887 55.2997C73.495 55.2822 73.5048 55.2661 73.5174 55.2524C73.53 55.2388 73.5453 55.2277 73.5623 55.2201C73.5792 55.2124 73.5975 55.2082 73.6162 55.2077C73.6348 55.2072 73.6533 55.2105 73.6706 55.2173C73.706 55.2301 73.7349 55.2565 73.7509 55.2906C73.7669 55.3247 73.7687 55.3638 73.7559 55.3992L72.1129 59.8137C72.1016 59.8395 72.0829 59.8615 72.0591 59.8766C72.0353 59.8918 72.0075 59.8996 71.9793 59.8989Z" fill="black"/>
<path d="M79.7137 56.2236C79.6977 56.2263 79.6814 56.2263 79.6654 56.2236L75.2424 54.6915C75.2047 54.679 75.1735 54.6521 75.1557 54.6167C75.1378 54.5812 75.1347 54.5401 75.1472 54.5024C75.1596 54.4647 75.1865 54.4335 75.222 54.4157C75.2574 54.3978 75.2985 54.3948 75.3362 54.4072L79.7592 55.9393C79.7947 55.9522 79.8238 55.9784 79.8402 56.0124C79.8567 56.0464 79.8592 56.0854 79.8473 56.1213C79.8393 56.1506 79.8219 56.1764 79.7977 56.1949C79.7736 56.2133 79.7441 56.2234 79.7137 56.2236Z" fill="black"/>
<path d="M95.2312 50.8681C97.1622 50.8681 98.7275 49.3028 98.7275 47.3718C98.7275 45.4408 97.1622 43.8755 95.2312 43.8755C93.3002 43.8755 91.7349 45.4408 91.7349 47.3718C91.7349 49.3028 93.3002 50.8681 95.2312 50.8681Z" fill="white"/>
<path d="M102.892 60.1945C103.903 60.1945 104.723 59.3749 104.723 58.3639C104.723 57.3529 103.903 56.5333 102.892 56.5333C101.881 56.5333 101.062 57.3529 101.062 58.3639C101.062 59.3749 101.881 60.1945 102.892 60.1945Z" fill="white"/>
<path d="M108.054 74.8507C108.421 74.8507 108.719 74.5529 108.719 74.1855C108.719 73.8182 108.421 73.5204 108.054 73.5204C107.686 73.5204 107.389 73.8182 107.389 74.1855C107.389 74.5529 107.686 74.8507 108.054 74.8507Z" fill="white"/>
<path d="M56.0952 83.7478C55.9497 83.7481 55.8096 83.6925 55.7039 83.5925C55.5981 83.4926 55.5347 83.3559 55.5267 83.2106C54.654 67.1644 61.2288 57.3577 66.8969 51.9568C73.0396 46.104 79.3017 44.0802 79.5661 43.9977C79.7101 43.9525 79.8661 43.9663 80 44.0361C80.1338 44.106 80.2343 44.2261 80.2796 44.3701C80.3248 44.5141 80.311 44.6701 80.2411 44.804C80.1713 44.9378 80.0512 45.0383 79.9072 45.0836C79.8447 45.1035 73.5996 47.1274 67.6445 52.8153C62.1697 58.0484 55.811 67.5596 56.6637 83.1481C56.6715 83.2984 56.6193 83.4457 56.5185 83.5576C56.4178 83.6695 56.2768 83.7369 56.1265 83.745L56.0952 83.7478Z" fill="white"/>
<path d="M60.7568 91.076C60.651 91.0759 60.5473 91.0463 60.4575 90.9906C60.3676 90.9349 60.295 90.8552 60.2479 90.7605C55.5265 81.3204 60.0291 69.1571 60.2252 68.654C60.2787 68.513 60.3861 68.3991 60.5236 68.3372C60.6611 68.2754 60.8176 68.2707 60.9586 68.3243C61.0996 68.3778 61.2135 68.4851 61.2753 68.6227C61.3372 68.7602 61.3418 68.9166 61.2883 69.0576C61.2428 69.177 56.7687 81.2635 61.2656 90.2516C61.3093 90.3384 61.3301 90.4349 61.3259 90.532C61.3217 90.629 61.2927 90.7234 61.2417 90.8061C61.1906 90.8888 61.1193 90.957 61.0344 91.0042C60.9495 91.0515 60.8539 91.0762 60.7568 91.076Z" fill="white"/>
<path d="M145.653 163.865C144.169 160.624 143.143 157.441 141.673 154.2C141.07 152.878 140.459 151.537 140.206 150.107C139.953 148.677 140.093 147.12 140.894 145.906C141.792 144.556 143.404 143.771 144.18 142.344C145.63 139.675 143.489 136.258 144.464 133.379C145.132 131.389 147.205 129.931 147.25 127.839C147.281 126.355 146.261 125.064 145.957 123.612C145.63 122.062 146.147 120.485 146.656 118.97C147.452 116.629 148.246 114.291 149.038 111.954C149.257 111.306 149.496 110.633 149.996 110.169C150.496 109.706 151.346 109.541 151.852 109.999C152.583 110.664 152.063 111.844 151.71 112.767C151.068 114.473 150.934 117.341 151.679 119.001C152.154 120.064 152.893 120.991 153.455 122C154.018 123.009 154.413 124.214 154.109 125.337C153.848 126.301 153.109 127.071 152.793 128.018C151.767 131.079 155.425 134.271 154.374 137.338C154.115 138.092 153.592 138.72 153.211 139.416C152.625 140.494 152.745 142.034 152.91 143.217C153.052 144.243 153.572 145.206 153.512 146.253C153.43 147.674 152.307 148.76 151.389 149.84C148.381 153.39 146.71 159.22 147.534 163.785L145.653 163.865Z" fill="#FCE054"/>
<path d="M146.516 163.359C146.465 163.359 146.414 163.343 146.372 163.313C146.33 163.283 146.298 163.24 146.281 163.191C144.251 157.267 144.415 150.812 146.744 144.999C146.846 144.743 146.954 144.49 147.062 144.234C147.631 142.918 148.199 141.56 148.157 140.158C148.11 139.438 147.987 138.725 147.787 138.032C147.54 137.028 147.281 135.991 147.469 134.942C147.655 134.137 147.974 133.369 148.412 132.668C148.68 132.212 148.913 131.737 149.109 131.247C149.797 129.422 149.393 127.35 149.032 125.346C148.606 123.072 148.165 120.712 149.288 118.674C149.32 118.617 149.373 118.574 149.436 118.555C149.499 118.537 149.567 118.544 149.625 118.576C149.682 118.608 149.725 118.661 149.744 118.724C149.762 118.787 149.755 118.855 149.723 118.913C148.685 120.798 149.092 122.964 149.521 125.255C149.908 127.324 150.308 129.467 149.575 131.423C149.368 131.933 149.124 132.428 148.847 132.904C148.437 133.553 148.136 134.266 147.958 135.013C147.79 135.96 148.023 136.898 148.268 137.895C148.477 138.624 148.606 139.373 148.654 140.13C148.694 141.636 148.086 143.046 147.517 144.411C147.409 144.663 147.304 144.916 147.202 145.17C144.92 150.868 144.759 157.196 146.747 163.004C146.759 163.041 146.763 163.081 146.757 163.12C146.751 163.159 146.737 163.196 146.714 163.228C146.691 163.26 146.661 163.286 146.626 163.304C146.592 163.323 146.553 163.333 146.514 163.333L146.516 163.359Z" fill="white"/>
<path d="M78.0171 13.8356C76.146 13.8356 74.3514 14.5789 73.0283 15.902C71.7052 17.2251 70.9619 19.0196 70.9619 20.8908H85.0723C85.0723 19.0196 84.329 17.2251 83.0059 15.902C81.6828 14.5789 79.8883 13.8356 78.0171 13.8356Z" fill="#4BD657"/>
<path d="M70.9619 20.8907L71.971 19.8844L65.4189 14.8446V20.8907H70.9619Z" fill="#4BD657"/>
<path d="M173.674 104.163C174.909 104.167 176.092 104.66 176.964 105.534C177.835 106.409 178.325 107.593 178.325 108.828H169.01C169.01 107.591 169.501 106.404 170.376 105.529C171.251 104.655 172.437 104.163 173.674 104.163Z" fill="#4BD657"/>
<path d="M178.336 108.828L177.671 108.16L182 104.828V108.828H178.336Z" fill="#4BD657"/>
<path d="M27.0047 162.449C23.4685 154.51 21.0353 146.727 17.4963 138.788C16.0523 135.548 14.5969 132.267 14.0114 128.771C13.4258 125.275 13.801 121.48 15.788 118.538C18.0052 115.263 21.962 113.387 23.8807 109.928C27.4794 103.452 22.34 95.067 24.7704 88.0715C26.4447 83.2391 31.5357 79.7229 31.692 74.6205C31.8057 71.0076 29.3441 67.8325 28.6363 64.2879C27.8773 60.4988 29.1735 56.6301 30.4527 52.9831L36.422 35.9278C36.9734 34.3587 37.559 32.7186 38.7984 31.5986C40.0377 30.4787 42.1071 30.0949 43.3265 31.2291C45.0946 32.8664 43.7984 35.726 42.92 37.9716C41.3169 42.0819 40.9303 49.1059 42.6983 53.1792C43.8353 55.7773 45.6091 58.0371 46.9621 60.53C48.3152 63.0229 49.2362 65.9536 48.4772 68.6824C47.8178 71.0247 46.0014 72.8866 45.2055 75.189C42.6273 82.6308 51.4789 90.5388 48.8411 97.9549C48.193 99.7855 46.9025 101.303 45.9587 103C44.509 105.607 44.7649 109.371 45.1344 112.259C45.4556 114.766 46.7092 117.156 46.5358 119.678C46.2998 123.126 43.5369 125.764 41.2771 128.379C33.858 136.963 29.6482 151.119 31.5499 162.29L27.0047 162.449Z" fill="#4BD657"/>
<path d="M29.1306 161.236C29.0048 161.235 28.8824 161.194 28.7805 161.12C28.6786 161.047 28.6023 160.943 28.5621 160.824C23.7527 146.334 24.3024 130.599 30.1113 116.48C30.3699 115.86 30.64 115.24 30.91 114.621C32.3 111.426 33.7327 108.126 33.673 104.709C33.6417 102.983 33.2239 101.218 32.8202 99.5099C32.2517 97.0596 31.6377 94.5269 32.121 91.9715C32.4962 89.9618 33.5024 88.1908 34.4717 86.4768C35.1293 85.3765 35.706 84.2298 36.1972 83.0459C37.9027 78.6058 37.0158 73.5461 36.146 68.6512C35.1596 63.0855 34.1363 57.3322 36.9192 52.3862C37.0004 52.2513 37.1311 52.1533 37.2834 52.1131C37.4358 52.073 37.5977 52.0938 37.735 52.1711C37.8722 52.2484 37.9739 52.3762 38.0185 52.5272C38.0631 52.6783 38.047 52.8408 37.9737 52.9803C35.4155 57.5454 36.345 62.8382 37.337 68.4409C38.2353 73.4978 39.1648 78.728 37.337 83.4808C36.8238 84.7214 36.2196 85.9223 35.5292 87.0738C34.5627 88.7793 33.6531 90.3882 33.312 92.1903C32.8771 94.4956 33.4228 96.7953 34.0027 99.2285C34.4206 100.999 34.8555 102.83 34.8896 104.686C34.955 108.364 33.4683 111.793 32.0243 115.098C31.7571 115.715 31.4899 116.329 31.2341 116.943C25.5362 130.791 24.9976 146.223 29.7162 160.434C29.7416 160.509 29.7519 160.589 29.7465 160.669C29.7412 160.748 29.7202 160.826 29.6848 160.897C29.6494 160.968 29.6003 161.032 29.5404 161.084C29.4804 161.136 29.4107 161.176 29.3353 161.202C29.2692 161.224 29.2002 161.235 29.1306 161.236Z" fill="white"/>
<path d="M17.0017 163.601C17.7664 160.19 18.1103 156.943 18.875 153.538C19.1877 152.151 19.5003 150.744 19.4435 149.323C19.3866 147.901 18.9489 146.437 17.9369 145.44C16.7999 144.325 15.0944 143.902 14.0711 142.691C12.1467 140.417 13.5026 136.722 11.996 134.163C10.9556 132.398 8.67593 131.414 8.20975 129.419C7.88001 127.998 8.59633 126.562 8.59633 125.113C8.59633 123.561 7.78052 122.142 6.98745 120.809C5.75568 118.724 4.52392 116.646 3.29215 114.572C2.95104 114.004 2.5872 113.398 2.01585 113.054C1.44449 112.711 0.594575 112.725 0.205146 113.268C-0.363363 114.052 0.375699 115.076 0.895884 115.889C1.85382 117.378 2.56161 120.11 2.1864 121.858C1.94478 122.972 1.4246 124.001 1.08918 125.087C0.753757 126.173 0.620157 127.401 1.1375 128.416C1.58094 129.285 2.44507 129.874 2.93967 130.715C4.54002 133.441 1.68327 137.253 3.30636 139.959C3.70716 140.627 4.33252 141.125 4.83849 141.716C5.61451 142.628 5.81348 144.129 5.89592 145.295C5.96698 146.307 5.66283 147.344 5.93003 148.322C6.29672 149.661 7.59007 150.479 8.6873 151.329C12.2831 154.121 15.0574 159.354 15.191 163.905L17.0017 163.601Z" fill="#FCE054"/>
<path d="M15.5434 164.672H15.5008C15.4463 164.66 15.3987 164.627 15.368 164.58C15.3372 164.534 15.3257 164.477 15.3359 164.422C16.0158 161.011 15.9735 157.494 15.2118 154.1C14.45 150.706 12.9856 147.509 10.9129 144.715C10.7708 144.524 10.6287 144.334 10.478 144.146C9.56272 142.961 8.61615 141.736 8.37169 140.238C8.27434 139.414 8.29252 138.581 8.4257 137.762C8.51362 137.153 8.5507 136.538 8.53656 135.923C8.44844 134.106 7.4706 132.458 6.52404 130.866C6.34212 130.559 6.16019 130.255 5.9868 129.951C4.47741 127.31 4.11925 125.181 4.88958 123.438C4.91316 123.387 4.95625 123.346 5.00948 123.326C5.06271 123.306 5.12178 123.307 5.17383 123.33C5.22566 123.354 5.26609 123.397 5.28632 123.45C5.30655 123.503 5.30494 123.563 5.28185 123.615C4.56837 125.223 4.92084 127.227 6.35633 129.743C6.52972 130.044 6.71165 130.349 6.89073 130.653C7.86288 132.29 8.88051 133.984 8.96294 135.903C8.9766 136.543 8.93857 137.182 8.84924 137.816C8.72011 138.595 8.70097 139.388 8.79239 140.172C9.01979 141.562 9.9294 142.731 10.8163 143.89L11.2569 144.459C13.3644 147.302 14.8533 150.554 15.6278 154.007C16.4023 157.46 16.4452 161.037 15.7538 164.507C15.7428 164.555 15.7159 164.597 15.6776 164.627C15.6394 164.657 15.592 164.673 15.5434 164.672Z" fill="white"/>
<path d="M27.1158 58.1963C26.503 58.1963 25.8962 58.317 25.3301 58.5516C24.7639 58.7862 24.2496 59.1301 23.8164 59.5635C23.3832 59.997 23.0397 60.5115 22.8054 61.0778C22.5712 61.6441 22.4508 62.2509 22.4512 62.8637H31.7776C31.7779 62.2512 31.6576 61.6445 31.4236 61.0785C31.1895 60.5124 30.8462 59.9979 30.4133 59.5645C29.9804 59.1311 29.4664 58.7872 28.9006 58.5524C28.3348 58.3177 27.7284 58.1967 27.1158 58.1963Z" fill="#FCE054"/>
<path d="M22.4511 62.8609L23.1163 62.1929L18.7871 58.8643V62.8609H22.4511Z" fill="#FCE054"/>
<path d="M86.5102 15.109C86.1448 15.109 85.7876 15.0006 85.4837 14.7976C85.1799 14.5946 84.9431 14.306 84.8032 13.9684C84.6634 13.6308 84.6268 13.2593 84.6981 12.9009C84.7694 12.5425 84.9454 12.2133 85.2038 11.9549C85.4622 11.6965 85.7914 11.5205 86.1498 11.4492C86.5082 11.3779 86.8797 11.4145 87.2173 11.5544C87.5549 11.6942 87.8435 11.931 88.0465 12.2349C88.2495 12.5387 88.3579 12.8959 88.3579 13.2614C88.3572 13.7511 88.1622 14.2207 87.8159 14.567C87.4696 14.9133 87 15.1083 86.5102 15.109ZM86.5102 12.2665C86.3135 12.2665 86.1211 12.3248 85.9575 12.4341C85.7939 12.5434 85.6664 12.6988 85.5911 12.8806C85.5158 13.0624 85.4961 13.2625 85.5345 13.4554C85.5729 13.6484 85.6676 13.8257 85.8068 13.9648C85.9459 14.104 86.1232 14.1987 86.3162 14.2371C86.5091 14.2755 86.7092 14.2558 86.891 14.1805C87.0728 14.1052 87.2282 13.9777 87.3375 13.8141C87.4468 13.6505 87.5051 13.4581 87.5051 13.2614C87.5051 12.9975 87.4003 12.7444 87.2137 12.5579C87.0272 12.3713 86.7741 12.2665 86.5102 12.2665Z" fill="#FCCE54"/>
<path d="M84.5205 7.43412C83.8177 7.43412 83.1307 7.22573 82.5464 6.83531C81.9621 6.44488 81.5067 5.88995 81.2378 5.24069C80.9688 4.59144 80.8985 3.87701 81.0356 3.18776C81.1727 2.49851 81.5111 1.8654 82.008 1.36847C82.5049 0.871554 83.138 0.533135 83.8273 0.396035C84.5165 0.258935 85.231 0.329295 85.8802 0.598226C86.5295 0.867158 87.0844 1.32258 87.4748 1.9069C87.8653 2.49122 88.0736 3.17819 88.0736 3.88094C88.0721 4.82284 87.6973 5.72574 87.0313 6.39176C86.3653 7.05779 85.4624 7.43262 84.5205 7.43412ZM84.5205 1.18053C83.9864 1.18053 83.4643 1.3389 83.0202 1.63562C82.5761 1.93235 82.23 2.3541 82.0256 2.84754C81.8212 3.34097 81.7677 3.88393 81.8719 4.40776C81.9761 4.93159 82.2333 5.41277 82.611 5.79043C82.9886 6.16809 83.4698 6.42527 83.9936 6.52947C84.5175 6.63366 85.0604 6.58019 85.5539 6.3758C86.0473 6.17142 86.4691 5.82529 86.7658 5.38121C87.0625 4.93713 87.2209 4.41504 87.2209 3.88094C87.2201 3.16498 86.9354 2.47855 86.4291 1.97229C85.9229 1.46603 85.2364 1.18128 84.5205 1.18053Z" fill="#FCCE54"/>
<path d="M154.689 45.6192L153.964 46.0688L159.036 54.2423L159.761 53.7927L154.689 45.6192Z" fill="#07ACEE"/>
<path d="M42.1391 153.728L41.9048 154.548L49.8636 156.822L50.098 156.002L42.1391 153.728Z" fill="#07ACEE"/>
<path d="M130.118 44.5294C130.093 44.5337 130.068 44.5337 130.044 44.5294C129.982 44.5127 129.927 44.4755 129.889 44.4239C129.851 44.3723 129.831 44.3093 129.834 44.2451L129.717 29.1143C129.671 29.064 129.645 28.9979 129.646 28.9295V6.43928C129.646 6.36389 129.676 6.2916 129.729 6.23829C129.783 6.18498 129.855 6.15503 129.93 6.15503H172.19C172.266 6.15503 172.338 6.18498 172.391 6.23829C172.445 6.2916 172.475 6.36389 172.475 6.43928V28.9295C172.475 29.0049 172.445 29.0772 172.391 29.1305C172.338 29.1838 172.266 29.2137 172.19 29.2137H139.532L130.362 44.3872C130.338 44.4302 130.302 44.4659 130.259 44.4908C130.216 44.5158 130.167 44.5291 130.118 44.5294ZM130.209 28.7447C130.252 28.7955 130.276 28.8599 130.277 28.9266L130.394 43.2389L139.129 28.7817C139.154 28.7398 139.19 28.7052 139.233 28.6813C139.276 28.6574 139.324 28.6449 139.373 28.6452H171.906V6.72354H130.209V28.7447Z" fill="black"/>
<path d="M138.165 21.6923V12.1471H139.51L142.568 16.9794C143.205 17.9743 143.774 19.0103 144.274 20.0806L144.302 20.0664C144.188 18.7901 144.16 17.6304 144.16 16.1437V12.1641H145.323V21.7094H144.075L141.045 16.8771C140.387 15.8513 139.791 14.7872 139.259 13.6906L139.22 13.7048C139.288 14.9072 139.316 16.0556 139.316 17.6417V21.7208L138.165 21.6923Z" fill="#07ACEE"/>
<path d="M152.423 17.2153H148.728V20.6577H152.864V21.6923H147.483V12.1471H152.636V13.1789H148.714V16.1977H152.409L152.423 17.2153Z" fill="#07ACEE"/>
<path d="M156.133 21.6923L153.711 12.1471H155.016L156.153 16.9794C156.437 18.1676 156.693 19.3586 156.86 20.2768H156.889C157.045 19.3302 157.344 18.196 157.668 16.9652L158.944 12.1499H160.232L161.394 16.9823C161.662 18.1193 161.917 19.2563 162.06 20.254H162.088C162.287 19.2051 162.554 18.142 162.853 16.9538L164.112 12.1471H165.374L162.668 21.6923H161.38L160.175 16.7207C159.911 15.6906 159.703 14.6468 159.552 13.5939H159.524C159.335 14.6488 159.09 15.6926 158.788 16.7207L157.429 21.6923H156.133Z" fill="#07ACEE"/>
<path d="M126.164 51.4937C126.089 51.4937 126.016 51.4637 125.963 51.4104C125.91 51.3571 125.88 51.2848 125.88 51.2094V27.6163C125.88 27.5409 125.91 27.4686 125.963 27.4153C126.016 27.362 126.089 27.332 126.164 27.332C126.24 27.332 126.312 27.362 126.365 27.4153C126.418 27.4686 126.448 27.5409 126.448 27.6163V51.2094C126.448 51.2848 126.418 51.3571 126.365 51.4104C126.312 51.4637 126.24 51.4937 126.164 51.4937Z" fill="black"/>
</svg>
