<svg width="18" height="18" viewBox="0 0 18 18" fill="none" xmlns="http://www.w3.org/2000/svg">
<g clip-path="url(#clip0_24_550)">
<path d="M15.3641 2.63588C11.8496 -0.878628 6.1504 -0.878628 2.63588 2.63588C-0.878628 6.1504 -0.878628 11.8496 2.63588 15.3641C6.1504 18.8786 11.8496 18.8786 15.3641 15.3641C18.8786 11.8496 18.8786 6.1504 15.3641 2.63588ZM12.9325 9.55092L10.1208 11.1657L7.36623 12.7615C7.27124 12.8375 7.13826 12.8755 7.00528 12.8755C6.64433 12.8755 6.35937 12.5905 6.35937 12.2296V9V5.75145C6.35937 5.63747 6.37836 5.54248 6.43536 5.4285C6.60633 5.12454 7.00528 5.01055 7.30923 5.20053L10.0828 6.79631C10.1018 6.79631 10.1018 6.8153 10.1208 6.8153L12.9325 8.43008C13.0274 8.48707 13.1034 8.56306 13.1794 8.65805C13.3504 8.981 13.2364 9.37995 12.9325 9.55092Z" fill="#3E97FF"/>
</g>
<defs>
<clipPath id="clip0_24_550">
<rect width="18" height="18" fill="white"/>
</clipPath>
</defs>
</svg>
