<svg width="18" height="20" viewBox="0 0 18 20" fill="none" xmlns="http://www.w3.org/2000/svg">
<g opacity="0.3">
<path d="M14.1791 10.9166H3.8208L6.24997 6.70909V2.66659C6.00685 2.66659 5.7737 2.57001 5.60179 2.3981C5.42988 2.22619 5.3333 1.99303 5.3333 1.74992C5.3333 1.5068 5.42988 1.27365 5.60179 1.10174C5.7737 0.929829 6.00685 0.833252 6.24997 0.833252H11.75C11.9931 0.833252 12.2262 0.929829 12.3981 1.10174C12.5701 1.27365 12.6666 1.5068 12.6666 1.74992C12.6666 1.99303 12.5701 2.22619 12.3981 2.3981C12.2262 2.57001 11.9931 2.66659 11.75 2.66659V6.70909L14.1791 10.9166Z" fill="#3E97FF"/>
</g>
<path d="M15.1875 19.1665H2.81252C2.43593 19.1578 2.06809 19.0513 1.74509 18.8574C1.42209 18.6636 1.15504 18.3891 0.970144 18.0609C0.785249 17.7328 0.688864 17.3621 0.690449 16.9854C0.692034 16.6088 0.791535 16.239 0.979187 15.9123L3.82085 10.9165H14.1792L17.0667 15.9123C17.2561 16.2423 17.3556 16.6163 17.3551 16.9967C17.3546 17.3772 17.2542 17.7509 17.064 18.0804C16.8737 18.4099 16.6002 18.6837 16.2709 18.8743C15.9416 19.0649 15.568 19.1656 15.1875 19.1665V19.1665Z" fill="#3E97FF"/>
</svg>
