<svg width="28" height="29" viewBox="0 0 28 29" fill="none" xmlns="http://www.w3.org/2000/svg">
<path opacity="0.3" d="M26.4383 28.8792H1.56168C1.27988 28.8792 1.00963 28.7672 0.810375 28.568C0.611118 28.3687 0.499176 28.0984 0.499176 27.8167C0.499176 27.5349 0.611118 27.2646 0.810375 27.0653C1.00963 26.8661 1.27988 26.7542 1.56168 26.7542H26.4383C26.7201 26.7542 26.9904 26.8661 27.1896 27.0653C27.3889 27.2646 27.5008 27.5349 27.5008 27.8167C27.5008 28.0984 27.3889 28.3687 27.1896 28.568C26.9904 28.7672 26.7201 28.8792 26.4383 28.8792Z" fill="#7E8299"/>
<g opacity="0.3">
<path d="M13.9858 6.26917H12.6258C11.7026 6.26917 10.9542 7.0176 10.9542 7.94083V22.9433C10.9542 23.8666 11.7026 24.615 12.6258 24.615H13.9858C14.9091 24.615 15.6575 23.8666 15.6575 22.9433V7.94083C15.6575 7.0176 14.9091 6.26917 13.9858 6.26917Z" fill="#7E8299"/>
</g>
<path d="M21.8908 0.12085H20.8708C19.8537 0.12085 19.0292 0.945392 19.0292 1.96252V22.7733C19.0292 23.7905 19.8537 24.615 20.8708 24.615H21.8908C22.908 24.615 23.7325 23.7905 23.7325 22.7733V1.96252C23.7325 0.945392 22.908 0.12085 21.8908 0.12085Z" fill="#7E8299"/>
<g opacity="0.3">
<path d="M5.98168 13.3242H4.62168C3.69844 13.3242 2.95001 14.0726 2.95001 14.9958V22.9433C2.95001 23.8666 3.69844 24.615 4.62168 24.615H5.98168C6.90492 24.615 7.65335 23.8666 7.65335 22.9433V14.9958C7.65335 14.0726 6.90492 13.3242 5.98168 13.3242Z" fill="black"/>
</g>
</svg>
