<svg width="28" height="28" viewBox="0 0 28 28" fill="none" xmlns="http://www.w3.org/2000/svg">
<path opacity="0.3" d="M25.6667 14H20.1483C19.3868 13.9806 18.6369 13.8095 17.9423 13.4968C17.2477 13.184 16.6225 12.7359 16.1032 12.1786C15.5839 11.6213 15.181 10.966 14.918 10.2511C14.655 9.53615 14.5373 8.77596 14.5717 8.01499V2.33333H8.84333C7.0981 2.35793 5.43359 3.0725 4.21369 4.32081C2.99379 5.56913 2.31774 7.24966 2.33333 8.99499V19.005C2.31774 20.7503 2.99379 22.4309 4.21369 23.6792C5.43359 24.9275 7.0981 25.6421 8.84333 25.6667H19.1333C20.8817 25.6451 22.5504 24.9323 23.7746 23.684C24.9989 22.4356 25.6791 20.7534 25.6667 19.005V14Z" fill="#A1A5B7"/>
<path d="M18.6667 19.8917C18.6862 20.1097 18.6186 20.3265 18.4786 20.4949C18.3387 20.6632 18.1379 20.7693 17.92 20.79H9.18167C8.96498 20.7664 8.76595 20.6595 8.62663 20.4919C8.4873 20.3242 8.41859 20.109 8.43501 19.8917C8.41875 19.6756 8.48782 19.4617 8.6274 19.296C8.76699 19.1302 8.96597 19.0257 9.18167 19.005H17.885C17.9954 19.0093 18.1038 19.036 18.2036 19.0834C18.3034 19.1309 18.3926 19.1981 18.4657 19.281C18.5387 19.3639 18.5942 19.4607 18.6288 19.5657C18.6633 19.6707 18.6762 19.7816 18.6667 19.8917ZM16.3333 2.33333V7.93333C16.297 8.46361 16.3682 8.99577 16.5427 9.49783C16.7172 9.9999 16.9914 10.4615 17.3489 10.8549C17.7063 11.2483 18.1396 11.5654 18.6227 11.7871C19.1058 12.0088 19.6287 12.1305 20.16 12.145H25.6667L16.3333 2.33333ZM9.42667 15.995H13.1133C13.3485 15.995 13.574 15.9016 13.7403 15.7353C13.9066 15.569 14 15.3435 14 15.1083C14 14.8732 13.9066 14.6476 13.7403 14.4814C13.574 14.3151 13.3485 14.2217 13.1133 14.2217H9.42667C9.19151 14.2217 8.96599 14.3151 8.7997 14.4814C8.63342 14.6476 8.54001 14.8732 8.54001 15.1083C8.54001 15.3435 8.63342 15.569 8.7997 15.7353C8.96599 15.9016 9.19151 15.995 9.42667 15.995Z" fill="#A1A5B7"/>
</svg>
