<svg width="28" height="28" viewBox="0 0 28 28" fill="none" xmlns="http://www.w3.org/2000/svg">
<path d="M25.6667 12.2033H20.1717C19.6383 12.1905 19.1131 12.0695 18.6278 11.8478C18.1425 11.6261 17.7073 11.3081 17.3484 10.9133C16.9896 10.5185 16.7146 10.0549 16.5401 9.55073C16.3657 9.04653 16.2953 8.51217 16.3333 7.97999V2.33333L25.6667 12.2033Z" fill="#A1A5B7"/>
<path opacity="0.3" d="M25.6667 14H20.1717C19.4101 13.9762 18.6609 13.8006 17.968 13.4837C17.2751 13.1667 16.6523 12.7147 16.1363 12.1541C15.6202 11.5935 15.2212 10.9356 14.9625 10.2188C14.7039 9.50209 14.5909 8.74096 14.63 7.97999V2.33333H8.93669C8.06951 2.3455 7.21321 2.52838 6.41671 2.87152C5.62021 3.21466 4.8991 3.71135 4.29457 4.33321C3.69005 4.95507 3.21394 5.68992 2.89345 6.4958C2.57295 7.30169 2.41435 8.16281 2.42669 9.02999V19.0633C2.41435 19.9305 2.57295 20.7916 2.89345 21.5975C3.21394 22.4034 3.69005 23.1383 4.29457 23.7601C4.8991 24.382 5.62021 24.8787 6.41671 25.2218C7.21321 25.5649 8.06951 25.7478 8.93669 25.76H19.1567C20.0239 25.7478 20.8802 25.5649 21.6767 25.2218C22.4732 24.8787 23.1943 24.382 23.7988 23.7601C24.4033 23.1383 24.8794 22.4034 25.1999 21.5975C25.5204 20.7916 25.679 19.9305 25.6667 19.0633V14Z" fill="#A1A5B7"/>
</svg>
