<svg width="28" height="28" viewBox="0 0 28 28" fill="none" xmlns="http://www.w3.org/2000/svg">
<g opacity="0.3">
<path d="M14 13.9067C17.1959 13.9067 19.7866 11.3159 19.7866 8.12C19.7866 4.92411 17.1959 2.33334 14 2.33334C10.8041 2.33334 8.21332 4.92411 8.21332 8.12C8.21332 11.3159 10.8041 13.9067 14 13.9067Z" fill="#A1A5B7"/>
</g>
<path d="M22.9833 25.6667C23.174 25.6775 23.3648 25.6471 23.5428 25.5776C23.7207 25.508 23.8815 25.401 24.0144 25.2637C24.1472 25.1264 24.2489 24.9622 24.3126 24.7821C24.3763 24.602 24.4004 24.4103 24.3833 24.22C23.6366 19.8333 19.2733 16.4617 14 16.4617C8.72665 16.4617 4.36331 19.8333 3.61664 24.22C3.59958 24.4103 3.6237 24.602 3.68737 24.7821C3.75103 24.9622 3.85275 25.1264 3.98559 25.2637C4.11843 25.401 4.27928 25.508 4.4572 25.5776C4.63512 25.6471 4.82593 25.6775 5.01665 25.6667H22.9833Z" fill="#A1A5B7"/>
</svg>
