<svg width="360" height="219" viewBox="0 0 360 219" fill="none" xmlns="http://www.w3.org/2000/svg">
<path d="M1.3109 12V10.7628L4.59322 7.5451C4.90714 7.2281 5.16874 6.9465 5.37802 6.70028C5.5873 6.45407 5.74426 6.21555 5.8489 5.98473C5.95354 5.75391 6.00586 5.50769 6.00586 5.24609C6.00586 4.94756 5.93815 4.69212 5.80273 4.47976C5.66732 4.26432 5.48112 4.09813 5.24414 3.98118C5.00716 3.86423 4.73787 3.80575 4.43626 3.80575C4.12541 3.80575 3.85304 3.87038 3.61914 3.99964C3.38524 4.12583 3.20366 4.30587 3.0744 4.53977C2.94821 4.77367 2.88512 5.0522 2.88512 5.37536H1.2555C1.2555 4.77521 1.39246 4.25355 1.66637 3.81037C1.94028 3.36719 2.31729 3.02403 2.79741 2.78089C3.2806 2.53776 3.83458 2.41619 4.45934 2.41619C5.09334 2.41619 5.65039 2.53468 6.1305 2.77166C6.61062 3.00864 6.98301 3.33333 7.24769 3.74574C7.51545 4.15814 7.64933 4.62902 7.64933 5.15838C7.64933 5.51231 7.58162 5.86009 7.4462 6.2017C7.31078 6.54332 7.07227 6.92187 6.73065 7.33736C6.3921 7.75284 5.91661 8.25604 5.30416 8.84695L3.67454 10.5043V10.5689H7.79244V12H1.3109ZM9.01119 10.2457V8.88388L13.0229 2.54545H14.1586V4.48438H13.4661L10.7654 8.76385V8.83771H16.3652V10.2457H9.01119ZM13.5215 12V9.83026L13.54 9.22088V2.54545H15.1557V12H13.5215Z" fill="#7E8299"/>
<path d="M3.51989 58V56.7628L6.8022 53.5451C7.11612 53.2281 7.37772 52.9465 7.587 52.7003C7.79628 52.4541 7.95324 52.2156 8.05788 51.9847C8.16252 51.7539 8.21484 51.5077 8.21484 51.2461C8.21484 50.9476 8.14714 50.6921 8.01172 50.4798C7.8763 50.2643 7.6901 50.0981 7.45312 49.9812C7.21615 49.8642 6.94685 49.8058 6.64524 49.8058C6.3344 49.8058 6.06203 49.8704 5.82812 49.9996C5.59422 50.1258 5.41264 50.3059 5.28338 50.5398C5.1572 50.7737 5.09411 51.0522 5.09411 51.3754H3.46449C3.46449 50.7752 3.60144 50.2536 3.87536 49.8104C4.14927 49.3672 4.52628 49.024 5.00639 48.7809C5.48958 48.5378 6.04356 48.4162 6.66832 48.4162C7.30232 48.4162 7.85938 48.5347 8.33949 48.7717C8.8196 49.0086 9.192 49.3333 9.45668 49.7457C9.72443 50.1581 9.85831 50.629 9.85831 51.1584C9.85831 51.5123 9.7906 51.8601 9.65519 52.2017C9.51977 52.5433 9.28125 52.9219 8.93963 53.3374C8.60109 53.7528 8.12559 54.256 7.51314 54.8469L5.88352 56.5043V56.5689H10.0014V58H3.51989ZM15.4396 48.5455V58H13.7269V50.212H13.6715L11.4602 51.6246V50.055L13.81 48.5455H15.4396Z" fill="#7E8299"/>
<path d="M7.80975 94.5455V104H6.09703V96.212H6.04164L3.83034 97.6246V96.055L6.18013 94.5455H7.80975ZM10.5566 104L14.5775 96.0412V95.9766H9.91025V94.5455H16.3502V96.0089L12.3339 104H10.5566Z" fill="#7E8299"/>
<path d="M6.78143 140.545V150H5.06871V142.212H5.01332L2.80202 143.625V142.055L5.15181 140.545H6.78143ZM9.01119 148.246V146.884L13.0229 140.545H14.1586V142.484H13.4661L10.7654 146.764V146.838H16.3652V148.246H9.01119ZM13.5215 150V147.83L13.54 147.221V140.545H15.1557V150H13.5215Z" fill="#7E8299"/>
<path d="M6.76873 186.545V196H5.05602V188.212H5.00062L2.78933 189.625V188.055L5.13912 186.545H6.76873ZM12.664 196.18C11.9038 196.18 11.2513 195.988 10.7066 195.603C10.1649 195.215 9.7479 194.657 9.45552 193.927C9.16622 193.195 9.02157 192.313 9.02157 191.282C9.02465 190.251 9.17084 189.374 9.46014 188.651C9.75252 187.924 10.1695 187.37 10.7112 186.989C11.2559 186.607 11.9069 186.416 12.664 186.416C13.4211 186.416 14.072 186.607 14.6167 186.989C15.1615 187.37 15.5785 187.924 15.8678 188.651C16.1602 189.377 16.3064 190.254 16.3064 191.282C16.3064 192.316 16.1602 193.199 15.8678 193.932C15.5785 194.661 15.1615 195.218 14.6167 195.603C14.0751 195.988 13.4242 196.18 12.664 196.18ZM12.664 194.735C13.2549 194.735 13.7211 194.444 14.0628 193.863C14.4075 193.278 14.5798 192.418 14.5798 191.282C14.5798 190.531 14.5013 189.9 14.3444 189.389C14.1874 188.878 13.9658 188.494 13.6796 188.235C13.3934 187.973 13.0548 187.843 12.664 187.843C12.0761 187.843 11.6114 188.135 11.2698 188.72C10.9282 189.301 10.7558 190.156 10.7528 191.282C10.7497 192.036 10.8251 192.67 10.979 193.184C11.1359 193.698 11.3575 194.086 11.6437 194.347C11.93 194.606 12.27 194.735 12.664 194.735Z" fill="#7E8299"/>
<line x1="27.5" y1="9.5" x2="353.5" y2="9.5" stroke="#E1E3EA" stroke-linecap="square" stroke-dasharray="2 3"/>
<line x1="27.5" y1="55.25" x2="353.5" y2="55.25" stroke="#E1E3EA" stroke-linecap="square" stroke-dasharray="2 3"/>
<line x1="27.5" y1="101" x2="353.5" y2="101" stroke="#E1E3EA" stroke-linecap="square" stroke-dasharray="2 3"/>
<line x1="27.5" y1="146.75" x2="353.5" y2="146.75" stroke="#E1E3EA" stroke-linecap="square" stroke-dasharray="2 3"/>
<line x1="27.5" y1="192.5" x2="353.5" y2="192.5" stroke="#E1E3EA" stroke-linecap="square" stroke-dasharray="2 3"/>
<path d="M59.384 216H57.5558L60.8843 206.545H62.9987L66.3318 216H64.5036L61.9784 208.484H61.9046L59.384 216ZM59.444 212.293H64.4298V213.669H59.444V212.293ZM67.5032 216V208.909H73.4908V216H71.8796V210.28H69.1005V216H67.5032ZM75.2093 218.659V208.909H76.8527V210.082H76.9497C77.0358 209.909 77.1574 209.726 77.3144 209.532C77.4713 209.335 77.6837 209.168 77.9514 209.029C78.2192 208.888 78.5608 208.817 78.9763 208.817C79.5241 208.817 80.0181 208.957 80.4582 209.237C80.9014 209.514 81.2522 209.925 81.5107 210.469C81.7723 211.011 81.9031 211.676 81.9031 212.464C81.9031 213.242 81.7754 213.904 81.52 214.449C81.2645 214.994 80.9168 215.409 80.4767 215.695C80.0365 215.982 79.538 216.125 78.9809 216.125C78.5747 216.125 78.2377 216.057 77.9699 215.922C77.7021 215.786 77.4867 215.623 77.3236 215.432C77.1636 215.238 77.0389 215.055 76.9497 214.883H76.8804V218.659H75.2093ZM76.8481 212.455C76.8481 212.913 76.9127 213.315 77.042 213.659C77.1743 214.004 77.3636 214.273 77.6098 214.467C77.8591 214.658 78.1607 214.754 78.5146 214.754C78.884 214.754 79.1933 214.655 79.4426 214.458C79.6919 214.258 79.8796 213.986 80.0058 213.641C80.135 213.293 80.1997 212.898 80.1997 212.455C80.1997 212.014 80.1366 211.624 80.0104 211.282C79.8842 210.94 79.6965 210.673 79.4472 210.479C79.1979 210.285 78.887 210.188 78.5146 210.188C78.1576 210.188 77.8545 210.282 77.6052 210.469C77.3559 210.657 77.1666 210.92 77.0374 211.259C76.9112 211.597 76.8481 211.996 76.8481 212.455ZM90.0351 216.18C89.2749 216.18 88.6224 215.988 88.0777 215.603C87.536 215.215 87.119 214.657 86.8266 213.927C86.5373 213.195 86.3927 212.313 86.3927 211.282C86.3957 210.251 86.5419 209.374 86.8312 208.651C87.1236 207.924 87.5406 207.37 88.0823 206.989C88.627 206.607 89.278 206.416 90.0351 206.416C90.7922 206.416 91.4431 206.607 91.9878 206.989C92.5326 207.37 92.9496 207.924 93.2389 208.651C93.5313 209.377 93.6775 210.254 93.6775 211.282C93.6775 212.316 93.5313 213.199 93.2389 213.932C92.9496 214.661 92.5326 215.218 91.9878 215.603C91.4462 215.988 90.7952 216.18 90.0351 216.18ZM90.0351 214.735C90.626 214.735 91.0922 214.444 91.4339 213.863C91.7786 213.278 91.9509 212.418 91.9509 211.282C91.9509 210.531 91.8724 209.9 91.7155 209.389C91.5585 208.878 91.3369 208.494 91.0507 208.235C90.7645 207.973 90.4259 207.843 90.0351 207.843C89.4472 207.843 88.9825 208.135 88.6409 208.72C88.2993 209.301 88.1269 210.156 88.1238 211.282C88.1208 212.036 88.1962 212.67 88.3501 213.184C88.507 213.698 88.7286 214.086 89.0148 214.347C89.301 214.606 89.6411 214.735 90.0351 214.735ZM98.5721 216.129C97.8858 216.129 97.2764 216.014 96.744 215.783C96.2146 215.552 95.7991 215.237 95.4975 214.837C95.199 214.433 95.0513 213.976 95.0543 213.466C95.0513 213.069 95.1374 212.704 95.3129 212.371C95.4883 212.039 95.7253 211.762 96.0238 211.54C96.3254 211.316 96.6609 211.173 97.0302 211.111V211.047C96.5439 210.939 96.15 210.691 95.8484 210.303C95.5498 209.912 95.4021 209.462 95.4052 208.951C95.4021 208.464 95.5375 208.03 95.8114 207.649C96.0853 207.267 96.4608 206.967 96.9379 206.749C97.4149 206.527 97.9596 206.416 98.5721 206.416C99.1784 206.416 99.7185 206.527 100.192 206.749C100.67 206.967 101.045 207.267 101.319 207.649C101.596 208.03 101.734 208.464 101.734 208.951C101.734 209.462 101.582 209.912 101.277 210.303C100.976 210.691 100.586 210.939 100.109 211.047V211.111C100.479 211.173 100.811 211.316 101.107 211.54C101.405 211.762 101.642 212.039 101.817 212.371C101.996 212.704 102.085 213.069 102.085 213.466C102.085 213.976 101.934 214.433 101.633 214.837C101.331 215.237 100.916 215.552 100.386 215.783C99.8601 216.014 99.2553 216.129 98.5721 216.129ZM98.5721 214.809C98.926 214.809 99.2338 214.749 99.4954 214.629C99.757 214.506 99.9601 214.333 100.105 214.112C100.249 213.89 100.323 213.635 100.326 213.346C100.323 213.044 100.245 212.778 100.091 212.547C99.9401 212.313 99.7324 212.13 99.4677 211.998C99.2061 211.865 98.9076 211.799 98.5721 211.799C98.2335 211.799 97.9319 211.865 97.6673 211.998C97.4026 212.13 97.1933 212.313 97.0394 212.547C96.8886 212.778 96.8147 213.044 96.8178 213.346C96.8147 213.635 96.8855 213.89 97.0302 214.112C97.1748 214.33 97.378 214.501 97.6396 214.624C97.9042 214.747 98.2151 214.809 98.5721 214.809ZM98.5721 210.502C98.8614 210.502 99.1168 210.443 99.3384 210.326C99.5631 210.209 99.7401 210.046 99.8693 209.837C99.9986 209.628 100.065 209.386 100.068 209.112C100.065 208.841 100 208.604 99.8739 208.401C99.7478 208.195 99.5723 208.037 99.3477 207.926C99.123 207.812 98.8645 207.755 98.5721 207.755C98.2736 207.755 98.0104 207.812 97.7827 207.926C97.558 208.037 97.3826 208.195 97.2564 208.401C97.1333 208.604 97.0733 208.841 97.0763 209.112C97.0733 209.386 97.1348 209.628 97.261 209.837C97.3903 210.043 97.5672 210.206 97.7919 210.326C98.0196 210.443 98.2797 210.502 98.5721 210.502Z" fill="#7E8299"/>
<path d="M117.169 216H115.341L118.669 206.545H120.784L124.117 216H122.289L119.764 208.484H119.69L117.169 216ZM117.229 212.293H122.215V213.669H117.229V212.293ZM125.288 216V208.909H131.276V216H129.665V210.28H126.886V216H125.288ZM132.994 218.659V208.909H134.638V210.082H134.735C134.821 209.909 134.943 209.726 135.1 209.532C135.256 209.335 135.469 209.168 135.737 209.029C136.004 208.888 136.346 208.817 136.761 208.817C137.309 208.817 137.803 208.957 138.243 209.237C138.687 209.514 139.037 209.925 139.296 210.469C139.557 211.011 139.688 211.676 139.688 212.464C139.688 213.242 139.561 213.904 139.305 214.449C139.05 214.994 138.702 215.409 138.262 215.695C137.822 215.982 137.323 216.125 136.766 216.125C136.36 216.125 136.023 216.057 135.755 215.922C135.487 215.786 135.272 215.623 135.109 215.432C134.949 215.238 134.824 215.055 134.735 214.883H134.666V218.659H132.994ZM134.633 212.455C134.633 212.913 134.698 213.315 134.827 213.659C134.959 214.004 135.149 214.273 135.395 214.467C135.644 214.658 135.946 214.754 136.3 214.754C136.669 214.754 136.978 214.655 137.228 214.458C137.477 214.258 137.665 213.986 137.791 213.641C137.92 213.293 137.985 212.898 137.985 212.455C137.985 212.014 137.922 211.624 137.796 211.282C137.669 210.94 137.482 210.673 137.232 210.479C136.983 210.285 136.672 210.188 136.3 210.188C135.943 210.188 135.64 210.282 135.39 210.469C135.141 210.657 134.952 210.92 134.823 211.259C134.696 211.597 134.633 211.996 134.633 212.455ZM148.171 206.545V216H146.458V208.212H146.403L144.192 209.625V208.055L146.541 206.545H148.171ZM154.417 206.545V216H152.704V208.212H152.649L150.438 209.625V208.055L152.788 206.545H154.417Z" fill="#7E8299"/>
<path d="M170.463 216H168.635L171.963 206.545H174.078L177.411 216H175.583L173.058 208.484H172.984L170.463 216ZM170.523 212.293H175.509V213.669H170.523V212.293ZM178.582 216V208.909H184.57V216H182.959V210.28H180.18V216H178.582ZM186.288 218.659V208.909H187.932V210.082H188.029C188.115 209.909 188.237 209.726 188.393 209.532C188.55 209.335 188.763 209.168 189.031 209.029C189.298 208.888 189.64 208.817 190.055 208.817C190.603 208.817 191.097 208.957 191.537 209.237C191.98 209.514 192.331 209.925 192.59 210.469C192.851 211.011 192.982 211.676 192.982 212.464C192.982 213.242 192.855 213.904 192.599 214.449C192.344 214.994 191.996 215.409 191.556 215.695C191.116 215.982 190.617 216.125 190.06 216.125C189.654 216.125 189.317 216.057 189.049 215.922C188.781 215.786 188.566 215.623 188.403 215.432C188.243 215.238 188.118 215.055 188.029 214.883H187.96V218.659H186.288ZM187.927 212.455C187.927 212.913 187.992 213.315 188.121 213.659C188.253 214.004 188.443 214.273 188.689 214.467C188.938 214.658 189.24 214.754 189.594 214.754C189.963 214.754 190.272 214.655 190.522 214.458C190.771 214.258 190.959 213.986 191.085 213.641C191.214 213.293 191.279 212.898 191.279 212.455C191.279 212.014 191.216 211.624 191.089 211.282C190.963 210.94 190.776 210.673 190.526 210.479C190.277 210.285 189.966 210.188 189.594 210.188C189.237 210.188 188.934 210.282 188.684 210.469C188.435 210.657 188.246 210.92 188.116 211.259C187.99 211.597 187.927 211.996 187.927 212.455ZM201.465 206.545V216H199.752V208.212H199.697L197.486 209.625V208.055L199.835 206.545H201.465ZM203.695 214.246V212.884L207.706 206.545H208.842V208.484H208.15L205.449 212.764V212.838H211.049V214.246H203.695ZM208.205 216V213.83L208.224 213.221V206.545H209.839V216H208.205Z" fill="#7E8299"/>
<path d="M226.577 216H224.749L228.078 206.545H230.192L233.525 216H231.697L229.172 208.484H229.098L226.577 216ZM226.637 212.293H231.623V213.669H226.637V212.293ZM234.697 216V208.909H240.684V216H239.073V210.28H236.294V216H234.697ZM242.403 218.659V208.909H244.046V210.082H244.143C244.229 209.909 244.351 209.726 244.508 209.532C244.665 209.335 244.877 209.168 245.145 209.029C245.413 208.888 245.754 208.817 246.17 208.817C246.717 208.817 247.211 208.957 247.652 209.237C248.095 209.514 248.446 209.925 248.704 210.469C248.966 211.011 249.097 211.676 249.097 212.464C249.097 213.242 248.969 213.904 248.713 214.449C248.458 214.994 248.11 215.409 247.67 215.695C247.23 215.982 246.731 216.125 246.174 216.125C245.768 216.125 245.431 216.057 245.163 215.922C244.896 215.786 244.68 215.623 244.517 215.432C244.357 215.238 244.232 215.055 244.143 214.883H244.074V218.659H242.403ZM244.041 212.455C244.041 212.913 244.106 213.315 244.235 213.659C244.368 214.004 244.557 214.273 244.803 214.467C245.052 214.658 245.354 214.754 245.708 214.754C246.077 214.754 246.387 214.655 246.636 214.458C246.885 214.258 247.073 213.986 247.199 213.641C247.328 213.293 247.393 212.898 247.393 212.455C247.393 212.014 247.33 211.624 247.204 211.282C247.078 210.94 246.89 210.673 246.641 210.479C246.391 210.285 246.08 210.188 245.708 210.188C245.351 210.188 245.048 210.282 244.799 210.469C244.549 210.657 244.36 210.92 244.231 211.259C244.105 211.597 244.041 211.996 244.041 212.455ZM257.579 206.545V216H255.867V208.212H255.811L253.6 209.625V208.055L255.95 206.545H257.579ZM263.442 216.129C262.99 216.126 262.548 216.048 262.117 215.894C261.686 215.737 261.299 215.483 260.954 215.132C260.609 214.778 260.335 214.309 260.132 213.724C259.929 213.136 259.829 212.408 259.832 211.54C259.832 210.731 259.918 210.009 260.091 209.375C260.263 208.741 260.511 208.206 260.834 207.769C261.157 207.329 261.546 206.993 262.002 206.762C262.46 206.532 262.973 206.416 263.539 206.416C264.133 206.416 264.659 206.533 265.118 206.767C265.58 207.001 265.952 207.321 266.235 207.727C266.518 208.13 266.694 208.586 266.761 209.094H265.076C264.99 208.731 264.813 208.441 264.546 208.226C264.281 208.007 263.945 207.898 263.539 207.898C262.884 207.898 262.379 208.183 262.025 208.752C261.674 209.321 261.497 210.103 261.494 211.097H261.559C261.709 210.826 261.905 210.594 262.145 210.4C262.385 210.206 262.656 210.057 262.957 209.952C263.262 209.845 263.584 209.791 263.922 209.791C264.476 209.791 264.973 209.923 265.413 210.188C265.857 210.453 266.207 210.817 266.466 211.282C266.725 211.744 266.852 212.273 266.849 212.87C266.852 213.492 266.711 214.05 266.424 214.546C266.138 215.038 265.74 215.426 265.229 215.709C264.718 215.992 264.122 216.132 263.442 216.129ZM263.433 214.744C263.768 214.744 264.069 214.663 264.333 214.5C264.598 214.337 264.807 214.116 264.961 213.839C265.115 213.562 265.19 213.252 265.187 212.907C265.19 212.568 265.116 212.262 264.966 211.988C264.818 211.714 264.613 211.497 264.352 211.337C264.09 211.177 263.792 211.097 263.456 211.097C263.207 211.097 262.974 211.145 262.759 211.24C262.544 211.336 262.356 211.468 262.196 211.637C262.036 211.804 261.91 211.998 261.817 212.219C261.728 212.438 261.682 212.672 261.679 212.921C261.682 213.25 261.759 213.553 261.91 213.83C262.06 214.107 262.268 214.329 262.533 214.495C262.797 214.661 263.098 214.744 263.433 214.744Z" fill="#7E8299"/>
<path d="M282.596 216H280.768L284.097 206.545H286.211L289.544 216H287.716L285.191 208.484H285.117L282.596 216ZM282.656 212.293H287.642V213.669H282.656V212.293ZM290.716 216V208.909H296.703V216H295.092V210.28H292.313V216H290.716ZM298.422 218.659V208.909H300.065V210.082H300.162C300.248 209.909 300.37 209.726 300.527 209.532C300.684 209.335 300.896 209.168 301.164 209.029C301.432 208.888 301.773 208.817 302.189 208.817C302.737 208.817 303.23 208.957 303.671 209.237C304.114 209.514 304.465 209.925 304.723 210.469C304.985 211.011 305.116 211.676 305.116 212.464C305.116 213.242 304.988 213.904 304.732 214.449C304.477 214.994 304.129 215.409 303.689 215.695C303.249 215.982 302.75 216.125 302.193 216.125C301.787 216.125 301.45 216.057 301.182 215.922C300.915 215.786 300.699 215.623 300.536 215.432C300.376 215.238 300.251 215.055 300.162 214.883H300.093V218.659H298.422ZM300.061 212.455C300.061 212.913 300.125 213.315 300.254 213.659C300.387 214.004 300.576 214.273 300.822 214.467C301.072 214.658 301.373 214.754 301.727 214.754C302.096 214.754 302.406 214.655 302.655 214.458C302.904 214.258 303.092 213.986 303.218 213.641C303.347 213.293 303.412 212.898 303.412 212.455C303.412 212.014 303.349 211.624 303.223 211.282C303.097 210.94 302.909 210.673 302.66 210.479C302.41 210.285 302.099 210.188 301.727 210.188C301.37 210.188 301.067 210.282 300.818 210.469C300.568 210.657 300.379 210.92 300.25 211.259C300.124 211.597 300.061 211.996 300.061 212.455ZM313.598 206.545V216H311.886V208.212H311.83L309.619 209.625V208.055L311.969 206.545H313.598ZM319.36 216.129C318.673 216.129 318.064 216.014 317.532 215.783C317.002 215.552 316.587 215.237 316.285 214.837C315.987 214.433 315.839 213.976 315.842 213.466C315.839 213.069 315.925 212.704 316.1 212.371C316.276 212.039 316.513 211.762 316.811 211.54C317.113 211.316 317.448 211.173 317.818 211.111V211.047C317.332 210.939 316.938 210.691 316.636 210.303C316.337 209.912 316.19 209.462 316.193 208.951C316.19 208.464 316.325 208.03 316.599 207.649C316.873 207.267 317.248 206.967 317.725 206.749C318.202 206.527 318.747 206.416 319.36 206.416C319.966 206.416 320.506 206.527 320.98 206.749C321.457 206.967 321.833 207.267 322.106 207.649C322.383 208.03 322.522 208.464 322.522 208.951C322.522 209.462 322.37 209.912 322.065 210.303C321.763 210.691 321.374 210.939 320.897 211.047V211.111C321.266 211.173 321.599 211.316 321.894 211.54C322.193 211.762 322.43 212.039 322.605 212.371C322.784 212.704 322.873 213.069 322.873 213.466C322.873 213.976 322.722 214.433 322.42 214.837C322.119 215.237 321.703 215.552 321.174 215.783C320.648 216.014 320.043 216.129 319.36 216.129ZM319.36 214.809C319.714 214.809 320.021 214.749 320.283 214.629C320.545 214.506 320.748 214.333 320.892 214.112C321.037 213.89 321.111 213.635 321.114 213.346C321.111 213.044 321.032 212.778 320.879 212.547C320.728 212.313 320.52 212.13 320.255 211.998C319.994 211.865 319.695 211.799 319.36 211.799C319.021 211.799 318.72 211.865 318.455 211.998C318.19 212.13 317.981 212.313 317.827 212.547C317.676 212.778 317.602 213.044 317.605 213.346C317.602 213.635 317.673 213.89 317.818 214.112C317.962 214.33 318.166 214.501 318.427 214.624C318.692 214.747 319.003 214.809 319.36 214.809ZM319.36 210.502C319.649 210.502 319.904 210.443 320.126 210.326C320.351 210.209 320.528 210.046 320.657 209.837C320.786 209.628 320.852 209.386 320.855 209.112C320.852 208.841 320.788 208.604 320.662 208.401C320.535 208.195 320.36 208.037 320.135 207.926C319.911 207.812 319.652 207.755 319.36 207.755C319.061 207.755 318.798 207.812 318.57 207.926C318.346 208.037 318.17 208.195 318.044 208.401C317.921 208.604 317.861 208.841 317.864 209.112C317.861 209.386 317.922 209.628 318.049 209.837C318.178 210.043 318.355 210.206 318.58 210.326C318.807 210.443 319.067 210.502 319.36 210.502Z" fill="#7E8299"/>
<path d="M26.4402 86.8L41.7095 49.3355C42.6302 47.0767 44.8266 45.6 47.2658 45.6H62.0924C64.8286 45.6 67.2183 47.4512 67.902 50.1007L78.1729 89.8993C78.8566 92.5488 81.2463 94.4 83.9825 94.4H98.2488C100.96 94.4 103.334 96.2179 104.041 98.8351L112.559 130.365C113.266 132.982 115.641 134.8 118.352 134.8H132.213C135.133 134.8 137.629 132.698 138.125 129.82L151.799 50.5797C152.296 47.7022 154.792 45.6 157.712 45.6H172.375C174.691 45.6 176.801 46.9329 177.795 49.0246L184.615 63.3754C185.609 65.4671 187.718 66.8 190.034 66.8H205.739C208.439 66.8 210.807 64.996 211.524 62.3924L222.531 22.4076C223.247 19.804 225.615 18 228.315 18H242.031C244.363 18 246.483 19.3507 247.469 21.4637L257.111 42.1363C258.097 44.2493 260.217 45.6 262.549 45.6H294.48C297.169 45.6 299.53 47.3888 300.257 49.9775L313.19 96.0225C313.917 98.6112 316.278 100.4 318.967 100.4H335.606C337.737 100.4 339.709 101.531 340.785 103.371L354.72 127.2" stroke="#F1416C" stroke-width="2"/>
<path opacity="0.16" d="M41.7095 49.3355L26.8839 85.7112C26.5909 86.4302 26.4402 87.1791 26.4402 87.9555V178.4H354.72V128.826C354.72 127.761 354.437 126.716 353.899 125.797L340.785 103.371C339.709 101.531 337.737 100.4 335.606 100.4H318.967C316.278 100.4 313.917 98.6112 313.19 96.0225L300.257 49.9775C299.53 47.3888 297.169 45.6 294.48 45.6H262.549C260.217 45.6 258.097 44.2493 257.111 42.1363L247.469 21.4637C246.483 19.3507 244.363 18 242.031 18H228.315C225.615 18 223.247 19.804 222.531 22.4076L211.524 62.3924C210.807 64.996 208.439 66.8 205.739 66.8H190.034C187.718 66.8 185.609 65.4671 184.615 63.3754L177.795 49.0246C176.801 46.9329 174.691 45.6 172.375 45.6H157.712C154.792 45.6 152.296 47.7022 151.799 50.5797L138.125 129.82C137.629 132.698 135.133 134.8 132.213 134.8H118.352C115.641 134.8 113.266 132.982 112.559 130.365L104.041 98.8351C103.334 96.2179 100.96 94.4 98.2488 94.4H83.9825C81.2463 94.4 78.8566 92.5487 78.1729 89.8993L67.902 50.1007C67.2183 47.4512 64.8286 45.6 62.0924 45.6H47.2658C44.8266 45.6 42.6302 47.0767 41.7095 49.3355Z" fill="url(#paint0_linear_42_2906)"/>
<defs>
<linearGradient id="paint0_linear_42_2906" x1="26.4402" y1="26.4" x2="26.4402" y2="164.4" gradientUnits="userSpaceOnUse">
<stop stop-color="#EB507B"/>
<stop offset="1" stop-color="#3E97FF" stop-opacity="0"/>
</linearGradient>
</defs>
</svg>
