<svg width="152" height="152" viewBox="0 0 152 152" fill="none" xmlns="http://www.w3.org/2000/svg">
<mask id="path-1-inside-1_42_2881" fill="white">
<path d="M150.667 76.0003C150.667 117.882 117.088 151.834 75.6667 151.834C34.2454 151.834 0.666748 117.882 0.666748 76.0003C0.666748 34.1187 34.2454 0.166992 75.6667 0.166992C117.088 0.166992 150.667 34.1187 150.667 76.0003ZM30.6667 76.0003C30.6667 101.129 50.8139 121.5 75.6667 121.5C100.52 121.5 120.667 101.129 120.667 76.0003C120.667 50.8714 100.52 30.5003 75.6667 30.5003C50.8139 30.5003 30.6667 50.8714 30.6667 76.0003Z"/>
</mask>
<path d="M150.667 76.0003C150.667 117.882 117.088 151.834 75.6667 151.834C34.2454 151.834 0.666748 117.882 0.666748 76.0003C0.666748 34.1187 34.2454 0.166992 75.6667 0.166992C117.088 0.166992 150.667 34.1187 150.667 76.0003ZM30.6667 76.0003C30.6667 101.129 50.8139 121.5 75.6667 121.5C100.52 121.5 120.667 101.129 120.667 76.0003C120.667 50.8714 100.52 30.5003 75.6667 30.5003C50.8139 30.5003 30.6667 50.8714 30.6667 76.0003Z" stroke="#50CD89" stroke-width="40" mask="url(#path-1-inside-1_42_2881)"/>
<mask id="path-2-inside-2_42_2881" fill="white">
<path d="M77.9199 0.191372C65.9606 -0.169622 54.0886 2.33582 43.2951 7.49848C32.5015 12.6611 23.0998 20.3312 15.8749 29.8682L39.7877 47.9838C44.1227 42.2616 49.7637 37.6596 56.2398 34.562C62.7159 31.4644 69.8392 29.9611 77.0147 30.1777L77.9199 0.191372Z"/>
</mask>
<path d="M77.9199 0.191372C65.9606 -0.169622 54.0886 2.33582 43.2951 7.49848C32.5015 12.6611 23.0998 20.3312 15.8749 29.8682L39.7877 47.9838C44.1227 42.2616 49.7637 37.6596 56.2398 34.562C62.7159 31.4644 69.8392 29.9611 77.0147 30.1777L77.9199 0.191372Z" stroke="#F1416C" stroke-width="40" mask="url(#path-2-inside-2_42_2881)"/>
<path d="M85.3143 21.1414L85.6641 11.0572C92.4176 12.179 99.1665 14.162 104.559 16.8574C109.899 19.5261 114.831 22.9103 119.225 26.9046L111.328 33.2705C107.912 30.3375 104.139 27.8267 100.089 25.8023L95.6181 34.7473L100.089 25.8023C95.6836 23.6007 90.4133 22.074 85.3143 21.1414Z" stroke="#7239EA" stroke-width="20"/>
<mask id="path-4-inside-3_42_2881" fill="white">
<path d="M0.666748 76.0002C0.66675 59.0542 6.28037 42.5965 16.6119 29.2533L40.2338 47.952C34.0349 55.958 30.6667 65.8326 30.6667 76.0002H0.666748Z"/>
</mask>
<path d="M0.666748 76.0002C0.66675 59.0542 6.28037 42.5965 16.6119 29.2533L40.2338 47.952C34.0349 55.958 30.6667 65.8326 30.6667 76.0002H0.666748Z" stroke="#3E97FF" stroke-width="40" mask="url(#path-4-inside-3_42_2881)"/>
<path d="M95.8561 130.089C95.5429 130.087 95.2371 130.033 94.9388 129.926C94.6405 129.818 94.3721 129.642 94.1334 129.399C93.8948 129.154 93.7052 128.829 93.5645 128.424C93.4239 128.017 93.3547 127.513 93.3568 126.913C93.3568 126.352 93.4165 125.853 93.5358 125.414C93.6551 124.975 93.8266 124.604 94.0503 124.301C94.2741 123.997 94.5436 123.765 94.8589 123.605C95.1764 123.445 95.5312 123.365 95.9232 123.365C96.3344 123.365 96.6988 123.446 97.0163 123.608C97.3359 123.77 97.5937 123.991 97.7897 124.273C97.9857 124.552 98.1072 124.867 98.154 125.219H96.9875C96.9278 124.967 96.8053 124.767 96.6199 124.618C96.4367 124.467 96.2045 124.391 95.9232 124.391C95.4694 124.391 95.1199 124.588 94.8749 124.982C94.632 125.376 94.5095 125.918 94.5074 126.606H94.5521C94.6565 126.418 94.7918 126.257 94.958 126.123C95.1242 125.989 95.3117 125.886 95.5205 125.813C95.7315 125.739 95.9541 125.701 96.1885 125.701C96.572 125.701 96.9161 125.793 97.2208 125.976C97.5276 126.159 97.7705 126.412 97.9495 126.734C98.1285 127.053 98.2169 127.42 98.2148 127.833C98.2169 128.263 98.1189 128.65 97.9207 128.993C97.7226 129.334 97.4466 129.603 97.093 129.799C96.7393 129.995 96.327 130.092 95.8561 130.089ZM95.8497 129.131C96.0819 129.131 96.2897 129.074 96.4729 128.961C96.6562 128.848 96.8011 128.696 96.9076 128.504C97.0141 128.312 97.0663 128.097 97.0642 127.859C97.0663 127.624 97.0152 127.412 96.9108 127.223C96.8085 127.033 96.6668 126.883 96.4857 126.772C96.3046 126.661 96.0979 126.606 95.8657 126.606C95.6931 126.606 95.5322 126.639 95.3831 126.705C95.2339 126.771 95.104 126.863 94.9932 126.98C94.8824 127.095 94.795 127.229 94.7311 127.382C94.6693 127.534 94.6373 127.696 94.6352 127.868C94.6373 128.096 94.6906 128.306 94.795 128.498C94.8994 128.69 95.0432 128.843 95.2265 128.958C95.4097 129.073 95.6175 129.131 95.8497 129.131ZM101.374 130.089C100.914 130.089 100.505 130.011 100.147 129.853C99.791 129.695 99.5097 129.476 99.3031 129.195C99.0964 128.913 98.9867 128.588 98.9739 128.22H100.176C100.186 128.397 100.245 128.551 100.351 128.683C100.458 128.813 100.6 128.914 100.776 128.987C100.953 129.059 101.151 129.096 101.371 129.096C101.605 129.096 101.813 129.055 101.994 128.974C102.175 128.891 102.317 128.776 102.419 128.629C102.521 128.482 102.572 128.312 102.569 128.121C102.572 127.923 102.52 127.748 102.416 127.597C102.312 127.445 102.16 127.327 101.962 127.242C101.766 127.157 101.53 127.114 101.253 127.114H100.674V126.2H101.253C101.481 126.2 101.68 126.161 101.85 126.082C102.023 126.003 102.158 125.892 102.256 125.749C102.354 125.604 102.402 125.437 102.4 125.248C102.402 125.062 102.361 124.901 102.275 124.765C102.192 124.626 102.074 124.519 101.921 124.442C101.769 124.365 101.591 124.327 101.387 124.327C101.187 124.327 101.001 124.363 100.831 124.436C100.66 124.508 100.523 124.612 100.418 124.746C100.314 124.878 100.259 125.036 100.252 125.219H99.1113C99.1198 124.852 99.2253 124.531 99.4277 124.254C99.6323 123.974 99.905 123.757 100.246 123.602C100.587 123.444 100.969 123.365 101.393 123.365C101.83 123.365 102.209 123.447 102.531 123.611C102.855 123.773 103.105 123.991 103.282 124.266C103.459 124.541 103.547 124.845 103.547 125.177C103.55 125.546 103.441 125.855 103.221 126.104C103.004 126.353 102.719 126.516 102.365 126.593V126.644C102.825 126.708 103.178 126.879 103.423 127.156C103.67 127.43 103.792 127.772 103.79 128.181C103.79 128.548 103.686 128.876 103.477 129.166C103.27 129.453 102.985 129.679 102.621 129.843C102.258 130.007 101.843 130.089 101.374 130.089ZM105.149 130.07C104.956 130.07 104.789 130.002 104.651 129.866C104.512 129.729 104.444 129.563 104.446 129.367C104.444 129.175 104.512 129.011 104.651 128.875C104.789 128.739 104.956 128.67 105.149 128.67C105.337 128.67 105.5 128.739 105.638 128.875C105.779 129.011 105.85 129.175 105.853 129.367C105.85 129.497 105.816 129.615 105.75 129.722C105.686 129.828 105.601 129.914 105.495 129.978C105.39 130.039 105.275 130.07 105.149 130.07ZM108.961 130.089C108.535 130.089 108.153 130.01 107.817 129.85C107.48 129.688 107.213 129.466 107.014 129.185C106.818 128.904 106.714 128.582 106.701 128.22H107.852C107.873 128.488 107.989 128.708 108.2 128.878C108.411 129.047 108.665 129.131 108.961 129.131C109.193 129.131 109.4 129.077 109.581 128.971C109.762 128.864 109.905 128.716 110.009 128.527C110.113 128.337 110.165 128.121 110.162 127.878C110.165 127.631 110.112 127.411 110.006 127.219C109.899 127.028 109.753 126.877 109.568 126.769C109.383 126.658 109.17 126.603 108.929 126.603C108.733 126.6 108.54 126.637 108.35 126.711C108.161 126.786 108.01 126.884 107.9 127.005L106.829 126.83L107.171 123.455H110.968V124.445H108.152L107.964 126.181H108.002C108.123 126.038 108.295 125.92 108.517 125.826C108.738 125.73 108.981 125.682 109.245 125.682C109.642 125.682 109.995 125.776 110.306 125.963C110.617 126.149 110.862 126.404 111.041 126.73C111.22 127.056 111.31 127.429 111.31 127.849C111.31 128.282 111.21 128.667 111.009 129.006C110.811 129.343 110.535 129.608 110.182 129.802C109.83 129.994 109.423 130.089 108.961 130.089ZM115.61 128.773V128.428C115.61 128.174 115.663 127.941 115.77 127.728C115.879 127.515 116.036 127.343 116.243 127.213C116.45 127.083 116.7 127.018 116.994 127.018C117.297 127.018 117.55 127.083 117.755 127.213C117.959 127.341 118.114 127.511 118.218 127.724C118.325 127.938 118.378 128.172 118.378 128.428V128.773C118.378 129.026 118.325 129.26 118.218 129.473C118.112 129.686 117.955 129.857 117.748 129.987C117.544 130.117 117.292 130.182 116.994 130.182C116.696 130.182 116.443 130.117 116.237 129.987C116.03 129.857 115.873 129.686 115.767 129.473C115.662 129.26 115.61 129.026 115.61 128.773ZM116.444 128.428V128.773C116.444 128.941 116.485 129.096 116.566 129.236C116.647 129.377 116.79 129.447 116.994 129.447C117.201 129.447 117.342 129.378 117.419 129.239C117.498 129.099 117.537 128.943 117.537 128.773V128.428C117.537 128.257 117.5 128.102 117.426 127.961C117.351 127.818 117.207 127.747 116.994 127.747C116.794 127.747 116.652 127.818 116.569 127.961C116.486 128.102 116.444 128.257 116.444 128.428ZM112.283 125.027V124.682C112.283 124.426 112.337 124.192 112.446 123.979C112.555 123.766 112.712 123.595 112.919 123.467C113.126 123.337 113.376 123.272 113.67 123.272C113.971 123.272 114.223 123.337 114.428 123.467C114.634 123.595 114.79 123.766 114.894 123.979C114.999 124.192 115.051 124.426 115.051 124.682V125.027C115.051 125.283 114.998 125.517 114.891 125.73C114.787 125.941 114.631 126.11 114.424 126.238C114.218 126.366 113.966 126.43 113.67 126.43C113.37 126.43 113.116 126.366 112.91 126.238C112.705 126.11 112.549 125.94 112.443 125.727C112.336 125.514 112.283 125.281 112.283 125.027ZM113.124 124.682V125.027C113.124 125.197 113.163 125.353 113.242 125.494C113.323 125.632 113.466 125.701 113.67 125.701C113.875 125.701 114.015 125.632 114.092 125.494C114.171 125.353 114.21 125.197 114.21 125.027V124.682C114.21 124.511 114.173 124.356 114.098 124.215C114.024 124.072 113.881 124.001 113.67 124.001C113.468 124.001 113.326 124.072 113.245 124.215C113.164 124.358 113.124 124.513 113.124 124.682ZM112.647 130L117.147 123.455H117.946L113.446 130H112.647Z" fill="white"/>
<path d="M85.9168 14.4545V21H84.7311V15.6083H84.6927L83.1618 16.5863V15.4996L84.7886 14.4545H85.9168ZM87.3087 21V20.1435L89.5811 17.9158C89.7984 17.6964 89.9795 17.5014 90.1244 17.331C90.2693 17.1605 90.378 16.9954 90.4504 16.8356C90.5228 16.6758 90.5591 16.5053 90.5591 16.3242C90.5591 16.1175 90.5122 15.9407 90.4184 15.7937C90.3247 15.6445 90.1958 15.5295 90.0317 15.4485C89.8677 15.3675 89.6812 15.3271 89.4724 15.3271C89.2572 15.3271 89.0687 15.3718 88.9067 15.4613C88.7448 15.5487 88.6191 15.6733 88.5296 15.8352C88.4422 15.9972 88.3986 16.19 88.3986 16.4137H87.2704C87.2704 15.9982 87.3652 15.6371 87.5548 15.3303C87.7444 15.0234 88.0054 14.7859 88.3378 14.6175C88.6723 14.4492 89.0559 14.3651 89.4884 14.3651C89.9273 14.3651 90.313 14.4471 90.6454 14.6112C90.9777 14.7752 91.2356 15 91.4188 15.2855C91.6042 15.571 91.6968 15.897 91.6968 16.2635C91.6968 16.5085 91.65 16.7493 91.5562 16.9858C91.4625 17.2223 91.2973 17.4844 91.0608 17.772C90.8265 18.0597 90.4973 18.408 90.0733 18.8171L88.9451 19.9645V20.0092H91.7959V21H87.3087ZM93.354 21.0703C93.1602 21.0703 92.994 21.0021 92.8555 20.8658C92.717 20.7294 92.6488 20.5632 92.6509 20.3672C92.6488 20.1754 92.717 20.0114 92.8555 19.875C92.994 19.7386 93.1602 19.6705 93.354 19.6705C93.5415 19.6705 93.7045 19.7386 93.843 19.875C93.9837 20.0114 94.055 20.1754 94.0572 20.3672C94.055 20.4972 94.021 20.6154 93.9549 20.7219C93.891 20.8285 93.8058 20.9137 93.6992 20.9776C93.5948 21.0394 93.4798 21.0703 93.354 21.0703ZM97.1654 21.0895C96.7392 21.0895 96.3578 21.0096 96.0212 20.8498C95.6845 20.6879 95.4171 20.4663 95.219 20.185C95.023 19.9038 94.9186 19.582 94.9058 19.2198H96.0563C96.0777 19.4883 96.1938 19.7077 96.4047 19.8782C96.6157 20.0465 96.8692 20.1307 97.1654 20.1307C97.3976 20.1307 97.6043 20.0774 97.7854 19.9709C97.9665 19.8643 98.1093 19.7163 98.2137 19.5266C98.3181 19.337 98.3692 19.1207 98.3671 18.8778C98.3692 18.6307 98.317 18.4112 98.2105 18.2195C98.1039 18.0277 97.958 17.8775 97.7726 17.7688C97.5872 17.658 97.3742 17.6026 97.1334 17.6026C96.9374 17.6005 96.7446 17.6367 96.5549 17.7113C96.3653 17.7859 96.2151 17.8839 96.1043 18.0053L95.0336 17.8295L95.3756 14.4545H99.1725V15.4453H96.3568L96.1682 17.1808H96.2066C96.328 17.038 96.4995 16.9197 96.7211 16.826C96.9427 16.7301 97.1856 16.6822 97.4498 16.6822C97.8461 16.6822 98.1998 16.7759 98.5109 16.9634C98.822 17.1488 99.067 17.4045 99.246 17.7305C99.425 18.0565 99.5144 18.4293 99.5144 18.8491C99.5144 19.2816 99.4143 19.6673 99.214 20.006C99.0159 20.3427 98.7399 20.608 98.3862 20.8018C98.0347 20.9936 97.6277 21.0895 97.1654 21.0895ZM103.815 19.7727V19.4276C103.815 19.174 103.868 18.9407 103.975 18.7276C104.083 18.5146 104.241 18.343 104.448 18.2131C104.654 18.0831 104.905 18.0181 105.199 18.0181C105.501 18.0181 105.755 18.0831 105.959 18.2131C106.164 18.3409 106.318 18.5114 106.423 18.7244C106.529 18.9375 106.583 19.1719 106.583 19.4276V19.7727C106.583 20.0263 106.529 20.2596 106.423 20.4727C106.316 20.6857 106.16 20.8572 105.953 20.9872C105.748 21.1172 105.497 21.1822 105.199 21.1822C104.9 21.1822 104.648 21.1172 104.441 20.9872C104.235 20.8572 104.078 20.6857 103.971 20.4727C103.867 20.2596 103.815 20.0263 103.815 19.7727ZM104.649 19.4276V19.7727C104.649 19.9411 104.689 20.0955 104.77 20.2362C104.851 20.3768 104.994 20.4471 105.199 20.4471C105.405 20.4471 105.547 20.3778 105.624 20.2393C105.703 20.0987 105.742 19.9432 105.742 19.7727V19.4276C105.742 19.2571 105.705 19.1016 105.63 18.9609C105.556 18.8182 105.412 18.7468 105.199 18.7468C104.998 18.7468 104.857 18.8182 104.774 18.9609C104.69 19.1016 104.649 19.2571 104.649 19.4276ZM100.488 16.027V15.6818C100.488 15.4261 100.542 15.1918 100.651 14.9787C100.759 14.7656 100.917 14.5952 101.124 14.4673C101.33 14.3374 101.581 14.2724 101.875 14.2724C102.175 14.2724 102.428 14.3374 102.632 14.4673C102.839 14.5952 102.994 14.7656 103.099 14.9787C103.203 15.1918 103.255 15.4261 103.255 15.6818V16.027C103.255 16.2827 103.202 16.517 103.096 16.7301C102.991 16.9411 102.836 17.1104 102.629 17.2383C102.422 17.3661 102.171 17.43 101.875 17.43C101.574 17.43 101.321 17.3661 101.114 17.2383C100.91 17.1104 100.754 16.94 100.647 16.7269C100.541 16.5138 100.488 16.2805 100.488 16.027ZM101.328 15.6818V16.027C101.328 16.1974 101.368 16.353 101.447 16.4936C101.527 16.6321 101.67 16.7013 101.875 16.7013C102.079 16.7013 102.22 16.6321 102.297 16.4936C102.375 16.353 102.415 16.1974 102.415 16.027V15.6818C102.415 15.5114 102.378 15.3558 102.303 15.2152C102.228 15.0724 102.086 15.0011 101.875 15.0011C101.672 15.0011 101.531 15.0724 101.45 15.2152C101.369 15.358 101.328 15.5135 101.328 15.6818ZM100.852 21L105.352 14.4545H106.151L101.651 21H100.852Z" fill="white"/>
<path d="M41.9915 16.4545V23H40.8058V17.6083H40.7674L39.2365 18.5863V17.4996L40.8633 16.4545H41.9915ZM45.659 23.0895C45.2328 23.0895 44.8515 23.0096 44.5148 22.8498C44.1782 22.6879 43.9108 22.4663 43.7126 22.185C43.5166 21.9038 43.4122 21.582 43.3994 21.2198H44.55C44.5713 21.4883 44.6874 21.7077 44.8983 21.8782C45.1093 22.0465 45.3628 22.1307 45.659 22.1307C45.8912 22.1307 46.0979 22.0774 46.279 21.9709C46.4601 21.8643 46.6029 21.7163 46.7073 21.5266C46.8117 21.337 46.8628 21.1207 46.8607 20.8778C46.8628 20.6307 46.8106 20.4112 46.7041 20.2195C46.5975 20.0277 46.4516 19.8775 46.2662 19.7688C46.0809 19.658 45.8678 19.6026 45.627 19.6026C45.431 19.6005 45.2382 19.6367 45.0485 19.7113C44.8589 19.7859 44.7087 19.8839 44.5979 20.0053L43.5272 19.8295L43.8692 16.4545H47.6661V17.4453H44.8504L44.6618 19.1808H44.7002C44.8216 19.038 44.9931 18.9197 45.2147 18.826C45.4363 18.7301 45.6792 18.6822 45.9434 18.6822C46.3397 18.6822 46.6934 18.7759 47.0045 18.9634C47.3156 19.1488 47.5606 19.4045 47.7396 19.7305C47.9186 20.0565 48.0081 20.4293 48.0081 20.8491C48.0081 21.2816 47.9079 21.6673 47.7076 22.006C47.5095 22.3427 47.2336 22.608 46.8799 22.8018C46.5283 22.9936 46.1213 23.0895 45.659 23.0895ZM49.3145 23.0703C49.1206 23.0703 48.9544 23.0021 48.8159 22.8658C48.6774 22.7294 48.6092 22.5632 48.6114 22.3672C48.6092 22.1754 48.6774 22.0114 48.8159 21.875C48.9544 21.7386 49.1206 21.6705 49.3145 21.6705C49.502 21.6705 49.665 21.7386 49.8035 21.875C49.9441 22.0114 50.0155 22.1754 50.0176 22.3672C50.0155 22.4972 49.9814 22.6154 49.9153 22.7219C49.8514 22.8285 49.7662 22.9137 49.6597 22.9776C49.5553 23.0394 49.4402 23.0703 49.3145 23.0703ZM53.0715 23.0895C52.7583 23.0874 52.4525 23.033 52.1542 22.9265C51.8559 22.8178 51.5875 22.642 51.3488 22.3991C51.1102 22.1541 50.9206 21.8292 50.7799 21.4244C50.6393 21.0174 50.5701 20.5135 50.5722 19.9126C50.5722 19.3523 50.6319 18.8526 50.7512 18.4137C50.8705 17.9748 51.042 17.604 51.2657 17.3015C51.4895 16.9968 51.759 16.7646 52.0743 16.6048C52.3918 16.445 52.7466 16.3651 53.1386 16.3651C53.5498 16.3651 53.9142 16.446 54.2316 16.608C54.5512 16.7699 54.8091 16.9915 55.0051 17.2727C55.2011 17.5518 55.3226 17.8672 55.3694 18.2188H54.2029C54.1432 17.9673 54.0207 17.767 53.8353 17.6179C53.6521 17.4666 53.4199 17.391 53.1386 17.391C52.6848 17.391 52.3353 17.5881 52.0903 17.9822C51.8474 18.3764 51.7249 18.9176 51.7228 19.6058H51.7675C51.8719 19.4183 52.0072 19.2575 52.1734 19.1232C52.3396 18.989 52.5271 18.8857 52.7359 18.8132C52.9468 18.7386 53.1695 18.7013 53.4039 18.7013C53.7874 18.7013 54.1315 18.793 54.4362 18.9762C54.743 19.1594 54.9859 19.4119 55.1649 19.7337C55.3439 20.0533 55.4323 20.4197 55.4302 20.8331C55.4323 21.2635 55.3343 21.6502 55.1361 21.9933C54.938 22.3342 54.662 22.6026 54.3083 22.7987C53.9547 22.9947 53.5424 23.0916 53.0715 23.0895ZM53.0651 22.1307C53.2973 22.1307 53.5051 22.0742 53.6883 21.9613C53.8716 21.8484 54.0164 21.696 54.123 21.5043C54.2295 21.3125 54.2817 21.0973 54.2796 20.8587C54.2817 20.6243 54.2306 20.4123 54.1262 20.2227C54.0239 20.033 53.8822 19.8828 53.7011 19.772C53.52 19.6612 53.3133 19.6058 53.0811 19.6058C52.9085 19.6058 52.7476 19.6388 52.5985 19.7049C52.4493 19.771 52.3194 19.8626 52.2086 19.9798C52.0978 20.0948 52.0104 20.229 51.9465 20.3825C51.8847 20.5337 51.8527 20.6957 51.8506 20.8683C51.8527 21.0962 51.906 21.3061 52.0104 21.4979C52.1148 21.6896 52.2586 21.843 52.4419 21.9581C52.6251 22.0732 52.8328 22.1307 53.0651 22.1307ZM59.7401 21.7727V21.4276C59.7401 21.174 59.7933 20.9407 59.8999 20.7276C60.0085 20.5146 60.1662 20.343 60.3729 20.2131C60.5795 20.0831 60.8299 20.0181 61.1239 20.0181C61.4265 20.0181 61.68 20.0831 61.8846 20.2131C62.0891 20.3409 62.2436 20.5114 62.348 20.7244C62.4545 20.9375 62.5078 21.1719 62.5078 21.4276V21.7727C62.5078 22.0263 62.4545 22.2596 62.348 22.4727C62.2415 22.6857 62.0849 22.8572 61.8782 22.9872C61.6736 23.1172 61.4222 23.1822 61.1239 23.1822C60.8256 23.1822 60.5731 23.1172 60.3665 22.9872C60.1598 22.8572 60.0032 22.6857 59.8967 22.4727C59.7923 22.2596 59.7401 22.0263 59.7401 21.7727ZM60.5742 21.4276V21.7727C60.5742 21.9411 60.6147 22.0955 60.6957 22.2362C60.7766 22.3768 60.9194 22.4471 61.1239 22.4471C61.3306 22.4471 61.4723 22.3778 61.549 22.2393C61.6278 22.0987 61.6673 21.9432 61.6673 21.7727V21.4276C61.6673 21.2571 61.63 21.1016 61.5554 20.9609C61.4808 20.8182 61.337 20.7468 61.1239 20.7468C60.9236 20.7468 60.782 20.8182 60.6989 20.9609C60.6158 21.1016 60.5742 21.2571 60.5742 21.4276ZM56.413 18.027V17.6818C56.413 17.4261 56.4673 17.1918 56.576 16.9787C56.6847 16.7656 56.8423 16.5952 57.049 16.4673C57.2557 16.3374 57.506 16.2724 57.8001 16.2724C58.1005 16.2724 58.353 16.3374 58.5575 16.4673C58.7642 16.5952 58.9197 16.7656 59.0241 16.9787C59.1285 17.1918 59.1807 17.4261 59.1807 17.6818V18.027C59.1807 18.2827 59.1275 18.517 59.0209 18.7301C58.9165 18.9411 58.761 19.1104 58.5543 19.2383C58.3477 19.3661 58.0962 19.43 57.8001 19.43C57.4996 19.43 57.2461 19.3661 57.0394 19.2383C56.8349 19.1104 56.6793 18.94 56.5728 18.7269C56.4663 18.5138 56.413 18.2805 56.413 18.027ZM57.2535 17.6818V18.027C57.2535 18.1974 57.293 18.353 57.3718 18.4936C57.4528 18.6321 57.5955 18.7013 57.8001 18.7013C58.0046 18.7013 58.1452 18.6321 58.2219 18.4936C58.3008 18.353 58.3402 18.1974 58.3402 18.027V17.6818C58.3402 17.5114 58.3029 17.3558 58.2283 17.2152C58.1538 17.0724 58.011 17.0011 57.8001 17.0011C57.5977 17.0011 57.456 17.0724 57.375 17.2152C57.294 17.358 57.2535 17.5135 57.2535 17.6818ZM56.7773 23L61.2773 16.4545H62.0763L57.5763 23H56.7773Z" fill="white"/>
<path d="M12.3694 47.3651C12.6826 47.3672 12.9873 47.4226 13.2835 47.5312C13.5818 47.6378 13.8502 47.8125 14.0889 48.0554C14.3275 48.2962 14.5171 48.619 14.6578 49.0238C14.7984 49.4286 14.8687 49.9293 14.8687 50.5259C14.8708 51.0884 14.8112 51.5913 14.6897 52.0344C14.5704 52.4755 14.3989 52.8484 14.1752 53.1531C13.9514 53.4577 13.6819 53.69 13.3666 53.8498C13.0512 54.0096 12.6965 54.0895 12.3023 54.0895C11.8889 54.0895 11.5225 54.0085 11.2029 53.8466C10.8854 53.6847 10.6286 53.4631 10.4326 53.1818C10.2366 52.9006 10.1162 52.5788 10.0715 52.2166H11.238C11.2977 52.4766 11.4191 52.6832 11.6024 52.8366C11.7877 52.9879 12.021 53.0636 12.3023 53.0636C12.7561 53.0636 13.1056 52.8665 13.3506 52.4723C13.5956 52.0781 13.7181 51.5305 13.7181 50.8295H13.6734C13.569 51.017 13.4337 51.179 13.2675 51.3153C13.1013 51.4496 12.9127 51.5529 12.7018 51.6254C12.493 51.6978 12.2714 51.734 12.037 51.734C11.6535 51.734 11.3083 51.6424 11.0015 51.4592C10.6968 51.2759 10.455 51.0245 10.276 50.7049C10.0992 50.3853 10.0097 50.0199 10.0075 49.6087C10.0075 49.1825 10.1056 48.8001 10.3016 48.4613C10.4997 48.1204 10.7756 47.8519 11.1293 47.6559C11.483 47.4577 11.8964 47.3608 12.3694 47.3651ZM12.3726 48.3239C12.1425 48.3239 11.9347 48.3803 11.7494 48.4933C11.5661 48.604 11.4212 48.7553 11.3147 48.9471C11.2103 49.1367 11.1581 49.3487 11.1581 49.5831C11.1602 49.8153 11.2124 50.0263 11.3147 50.2159C11.4191 50.4055 11.5608 50.5558 11.7398 50.6665C11.9209 50.7773 12.1276 50.8327 12.3598 50.8327C12.5324 50.8327 12.6933 50.7997 12.8424 50.7337C12.9916 50.6676 13.1215 50.576 13.2323 50.4588C13.3453 50.3395 13.4326 50.2042 13.4944 50.0529C13.5583 49.9016 13.5892 49.7418 13.5871 49.5735C13.5871 49.3498 13.5338 49.1431 13.4273 48.9535C13.3229 48.7638 13.1791 48.6115 12.9958 48.4964C12.8147 48.3814 12.607 48.3239 12.3726 48.3239ZM16.1336 54.0703C15.9397 54.0703 15.7735 54.0021 15.635 53.8658C15.4965 53.7294 15.4283 53.5632 15.4305 53.3672C15.4283 53.1754 15.4965 53.0114 15.635 52.875C15.7735 52.7386 15.9397 52.6705 16.1336 52.6705C16.3211 52.6705 16.4841 52.7386 16.6226 52.875C16.7632 53.0114 16.8346 53.1754 16.8367 53.3672C16.8346 53.4972 16.8005 53.6154 16.7344 53.7219C16.6705 53.8285 16.5853 53.9137 16.4787 53.9776C16.3743 54.0394 16.2593 54.0703 16.1336 54.0703ZM17.6302 52.7855V51.8427L20.4075 47.4545H21.1937V48.7969H20.7143L18.8447 51.7596V51.8107H22.7214V52.7855H17.6302ZM20.7527 54V52.4979L20.7655 52.076V47.4545H21.8841V54H20.7527ZM26.9722 52.7727V52.4276C26.9722 52.174 27.0255 51.9407 27.132 51.7276C27.2407 51.5146 27.3984 51.343 27.605 51.2131C27.8117 51.0831 28.0621 51.0181 28.3561 51.0181C28.6587 51.0181 28.9122 51.0831 29.1168 51.2131C29.3213 51.3409 29.4758 51.5114 29.5802 51.7244C29.6867 51.9375 29.74 52.1719 29.74 52.4276V52.7727C29.74 53.0263 29.6867 53.2596 29.5802 53.4727C29.4736 53.6857 29.317 53.8572 29.1104 53.9872C28.9058 54.1172 28.6544 54.1822 28.3561 54.1822C28.0578 54.1822 27.8053 54.1172 27.5986 53.9872C27.392 53.8572 27.2354 53.6857 27.1288 53.4727C27.0244 53.2596 26.9722 53.0263 26.9722 52.7727ZM27.8064 52.4276V52.7727C27.8064 52.9411 27.8469 53.0955 27.9278 53.2362C28.0088 53.3768 28.1516 53.4471 28.3561 53.4471C28.5628 53.4471 28.7045 53.3778 28.7812 53.2393C28.86 53.0987 28.8994 52.9432 28.8994 52.7727V52.4276C28.8994 52.2571 28.8621 52.1016 28.7876 51.9609C28.713 51.8182 28.5692 51.7468 28.3561 51.7468C28.1558 51.7468 28.0141 51.8182 27.931 51.9609C27.8479 52.1016 27.8064 52.2571 27.8064 52.4276ZM23.6452 49.027V48.6818C23.6452 48.4261 23.6995 48.1918 23.8082 47.9787C23.9168 47.7656 24.0745 47.5952 24.2812 47.4673C24.4878 47.3374 24.7382 47.2724 25.0322 47.2724C25.3327 47.2724 25.5851 47.3374 25.7897 47.4673C25.9964 47.5952 26.1519 47.7656 26.2563 47.9787C26.3607 48.1918 26.4129 48.4261 26.4129 48.6818V49.027C26.4129 49.2827 26.3596 49.517 26.2531 49.7301C26.1487 49.9411 25.9932 50.1104 25.7865 50.2383C25.5798 50.3661 25.3284 50.43 25.0322 50.43C24.7318 50.43 24.4783 50.3661 24.2716 50.2383C24.067 50.1104 23.9115 49.94 23.805 49.7269C23.6984 49.5138 23.6452 49.2805 23.6452 49.027ZM24.4857 48.6818V49.027C24.4857 49.1974 24.5251 49.353 24.604 49.4936C24.6849 49.6321 24.8277 49.7013 25.0322 49.7013C25.2368 49.7013 25.3774 49.6321 25.4541 49.4936C25.5329 49.353 25.5724 49.1974 25.5724 49.027V48.6818C25.5724 48.5114 25.5351 48.3558 25.4605 48.2152C25.3859 48.0724 25.2432 48.0011 25.0322 48.0011C24.8298 48.0011 24.6881 48.0724 24.6072 48.2152C24.5262 48.358 24.4857 48.5135 24.4857 48.6818ZM24.0095 54L28.5095 47.4545H29.3085L24.8085 54H24.0095Z" fill="white"/>
</svg>
