<svg width="160" height="182" viewBox="0 0 160 182" fill="none" xmlns="http://www.w3.org/2000/svg">
<path d="M62.1326 148.646C61.8233 141.146 53.3173 136.777 45.8553 135.926C38.3932 135.114 30.3512 136.081 23.7784 132.369C17.9016 129.044 14.4606 122.549 12.6821 116.015C10.9036 109.48 10.401 102.676 8.58381 96.1415C5.83871 86.205 0.0777893 76.8871 0.000462558 66.564C-0.0768642 54.0371 9.55037 42.0901 21.8067 39.4997C28.6501 38.0691 35.9188 39.2677 42.6849 37.4119C57.4543 33.3522 65.0709 16.3403 78.9897 9.92219C87.921 5.78521 98.3601 6.51981 108.026 8.56897C112.588 9.53556 117.112 10.7728 121.094 13.17C127.048 16.7657 131.379 22.9905 132.693 29.7952C135.709 45.3379 123.917 59.798 121.906 75.534C120.939 83.112 122.331 90.9607 125.888 97.7654C128.75 103.217 132.886 107.895 135.825 113.308C138.725 118.721 140.31 125.448 137.642 130.977C136.173 134.032 133.505 136.429 130.605 138.207C121.133 144.045 109.302 144.007 98.1668 143.775" fill="#5AA6FF"/>
<path d="M101.028 87.094C101.028 89.8391 101.067 92.8548 102.807 94.9813C105.165 97.9197 109.534 98.0357 113.284 97.8811C122.796 97.4944 132.307 97.0692 141.779 96.4892C146.342 96.2186 147.54 98.9637 150.015 102.637C152.528 106.348 154.654 110.292 156.394 114.39C157.206 104.725 159.874 94.44 159.332 84.7355C158.482 68.4582 157.593 52.2196 156.742 35.9424C156.626 33.8545 156.471 31.6507 155.195 30.0269C153.108 27.3591 149.164 27.3977 145.8 27.7071C138.184 28.3643 130.606 28.9829 122.989 29.6402C117.344 30.1042 108.954 29.4083 104.392 33.4292C102.265 35.3238 101.183 38.1848 100.951 41.0459C100.603 44.6029 101.376 48.1213 101.299 51.6783C101.183 55.622 101.26 59.5657 101.221 63.4707C101.144 71.358 101.105 79.2067 101.028 87.094Z" fill="white"/>
<path d="M159.952 85.277C159.797 81.836 159.604 78.3562 159.411 74.9152C159.024 67.9558 158.676 61.0351 158.29 54.0757C158.096 50.596 157.903 47.1162 157.748 43.6752C157.671 41.9353 157.555 40.1955 157.478 38.4556C157.4 36.8704 157.362 35.3239 157.168 33.7387C156.975 32.3855 156.627 30.9549 155.815 29.8337C155.08 28.8284 154.114 28.1325 152.954 27.6686C150.596 26.7407 147.928 26.8953 145.453 27.1272C138.533 27.7072 131.65 28.2872 124.73 28.9058C122.217 29.1378 119.703 29.2151 117.152 29.3311C114.677 29.4471 112.164 29.6404 109.728 30.2203C107.447 30.8003 105.166 31.7668 103.504 33.5067C101.57 35.5172 100.642 38.2623 100.372 40.9687C100.024 44.3325 100.72 47.6575 100.72 51.0212C100.72 54.4623 100.642 57.8647 100.642 61.3057C100.642 68.2265 100.565 75.1085 100.488 82.0292C100.488 83.7304 100.449 85.4317 100.449 87.1329C100.449 89.3753 100.449 91.6951 101.377 93.7829C102.228 95.7161 103.852 97.0693 105.823 97.8039C107.757 98.4998 109.883 98.5772 111.932 98.5772C114.639 98.5385 117.306 98.3838 120.013 98.2678C125.658 98.0359 131.303 97.7653 136.947 97.456C138.378 97.3786 139.77 97.3013 141.162 97.1853C142.167 97.108 143.172 97.0693 144.139 97.3786C145.724 97.8426 146.768 99.0798 147.696 100.356C150.866 104.918 153.689 109.712 155.854 114.816C156.086 115.396 156.898 115.009 156.936 114.506C157.478 107.972 158.792 101.554 159.488 95.0588C159.875 91.7338 160.107 88.4861 159.952 85.277ZM158.753 90.6899C158.406 97.108 157.168 103.41 156.318 109.751C156.202 110.563 156.124 111.336 156.047 112.148C155.235 110.408 154.384 108.707 153.418 107.044C152.219 104.918 150.866 102.869 149.513 100.82C148.585 99.4278 147.657 97.9586 146.265 96.992C144.641 95.8321 142.747 95.832 140.814 95.948C135.246 96.296 129.64 96.5667 124.072 96.8373C121.25 96.9533 118.428 97.0693 115.605 97.2239C113.324 97.3013 111.043 97.4946 108.762 97.2239C106.597 96.9533 104.315 96.2187 103.04 94.3242C101.609 92.2364 101.609 89.5299 101.609 87.0942C101.648 80.3281 101.686 73.6007 101.764 66.8346C101.802 63.4709 101.802 60.1071 101.802 56.7047C101.802 55.0422 101.841 53.341 101.88 51.6785C101.918 50.0546 101.802 48.4307 101.648 46.8456C101.416 43.7911 101.222 40.6981 102.266 37.7597C103.117 35.3239 104.818 33.468 107.138 32.3468C109.264 31.3415 111.661 30.9163 113.981 30.7229C116.378 30.491 118.814 30.4523 121.211 30.3363C124.266 30.1817 127.32 29.8724 130.375 29.6017C133.738 29.3311 137.102 29.0218 140.427 28.7512C142.128 28.5965 143.829 28.4805 145.492 28.3258C146.768 28.2098 148.005 28.1326 149.281 28.1712C151.678 28.2872 154.153 29.0218 155.274 31.3029C155.892 32.5401 156.008 33.9707 156.086 35.3239C156.202 36.9865 156.279 38.6489 156.356 40.2728C156.55 43.6752 156.704 47.0776 156.898 50.48C157.246 57.2461 157.632 64.0508 157.98 70.8168C158.174 74.1806 158.328 77.583 158.521 80.9467C158.753 84.2331 158.908 87.4421 158.753 90.6899ZM147 65.4814C144.177 64.9787 141.278 64.4761 138.765 62.9683C136.561 61.6537 134.86 59.6432 134.318 57.13C133.777 54.6943 134.202 52.1812 134.357 49.7067C134.396 49.0494 134.396 48.3535 134.357 47.6962C134.318 47.1549 134.28 46.6136 134.048 46.1497C133.545 45.2218 132.308 45.1831 131.457 45.531C129.601 46.2656 128.789 48.5081 128.712 50.364C128.596 52.9157 129.447 55.3515 129.601 57.9033C129.679 59.7205 129.485 61.963 127.977 63.2389C126.276 64.6694 123.918 64.2827 121.869 64.0508C119.472 63.7801 116.726 63.8188 114.832 65.5587C113.44 66.8346 112.976 69.1157 114.291 70.5462C115.798 71.5515 117.654 71.8995 119.394 71.4355C120.129 71.2422 120.438 72.3634 119.703 72.5567C117.925 73.0207 115.992 72.7887 114.368 71.9381C113.247 73.1754 113.479 75.2631 115.141 75.9591C115.296 76.0364 115.412 76.1524 115.489 76.2684C117.19 76.771 118.969 76.9257 120.709 76.6937C121.018 76.6551 121.289 77.0031 121.289 77.2737C121.289 77.6217 121.018 77.815 120.709 77.8536C118.853 78.0856 116.958 77.9309 115.18 77.3896C114.6 78.7815 115.141 80.3668 116.417 81.14C116.533 81.1014 116.649 81.0627 116.804 81.14C118.853 81.7973 121.018 81.952 123.106 81.5267C123.84 81.372 124.15 82.4932 123.415 82.6479C121.443 83.0345 119.433 82.9958 117.538 82.5319C116.92 83.2278 117.461 84.2331 118.118 84.697C119.007 85.3543 120.206 85.625 121.25 85.8569C125.542 86.6689 129.485 84.7357 133.622 83.8851C137.798 83.0345 142.128 83.2279 146.188 84.4264C146.922 84.6197 146.613 85.7409 145.879 85.5476C143.327 84.813 140.698 84.465 138.03 84.5423C135.749 84.6197 133.506 85.045 131.341 85.6636C129.137 86.2822 126.972 86.9782 124.691 87.2102C122.526 87.4035 120.167 87.0555 118.196 86.1276C117.345 85.7023 116.572 85.045 116.262 84.1171C116.069 83.5758 116.108 82.9571 116.301 82.4158C114.252 81.4879 113.285 79.0521 114.136 77.003C114.059 76.9256 113.981 76.771 113.981 76.655C113.247 76.1138 112.705 75.3405 112.551 74.4126C112.357 73.33 112.667 72.1701 113.401 71.3582C111.855 69.657 112.164 66.9118 113.633 65.2107C115.528 63.0068 118.621 62.6202 121.366 62.8909C123.299 63.0842 126.16 63.8575 127.591 62.0403C128.789 60.4937 128.557 58.0579 128.287 56.2408C127.9 53.6503 127.127 50.9439 127.939 48.3535C128.519 46.3816 129.988 44.4871 132.153 44.2551C133.197 44.1391 134.318 44.4872 134.976 45.3764C135.671 46.3817 135.671 47.7735 135.633 48.9334C135.594 51.4852 135.014 54.1143 135.478 56.6661C135.942 59.1019 137.489 60.9577 139.615 62.1563C141.974 63.5095 144.719 63.9734 147.386 64.4374C148.044 64.476 147.734 65.5974 147 65.4814ZM117.461 34.628C117.074 34.0094 118.08 33.4294 118.466 34.048C119.897 36.2905 121.675 38.301 123.686 40.0409C123.918 40.2342 123.879 40.6594 123.686 40.8527C123.454 41.0847 123.106 41.046 122.874 40.8527C120.786 39.0742 118.969 36.9864 117.461 34.628ZM139.228 41.974C140.814 39.8475 142.437 37.7211 144.023 35.5946C144.216 35.3626 144.525 35.2079 144.835 35.4012C145.067 35.5559 145.221 35.9425 145.028 36.2131C143.443 38.3396 141.819 40.4661 140.234 42.5926C140.04 42.8246 139.731 42.9792 139.422 42.7859C139.19 42.6312 139.035 42.2447 139.228 41.974ZM131.612 39.1516C131.612 37.2571 131.612 35.3626 131.612 33.4681C131.612 32.7335 132.772 32.7335 132.772 33.4681C132.772 35.3626 132.772 37.2571 132.772 39.1516C132.772 39.9248 131.612 39.9248 131.612 39.1516Z" fill="#3F4254"/>
<path d="M61.1269 92.5461C77.5588 90.5743 94.1068 89.7624 110.655 90.033C112.936 90.0717 115.41 90.1877 117.15 91.6569C119.625 93.7447 119.625 97.495 119.393 100.704C118.117 118.992 116.841 137.241 115.565 155.529C115.41 157.655 115.217 159.898 113.825 161.522C112.743 162.759 111.119 163.377 109.533 163.88C99.3263 167.089 87.4567 167.978 76.9016 166.2C72.5326 165.465 70.6767 166.045 67.2743 169.138C63.756 172.347 60.7789 176.136 58.4978 180.351C58.1498 180.969 57.4152 181.704 56.8739 181.24C56.6806 181.047 56.6419 180.776 56.6033 180.505C54.9408 167.128 53.4328 154.253 53.5488 140.798C53.6648 126.724 55.482 112.728 57.2605 98.7709C57.4539 97.3403 57.6472 95.8325 58.4591 94.6339C59.2711 93.4354 60.2376 92.6621 61.9001 92.6621" fill="white"/>
<path d="M120.011 97.4568C119.934 95.6783 119.586 93.7838 118.504 92.3146C117.305 90.6907 115.488 89.9175 113.555 89.6469C111.274 89.3375 108.915 89.4148 106.595 89.4148C104.044 89.4148 101.492 89.4149 98.9399 89.4535C88.7715 89.6082 78.6416 90.1881 68.5505 91.1547C66.076 91.3867 63.6016 91.6573 61.1271 91.9667C60.9725 91.9667 60.8565 92.044 60.7405 92.16C59.3486 92.5079 58.266 93.4745 57.6087 94.8277C57.1061 95.7943 56.9128 96.8382 56.7582 97.9208C56.6035 99.1193 56.4489 100.357 56.2942 101.555C55.6369 106.581 55.0183 111.608 54.4771 116.634C53.3945 126.725 52.6985 136.855 53.0078 147.023C53.2785 156.998 54.3611 166.935 55.5596 176.833C55.7143 178.07 55.8303 179.346 56.0236 180.583C56.1396 181.511 56.9129 182.246 57.8794 181.782C58.7687 181.318 59.1553 180.274 59.6193 179.462C60.1606 178.495 60.7791 177.567 61.3978 176.639C62.6736 174.822 64.0656 173.082 65.6121 171.497C66.9653 170.067 68.4345 168.597 70.1357 167.554C71.4116 166.742 72.8035 166.432 74.35 166.471C76.4378 166.548 78.487 167.051 80.5361 167.283C85.1371 167.785 89.7766 167.824 94.3389 167.399C98.8625 167.012 103.386 166.2 107.794 164.963C109.766 164.422 111.892 163.88 113.516 162.566C115.14 161.251 115.72 159.202 115.952 157.23C115.99 156.766 116.068 156.302 116.106 155.8C116.184 155.684 116.184 155.568 116.145 155.413C116.3 153.596 116.377 151.74 116.493 149.923C116.686 147.371 116.841 144.781 117.034 142.229C117.382 137.164 117.73 132.099 118.117 127.034C118.465 121.892 118.852 116.788 119.199 111.646C119.393 109.094 119.548 106.504 119.741 103.952C119.895 101.826 120.127 99.622 120.011 97.4568ZM114.908 156.148C114.753 158.081 114.444 160.169 112.936 161.561C111.428 162.914 109.147 163.416 107.253 163.919C106.866 164.035 106.479 164.112 106.131 164.228C106.093 164.151 106.054 164.074 105.977 163.996C103.773 162.141 103.657 158.622 104.894 156.186C106.17 153.635 109.108 151.972 111.931 152.861C113.245 153.287 114.405 154.292 114.985 155.568C114.947 155.761 114.947 155.955 114.908 156.148ZM115.101 153.673C113.439 151.74 110.732 150.967 108.219 151.817C104.855 152.939 102.845 156.302 102.961 159.782C103 161.522 103.618 163.339 104.855 164.576C103.58 164.886 102.265 165.156 100.989 165.388L100.95 165.35C100.796 165.272 100.641 165.195 100.486 165.079C100.409 165.04 100.37 165.002 100.293 164.963L100.254 164.924C100.254 164.924 100.216 164.886 100.177 164.886C99.9065 164.654 99.6745 164.422 99.4426 164.19C99.4039 164.151 99.4038 164.112 99.3652 164.112C99.3265 164.035 99.2492 163.958 99.2106 163.919C99.1332 163.764 99.0173 163.649 98.9399 163.494C98.8626 163.339 98.7852 163.185 98.7079 163.069C98.6692 162.991 98.6306 162.914 98.5919 162.837L98.5533 162.759C98.5533 162.721 98.5146 162.721 98.5146 162.682C98.4373 162.489 98.2827 162.334 98.0894 162.257C97.9734 162.025 97.7026 161.947 97.432 161.986C96.5814 162.102 95.7308 162.218 94.9189 162.334C94.7256 162.373 94.5323 162.373 94.3003 162.411C94.1843 162.411 94.107 162.45 93.991 162.45C93.991 162.45 93.9137 162.45 93.875 162.45C93.875 162.411 93.875 162.373 93.875 162.334C93.8363 162.179 93.875 162.025 93.875 161.909C93.9523 160.478 94.0296 159.048 94.1456 157.578C95.2668 157.965 96.4655 158.12 97.664 158.004C97.9733 157.965 98.244 157.772 98.244 157.424C98.244 157.346 98.2053 157.23 98.1667 157.153C98.5533 155.181 99.3652 153.287 100.641 151.702C100.834 151.47 100.873 151.122 100.641 150.89C100.525 150.774 100.332 150.696 100.138 150.735C99.3265 150.232 98.5146 149.691 97.7027 149.188C99.4039 147.951 101.066 146.714 102.768 145.515C102.845 146.521 103.232 147.487 103.85 148.299V148.338C103.927 148.608 104.275 148.879 104.546 148.724C105.899 148.183 107.33 147.99 108.76 148.067C109.07 148.106 109.34 147.796 109.34 147.487C109.34 147.294 109.263 147.178 109.147 147.062C109.495 145.863 109.92 144.742 110.5 143.66C110.732 143.853 111.042 144.008 111.351 144.123C111.699 144.239 112.047 144.278 112.395 144.317C112.704 144.355 113.091 144.433 113.284 144.665C113.748 145.167 113.168 146.095 112.897 146.559C112.472 147.333 112.047 148.26 112.395 149.111C112.511 149.382 112.743 149.575 113.052 149.536C113.091 149.575 113.091 149.614 113.129 149.614C113.207 149.652 113.284 149.73 113.361 149.768C113.864 150.155 114.289 150.58 114.676 151.083C114.715 151.122 114.753 151.16 114.753 151.199C114.831 151.315 114.947 151.431 115.101 151.47C115.14 151.47 115.178 151.47 115.217 151.47C115.217 152.204 115.14 152.939 115.101 153.673ZM93.9137 162.45C93.9137 162.411 93.9137 162.411 93.9137 162.45C93.9137 162.411 93.9524 162.411 93.9137 162.45ZM118.542 104.378C118.194 109.326 117.846 114.237 117.498 119.186C116.802 129.122 116.106 139.059 115.41 148.995C115.372 149.343 115.372 149.691 115.333 150C114.869 149.459 114.328 148.956 113.709 148.531C113.632 148.492 113.516 148.454 113.4 148.454C113.323 147.796 113.825 147.178 114.096 146.598C114.483 145.863 114.753 144.974 114.328 144.162C113.98 143.428 113.168 143.196 112.433 143.08C112.047 143.041 111.042 142.964 111.003 142.422C110.964 141.842 110.23 141.61 109.92 142.113C109.07 143.582 108.412 145.129 107.949 146.791V146.83C106.827 146.83 105.667 147.023 104.585 147.41C104.005 146.559 103.696 145.477 103.85 144.471C103.927 144.046 103.464 143.466 103 143.814C100.796 145.438 98.5533 147.062 96.3495 148.686C96.0015 148.956 95.9629 149.42 96.3495 149.691C97.3161 150.31 98.2826 150.928 99.2879 151.547C98.1666 153.132 97.3934 154.949 97.0068 156.844C95.9242 156.844 94.8802 156.65 93.875 156.225C93.4497 156.032 93.0244 156.264 92.9857 156.728C92.9084 157.733 92.8697 158.738 92.7924 159.743C92.7537 160.246 92.7151 160.749 92.7151 161.29C92.6764 161.715 92.6378 162.141 92.7151 162.566C92.7924 162.953 92.9857 163.262 93.295 163.455C93.7203 163.687 94.2616 163.533 94.7256 163.455C95.6535 163.339 96.5428 163.185 97.4707 163.069C97.896 164.074 98.5146 164.963 99.3266 165.659C95.3829 166.278 91.4006 166.587 87.4182 166.548C85.2531 166.548 83.0493 166.394 80.8842 166.2C78.835 165.968 76.7858 165.504 74.7366 165.388C73.2287 165.311 71.7595 165.504 70.3676 166.162C68.7438 166.935 67.352 168.211 66.0761 169.448C62.983 172.386 60.3152 175.827 58.2274 179.578C57.9954 179.964 57.8407 180.428 57.4541 180.699C57.3768 180.776 57.2994 180.815 57.2221 180.776C57.1061 180.699 57.1061 180.003 57.0675 179.926C56.9128 178.727 56.7581 177.529 56.6421 176.33C56.3328 173.894 56.0622 171.459 55.7916 168.984C55.2503 164.19 54.7863 159.396 54.5157 154.563C54.3223 151.315 54.2064 148.106 54.1677 144.858C58.3434 144.471 62.0551 146.598 65.4188 148.918C63.215 151.817 60.8952 154.679 58.5367 157.462C58.0341 157.385 57.6861 158.12 58.1114 158.506C58.2274 158.7 58.4207 158.893 58.6527 158.893C60.5859 160.207 62.5191 161.522 64.4522 162.798C64.9548 163.146 65.4187 162.566 65.2641 162.102C67.5452 159.202 69.8264 156.302 72.1462 153.403C72.7648 153.751 73.3834 154.021 74.0021 154.331C76.1672 155.259 78.835 156.032 81.0388 154.872C82.4306 154.137 83.3586 152.397 83.0106 150.89C84.4798 151.122 86.0264 150.658 87.0703 149.575C88.3075 148.261 88.5782 146.211 87.8436 144.587C89.4288 144.162 91.1299 143.505 91.9418 141.997C92.5218 140.953 92.5991 139.6 91.9805 138.595C92.8311 138.285 93.527 137.589 93.9523 136.777C94.5709 135.54 94.5709 134.148 94.0683 132.872C93.9137 132.447 93.7203 132.061 93.4884 131.674C94.8802 130.127 94.9962 127.653 93.7977 125.952C94.107 125.488 94.455 125.024 94.7643 124.521C96.6201 124.483 98.4759 124.444 100.332 124.405C100.564 124.56 100.912 124.56 101.105 124.366C102.574 122.549 104.082 120.771 105.551 118.954C105.745 118.722 105.783 118.412 105.59 118.18C105.822 116.247 106.015 114.275 106.247 112.342C106.247 112.304 106.286 112.265 106.286 112.188C106.286 112.11 106.286 111.994 106.325 111.917V111.878C106.711 111.376 105.977 110.641 105.435 111.144C104.43 112.072 103.425 112.999 102.458 113.966C102.69 112.149 102.768 110.332 102.574 108.514C102.536 108.205 102.342 107.935 101.994 107.935C101.878 107.935 101.762 107.973 101.685 108.051C99.8678 107.935 98.0507 107.935 96.2335 108.051C96.8134 107.161 97.3934 106.311 97.9733 105.421C98.012 105.344 98.0506 105.267 98.0506 105.228C98.5146 104.919 98.2053 104.03 97.548 104.184C95.0349 104.841 92.5218 105.344 89.97 105.692C89.6607 105.731 89.4288 105.924 89.3901 106.195C88.2689 108.244 87.1476 110.293 86.065 112.304C85.9877 112.458 85.9876 112.613 86.0263 112.729C86.0263 112.806 85.9876 112.922 86.0263 112.999C86.4516 115.242 87.2636 117.446 88.3848 119.456C87.8822 120.191 87.4182 120.925 86.9156 121.66C86.8769 121.66 86.7996 121.621 86.761 121.621C79.9949 120.925 73.1128 121.621 66.6173 123.748C65.9214 123.98 66.2307 125.101 66.9266 124.869C73.0355 122.897 79.5309 122.163 85.9104 122.704C85.5624 123.477 85.0598 124.135 84.4412 124.715C82.8173 124.289 81.1548 124.057 79.4922 123.98C78.7576 123.941 78.7576 125.101 79.4922 125.14C81.0774 125.178 82.6626 125.449 84.2091 125.836C84.2091 125.836 84.2092 125.836 84.2478 125.874C86.2197 127.112 88.3074 128.156 90.086 129.625C91.6712 130.901 93.6817 133.027 93.295 135.27C93.1017 136.352 92.3671 137.435 91.2846 137.628C89.4674 135.927 87.2636 134.728 84.8278 134.11C84.0932 133.916 83.7839 135.038 84.5185 135.231C86.6836 135.772 88.6554 136.816 90.2793 138.324C90.2793 138.479 90.3953 138.672 90.55 138.749C91.5552 139.368 91.4005 140.876 90.7819 141.726C89.8927 142.925 88.1915 143.312 86.8383 143.66C84.9824 142.152 82.9719 140.876 80.8067 139.871C80.5361 139.755 80.1882 139.793 79.9949 140.064C79.8402 140.296 79.9175 140.721 80.1882 140.876C82.508 141.958 84.6731 143.312 86.6063 145.013C86.6836 145.051 86.7222 145.09 86.7996 145.129C87.3022 146.327 87.1476 147.797 86.2583 148.763C85.4077 149.691 84.0545 150 82.8946 149.691C82.8946 149.691 82.8946 149.652 82.8559 149.652C81.1934 147.758 79.0283 146.366 76.6312 145.593C75.9352 145.361 75.6259 146.482 76.3219 146.714C78.2164 147.333 79.9175 148.377 81.3481 149.768C81.2708 149.962 81.3094 150.155 81.5027 150.348C82.0827 150.928 82.044 151.779 81.7733 152.513C81.4254 153.403 80.6521 153.944 79.7629 154.176C77.5977 154.717 75.1619 153.712 73.2674 152.745C69.0917 150.619 65.6894 147.255 61.4365 145.283C59.1553 144.239 56.7195 143.582 54.2064 143.814C54.1678 137.628 54.3997 131.403 54.9023 125.217C55.2889 120.346 55.8303 115.435 56.4102 110.564C56.7195 108.089 57.0288 105.615 57.3381 103.179C57.4928 101.98 57.6474 100.782 57.802 99.5833C57.9567 98.5007 58.034 97.3794 58.382 96.3355C58.9233 94.6343 60.1219 93.2811 61.9777 93.2425C62.1324 93.2425 62.287 93.1652 62.3643 93.0879C71.7982 92.0053 81.3094 91.2706 90.7819 90.9227C95.6922 90.7293 100.602 90.6521 105.513 90.6907C107.833 90.6907 110.191 90.6521 112.549 90.8068C114.444 90.9614 116.377 91.4253 117.576 93.0105C118.658 94.4024 118.89 96.2582 118.929 97.9981C118.929 100.047 118.697 102.212 118.542 104.378ZM66.3467 149.575C66.772 149.884 67.1973 150.194 67.6226 150.464C68.7438 151.276 69.9037 152.049 71.0636 152.784C68.8211 155.645 66.5787 158.468 64.3362 161.329C62.7124 160.246 61.1272 159.164 59.5033 158.081C61.8618 155.297 64.1429 152.475 66.3467 149.575ZM89.3127 118.838C88.2301 116.905 87.4956 114.855 87.0703 112.69C88.1529 110.68 89.2354 108.669 90.3567 106.697C92.3672 106.427 94.3776 106.04 96.3881 105.576C94.6483 108.167 92.9084 110.718 91.2073 113.309C91.0139 113.425 90.8593 113.695 90.9366 113.889C90.9366 114.121 91.1686 114.314 91.4006 114.391C93.5657 116.17 95.9242 117.716 98.4373 118.992C98.7466 119.147 99.0559 118.992 99.2106 118.799C99.2492 118.76 99.3265 118.722 99.3652 118.683C101.221 116.75 103.116 114.855 105.087 113.038C104.894 114.817 104.701 116.557 104.469 118.335C104.469 118.412 104.469 118.451 104.507 118.528C103.193 120.114 101.917 121.699 100.602 123.245C98.6693 123.284 96.6974 123.323 94.7643 123.361C94.6869 123.361 94.6483 123.361 94.6096 123.4C94.4163 123.361 94.1843 123.439 94.0683 123.671C92.9471 125.294 91.8645 126.918 90.7433 128.581C90.086 128.078 89.39 127.576 88.6554 127.15C87.7275 126.57 86.7996 126.029 85.833 125.449C85.9876 125.256 86.1037 125.024 86.2583 124.831C87.3796 123.129 88.5395 121.389 89.6607 119.688C89.7767 119.302 89.5833 118.992 89.3127 118.838ZM94.8803 114.817C94.9189 113.27 94.9189 111.762 94.9576 110.216C94.9576 110.061 94.9189 109.945 94.8416 109.868C95.0349 109.597 95.1896 109.326 95.3829 109.056C95.4602 109.095 95.5375 109.094 95.6148 109.094C97.548 108.94 99.4812 108.94 101.414 109.056C101.569 110.989 101.453 112.961 101.066 114.855V114.894C98.9786 115.087 96.9294 115.01 94.8803 114.817ZM100.1 116.17C99.5585 116.711 99.0559 117.252 98.5146 117.794C97.5093 117.252 96.5041 116.672 95.5375 116.054C97.0454 116.17 98.592 116.209 100.1 116.17ZM93.759 111.492C93.7203 112.574 93.7203 113.695 93.6817 114.778C93.2177 114.43 92.7151 114.043 92.2898 113.695C92.7925 112.961 93.295 112.226 93.759 111.492ZM91.5166 129.238C92.0192 128.465 92.5605 127.692 93.0631 126.957C93.6817 128.078 93.5657 129.586 92.7924 130.63C92.4058 130.127 91.9805 129.702 91.5166 129.238C91.5166 129.277 91.5166 129.238 91.5166 129.238ZM71.7983 110.796C71.9916 111.066 71.8369 111.453 71.6049 111.608C71.3343 111.762 70.9863 111.646 70.793 111.414C69.6331 109.713 68.4731 108.012 67.2746 106.311C65.7667 107.277 64.2202 108.283 62.7124 109.249C63.5243 110.834 64.2975 112.42 65.1095 114.005C65.1095 114.043 65.1481 114.082 65.1481 114.121C66.7333 113.193 68.3185 112.226 69.9037 111.298C70.561 110.912 71.1409 111.917 70.4837 112.304C68.8211 113.309 67.1586 114.314 65.4574 115.281C65.0708 115.513 64.6842 115.242 64.6068 114.894C64.4135 114.894 64.1815 114.817 64.1042 114.623C63.2923 113.038 62.519 111.414 61.7071 109.829C61.2045 109.829 60.8952 109.056 61.4365 108.747C61.4365 108.747 61.4751 108.746 61.4751 108.708C61.5137 108.63 61.5911 108.553 61.6684 108.514C61.7457 108.476 61.8231 108.437 61.9004 108.437C63.5243 107.393 65.1482 106.349 66.772 105.267C66.9653 105.112 67.1973 105.151 67.352 105.267C67.6226 105.112 67.9706 105.228 68.1252 105.46C69.3238 107.239 70.561 109.017 71.7983 110.796ZM99.0559 111.337C99.2879 111.724 99.2105 112.226 98.9012 112.497C98.7466 112.613 98.5919 112.729 98.3986 112.729C98.3599 112.729 98.3213 112.767 98.2827 112.767C98.128 112.806 98.012 112.806 97.8573 112.767C97.78 112.767 97.664 112.729 97.5867 112.652C97.2001 112.42 97.0454 111.994 97.1228 111.569C97.1614 111.414 97.2774 111.221 97.3934 111.105C97.4707 111.028 97.548 110.989 97.6253 110.95C97.7026 110.912 97.78 110.873 97.896 110.873C98.0507 110.834 98.1666 110.834 98.3213 110.873C98.3986 110.873 98.5146 110.912 98.5919 110.95C98.8239 111.028 98.9786 111.182 99.0559 111.337ZM65.4574 110.061C65.4574 110.022 65.4574 109.984 65.4574 109.945C65.4574 109.906 65.4188 109.906 65.4188 109.868C65.3801 109.713 65.3801 109.52 65.4188 109.365C65.4575 109.211 65.5347 109.056 65.6507 108.94C65.7667 108.824 65.8827 108.746 66.0374 108.708C66.076 108.708 66.1147 108.669 66.1147 108.669C66.192 108.669 66.2694 108.631 66.3467 108.631C66.424 108.631 66.5014 108.631 66.5787 108.669C66.6174 108.669 66.6174 108.669 66.656 108.708C66.8107 108.785 66.9267 108.824 67.0426 108.94C67.1586 109.056 67.2359 109.172 67.2746 109.326C67.3132 109.442 67.3132 109.52 67.2746 109.636C67.2359 109.752 67.1973 109.829 67.12 109.906C67.0813 109.945 67.0426 109.945 67.0039 109.984C67.0039 110.022 67.0039 110.061 67.0039 110.1C67.0039 110.177 66.9653 110.254 66.9266 110.332C66.8493 110.448 66.7334 110.564 66.5787 110.602C66.4627 110.641 66.3081 110.641 66.1921 110.641C66.1534 110.641 66.1533 110.68 66.1147 110.68C66.076 110.68 65.9987 110.68 65.9601 110.718C65.8054 110.718 65.6507 110.641 65.5347 110.564C65.4961 110.525 65.4575 110.448 65.4188 110.37C65.4575 110.216 65.4574 110.138 65.4574 110.061Z" fill="#3F4254"/>
<path d="M85.2147 8.45332C84.6734 0.295347 74.6982 1.60985 68.5894 1.14588C59.6195 0.488607 50.5722 0.372598 41.5637 0.836559C31.0472 1.33918 15.0406 0.681981 6.49602 7.87337C2.47503 11.2757 0.696548 16.7659 0.541895 22.0628C0.348578 27.3597 1.54712 32.5792 2.35905 37.7601C4.33089 50.3257 4.3309 63.2006 2.28175 75.7662C1.62447 79.8645 0.889827 84.5041 3.40295 87.7905C4.94948 89.7624 7.34667 90.8063 9.7438 91.5409C19.9123 94.7113 30.8539 94.0153 41.4864 93.2807C47.9431 92.8167 54.7093 91.7342 61.1661 91.8115C66.4243 91.8888 71.0639 95.9485 74.3889 99.9308C77.714 103.913 80.1111 108.553 82.5082 113.154C81.387 111.027 83.8228 103.179 84.1708 100.665C84.7507 96.2578 85.2919 91.8115 85.8332 87.4039C86.8385 79.2846 87.6505 71.6292 87.3412 63.5099C86.6066 45.1835 86.4519 26.8571 85.2147 8.45332Z" fill="white"/>
<path d="M44.9668 70.8173C44.6575 70.16 45.6628 69.5414 45.9721 70.2373C47.364 73.2144 50.8823 74.297 53.9367 73.5237C57.4164 72.6731 60.0068 69.9668 61.9787 67.1057C62.404 66.487 63.4093 67.067 62.984 67.6856C61.9787 69.1162 60.8962 70.5081 59.6203 71.668C57.3778 73.6785 54.4393 75.1476 51.3462 74.9156C48.7171 74.7223 46.1267 73.2531 44.9668 70.8173ZM4.29294 49.7071C7.57933 50.4031 10.827 51.1377 14.1134 51.8336C14.848 51.9883 15.1573 50.867 14.4227 50.7123C11.1363 50.0164 7.88865 49.2818 4.60227 48.5858C3.86766 48.4312 3.55834 49.5525 4.29294 49.7071ZM54.3233 30.8394C54.4393 30.9554 54.478 31.1101 54.478 31.2647C54.478 31.4194 54.4006 31.5353 54.3233 31.69C53.8207 32.3086 53.3181 32.9659 52.7768 33.5845C52.5835 33.8552 52.1582 33.7779 51.9649 33.5845C51.8489 33.4685 51.8102 33.3139 51.8102 33.1592C51.8102 33.0045 51.8876 32.8885 51.9649 32.7339C52.4675 32.1153 52.9701 31.458 53.5114 30.8394C53.7047 30.5688 54.0913 30.6461 54.3233 30.8394ZM49.7997 32.9272C50.0704 33.0432 50.457 33.0045 50.6117 32.7339C50.805 32.3086 51.037 31.8833 51.3076 31.4967C51.385 31.4193 51.4236 31.3034 51.501 31.226C51.501 31.1874 51.5396 31.1874 51.5396 31.1487C51.5782 31.1101 51.6169 31.0714 51.6556 31.0327C51.8102 30.8394 51.9649 30.6461 52.1582 30.4915C52.3902 30.2595 52.3902 29.8728 52.1582 29.6795C51.9262 29.4475 51.5782 29.4475 51.3462 29.6795C50.6116 30.4141 50.0317 31.2647 49.6064 32.1926C49.5291 32.3473 49.4904 32.4632 49.5291 32.6566C49.5677 32.6952 49.6837 32.8499 49.7997 32.9272ZM56.1019 29.1382C56.2952 29.4089 56.4498 29.6795 56.6045 29.9501C56.6432 30.1048 56.7205 30.2208 56.7591 30.3755C56.8364 30.6848 57.1844 30.8781 57.4551 30.7621C57.7644 30.6848 57.9577 30.3754 57.8417 30.0661C57.6097 29.2929 57.2231 28.5969 56.6818 28.0557C56.4885 27.8237 56.0632 27.8237 55.8698 28.0557C55.6379 28.2876 55.6379 28.6355 55.8698 28.8675C55.9858 28.9449 56.0632 29.0223 56.1019 29.1382ZM51.9649 26.9344C52.3129 26.9344 52.6995 26.9731 53.0475 27.0118C53.1635 27.0118 53.2794 27.0504 53.3567 27.0504C53.3954 27.0504 53.4728 27.0504 53.5114 27.0891C53.5501 27.1277 53.5888 27.1664 53.6274 27.2051C53.8981 27.3597 54.2847 27.2824 54.4393 27.0118C54.5553 26.7798 54.5553 26.5477 54.4393 26.3544C54.3233 26.1998 54.1687 26.0838 53.9754 26.0065C53.7821 25.9678 53.55 25.9291 53.3567 25.8905C52.8928 25.8131 52.4289 25.7745 51.9649 25.7745C51.6556 25.7745 51.3849 26.0451 51.3849 26.3544C51.4236 26.7024 51.6556 26.9344 51.9649 26.9344ZM43.1496 45.6088C43.1496 45.6861 43.1883 45.7635 43.2269 45.8408C43.2656 45.9181 43.343 45.9954 43.3816 46.0727C43.459 46.1501 43.5362 46.2274 43.6136 46.266C43.6909 46.3047 43.8069 46.3434 43.8842 46.3821C43.9615 46.4207 44.0775 46.4208 44.1935 46.4208C44.2322 46.4208 44.2322 46.4208 44.2708 46.4208C44.3482 46.4208 44.4255 46.4207 44.5028 46.3821C44.5802 46.3434 44.6961 46.3047 44.7735 46.266C44.9281 46.1887 44.9668 46.1115 45.0828 45.9568C45.1601 45.8795 45.1601 45.8021 45.1988 45.6861C45.2375 45.6088 45.2374 45.4929 45.2374 45.3769C45.2374 45.2995 45.2374 45.2222 45.2374 45.1448C45.2374 45.0675 45.1988 44.9902 45.1988 44.9128C45.1601 44.8355 45.1602 44.7582 45.1215 44.7195C45.0828 44.6422 45.0442 44.6036 45.0055 44.5649C44.9282 44.4876 44.8508 44.4102 44.7735 44.3716C44.6961 44.3329 44.6575 44.2943 44.5802 44.2943C44.5415 44.2943 44.5415 44.2942 44.5028 44.2556C44.4255 44.2169 44.3095 44.217 44.1935 44.217C43.9615 44.217 43.7683 44.2943 43.575 44.4103C43.5363 44.4489 43.459 44.4876 43.3816 44.5649C43.343 44.6036 43.2656 44.6809 43.2269 44.7582C43.2269 44.7969 43.1883 44.7969 43.1883 44.8355C43.1497 44.9128 43.1109 44.9902 43.1109 45.0675C43.1109 45.1062 43.1109 45.1835 43.1109 45.2222C43.1109 45.2608 43.0723 45.2995 43.1109 45.3769C43.1109 45.4542 43.111 45.5315 43.1496 45.6088ZM87.9991 68.4589C87.9605 72.1319 87.6898 75.8049 87.3419 79.4392C86.9939 83.1896 86.4912 86.9013 86.0273 90.613C85.7953 92.5075 85.5634 94.3633 85.3314 96.2578C85.1381 97.9203 84.9447 99.5829 84.674 101.207C84.3261 103.256 83.7462 105.305 83.3595 107.354C83.1276 108.437 82.9342 109.558 82.8569 110.679C82.8182 111.375 82.7409 112.264 83.0502 112.883C83.3982 113.54 82.393 114.12 82.045 113.463C81.0011 111.453 79.9572 109.442 78.8359 107.509C76.6321 103.643 74.0803 99.9695 70.7939 96.9538C69.2474 95.5232 67.5462 94.2859 65.6131 93.4354C64.6852 93.0101 63.7185 92.7395 62.7519 92.5462C61.6307 92.3529 60.4708 92.3915 59.3495 92.4302C54.478 92.5462 49.6064 93.1647 44.7349 93.6287C39.9019 94.0926 35.0303 94.402 30.1587 94.4793C25.4031 94.5953 20.6089 94.402 15.892 93.5901C13.5721 93.2034 11.2523 92.6621 9.00985 91.8888C7.11535 91.2702 5.22084 90.4196 3.7903 88.9891C0.774555 86.0507 0.929208 81.6044 1.4705 77.7381C1.7798 75.4183 2.20514 73.1371 2.47578 70.8173C2.78509 68.3428 2.97839 65.8298 3.13304 63.3166C3.40368 58.3291 3.36504 53.3414 3.05573 48.3925C2.70776 43.405 1.9731 38.4561 1.16117 33.5458C-0.230711 25.2719 -1.23592 15.5287 4.87289 8.80128C7.19269 6.2495 10.4018 4.58701 13.6109 3.42711C17.0519 2.22854 20.6862 1.57125 24.3206 1.18461C28.0323 0.759317 31.744 0.604645 35.4557 0.488655C39.3993 0.372665 43.3429 0.140647 47.2866 0.0633201C52.4288 -0.05267 57.5711 -0.01395 62.7133 0.21803C64.9945 0.33402 67.2369 0.488674 69.4794 0.604664C70.8326 0.681991 72.2245 0.68201 73.5777 0.720673C76.3228 0.798 79.1839 0.991298 81.7357 2.1512C84.3261 3.34976 85.718 5.63092 85.9114 8.45335C85.9887 9.41993 86.0273 10.3865 86.1047 11.3531C86.5686 18.9698 86.8779 26.5864 87.1099 34.2031C87.3418 41.8584 87.5352 49.5138 87.8058 57.1305C87.8058 60.9195 88.0378 64.7085 87.9991 68.4589ZM86.8392 66.0618C86.8006 62.2341 86.5686 58.4063 86.4526 54.5787C86.2206 46.8847 85.9886 39.1907 85.7566 31.5354C85.486 23.8413 85.1767 16.1474 84.674 8.45335C84.5967 7.17746 84.2102 5.90149 83.3982 4.89624C81.813 2.92441 79.0679 2.38314 76.6708 2.1125C74.003 1.80319 71.2965 1.91918 68.6288 1.72586C63.6025 1.37789 58.5763 1.18458 53.55 1.14591C48.9104 1.10725 44.3095 1.33929 39.6699 1.49394C32.5945 1.76458 25.4032 1.72592 18.4438 3.23379C15.0801 3.9684 11.7937 5.05093 8.85524 6.86811C5.64618 8.91727 3.44233 11.933 2.24376 15.5287C0.890545 19.6656 0.929265 24.0346 1.43189 28.2876C2.01184 33.1205 3.05569 37.8761 3.59698 42.709C4.71822 52.4522 4.64089 62.35 3.40366 72.0932C3.13302 74.297 2.70772 76.4622 2.43708 78.666C2.2051 80.5991 2.08913 82.6483 2.55309 84.5428C3.05571 86.5533 4.21563 88.1385 5.95548 89.2211C7.69534 90.3423 9.74449 90.9223 11.755 91.4636C14.6934 92.2368 17.6704 92.7394 20.6862 92.9714C20.6862 92.9328 20.6862 92.8941 20.6862 92.8554C20.6862 89.453 20.6476 86.0507 20.5703 82.6483C20.3383 70.74 19.7583 58.8703 19.2556 46.962C14.3841 46.3047 9.51246 45.6475 4.64087 44.9902C4.33157 44.9516 4.17691 44.5649 4.25424 44.2943C4.33157 43.9463 4.64089 43.8303 4.9502 43.9076C9.97644 44.6036 14.9641 45.2609 19.9903 45.9568C20.261 45.9955 20.4155 46.3047 20.4155 46.4981C20.5702 49.9004 20.6862 53.3028 20.8409 56.7052C21.0342 61.3061 21.2275 65.9457 21.3821 70.5467L21.4208 70.5081C26.1378 67.1057 31.28 64.2832 36.6929 62.118C36.7315 62.118 36.7702 62.0794 36.8089 62.0794C37.0022 61.0742 37.1568 60.0689 37.3501 59.0637C38.3167 53.8441 39.2833 48.5858 40.2499 43.3663C37.2728 41.7038 34.2571 40.0026 31.28 38.3401C30.8547 38.1081 30.932 37.5668 31.28 37.3349C32.9425 36.0976 34.605 34.8604 36.2675 33.6231C39.3606 31.3033 42.4151 28.9449 45.5081 26.6637C47.016 25.5425 48.4852 24.3053 50.1477 23.4547C51.037 22.9907 51.9262 22.6427 52.8928 22.4108C52.2742 22.1015 51.6556 21.6762 51.0756 21.0575C49.4131 19.3564 48.6399 13.9435 52.0809 11.1984C53.8594 15.9926 56.6818 16.2247 59.9295 17.0366C60.8574 16.65 61.7854 16.302 62.7519 16.0313C65.1491 15.3354 67.8168 15.4901 69.518 17.5392C70.9872 19.3178 71.2966 21.6375 70.91 23.88C70.4846 26.3544 69.3247 28.6743 67.9715 30.7621C67.3915 31.6514 66.7729 32.5019 66.1156 33.3525C67.1595 33.3912 68.0102 34.0098 68.5901 34.8604C69.2088 35.7883 69.3247 36.9869 69.2087 38.0694C69.0927 39.268 68.7835 40.5053 68.3195 41.5878C67.5076 43.4823 65.7677 45.0288 63.6412 44.9128C63.5639 45.0675 63.4479 45.1448 63.2933 45.2222C63.0226 45.5701 62.7133 45.9181 62.404 46.2274C62.404 46.2661 62.4426 46.3048 62.4426 46.3434C63.2159 51.9496 64.1825 57.5171 65.3038 63.046C65.4197 63.046 65.5358 63.0847 65.6131 63.162C69.8661 66.5644 73.9256 70.2374 77.7146 74.1424C78.2173 74.6837 77.4054 75.4956 76.9028 74.9543C73.3071 71.2427 69.4794 67.763 65.4584 64.5152C64.4145 66.2164 62.5587 67.2216 60.6642 67.8789C58.4603 68.6522 56.1405 69.1935 53.8594 69.6961C51.3849 70.1987 48.7945 70.5466 46.2814 70.2373C46.0881 70.1987 45.8561 70.16 45.6627 70.16C45.6627 70.3147 45.6241 70.4694 45.5081 70.5854C43.4976 72.5572 40.1339 73.0212 37.7368 71.4746C35.3783 69.9668 34.257 66.8737 35.1076 64.2059C35.1463 64.0899 35.2236 63.9739 35.3009 63.9353C30.6227 65.9458 26.1764 68.4976 22.0394 71.4746C21.8074 71.6293 21.6141 71.5906 21.4594 71.4746C21.6141 75.9209 21.7301 80.3672 21.8075 84.8135C23.3927 83.035 26.1764 82.4937 28.2642 83.7309C28.9215 84.1175 28.3416 85.1227 27.6843 84.7361C25.9831 83.7309 23.586 84.2335 22.4647 85.8574C22.3101 86.0507 22.0781 86.1667 21.8461 86.128C21.8847 87.8679 21.8848 89.569 21.8848 91.3089C23.354 89.9557 25.5578 89.453 27.4523 90.149C27.7616 90.265 27.9549 90.5356 27.8389 90.8449C27.7616 91.1156 27.4137 91.3476 27.143 91.2316C25.4418 90.613 23.47 91.1543 22.3101 92.5462C22.1941 92.6622 22.0781 92.7008 21.9235 92.7008C21.9235 92.7395 21.9235 92.7781 21.9235 92.8168C21.9235 92.8941 21.9234 92.9328 21.8848 93.0101C27.9549 93.4354 34.0637 93.0874 40.1339 92.7008C44.9281 92.3915 49.6838 91.7729 54.478 91.3863C56.8365 91.193 59.2722 91.0382 61.6693 91.1156C63.6025 91.1929 65.4584 91.8115 67.1596 92.7008C70.794 94.634 73.771 97.7657 76.2068 101.013C78.372 103.875 80.1505 107.006 81.813 110.177C81.929 108.707 82.277 107.238 82.5863 105.846C83.0116 103.797 83.5915 101.709 83.8622 99.6215C84.8288 92.0821 85.9113 84.5428 86.5299 77.0034C86.6846 73.4851 86.8779 69.7735 86.8392 66.0618ZM36.5382 63.5873V63.5486C36.1902 63.7033 35.8423 63.8192 35.533 63.9739C35.9196 63.9352 36.3449 64.2059 36.1902 64.6698C35.4943 66.835 36.3448 69.3867 38.278 70.624C40.1725 71.8225 42.8017 71.5519 44.5028 70.044C41.2551 69.2321 38.2008 67.299 36.8089 64.2059C36.6156 64.0899 36.4608 63.8579 36.5382 63.5873ZM41.4098 43.3277C41.2938 43.985 41.1778 44.6809 41.0231 45.3382C39.9019 51.3696 38.7806 57.4011 37.6981 63.4712C37.6981 63.5099 37.7368 63.51 37.7368 63.5486C38.5873 65.4432 40.0566 66.8736 41.8351 67.8402C45.7401 69.9667 50.3023 69.5028 54.5166 68.5362C56.6044 68.0722 58.6923 67.5696 60.7028 66.7963C62.1333 66.255 63.5252 65.4431 64.3758 64.1672C64.2985 64.0899 64.2211 64.0125 64.1825 63.8579C63.0612 58.4063 62.1333 52.9162 61.3214 47.3873C58.7696 49.7458 55.5992 51.447 52.1968 52.2203C51.9262 52.6069 51.5396 52.8389 51.0756 52.9935C50.5343 53.1868 49.8384 53.3029 49.2585 53.3029C48.6785 53.3029 48.0986 53.1482 47.6346 52.7229C47.4026 52.4909 47.2479 52.2203 47.1706 51.9496C47.0159 52.027 46.784 52.0656 46.6293 51.9496C46.3587 51.795 46.2427 51.4083 46.436 51.1377C47.0546 50.2097 48.0599 49.6298 49.1424 49.5138C50.0704 49.3978 51.0369 49.6298 51.8102 50.2098C52.0808 50.4031 52.2741 50.6737 52.3901 50.9831C56.0245 50.0551 59.3496 48.0446 61.8241 45.2609C61.1281 45.0289 60.5095 44.5649 60.0455 43.9849C59.2722 42.9797 59.0789 41.7038 59.2722 40.4665C59.5042 39.1133 60.2001 37.8375 61.0894 36.7162L60.5481 36.6002C57.8804 33.7778 59.2336 30.7621 59.0016 28.2103C58.6923 24.6919 57.0298 24.1506 54.9807 23.4547H54.942C53.0088 23.4933 51.1916 24.1893 49.5678 25.2332C47.9826 26.2385 46.5133 27.4371 45.0441 28.5583C43.5362 29.6795 42.0284 30.8394 40.5205 31.9606C37.8914 33.9711 35.2237 35.943 32.5559 37.9148C35.417 39.5387 38.2394 41.1238 41.1004 42.709C41.3711 42.825 41.4484 43.0957 41.4098 43.3277ZM67.2755 29.7955C69.2474 26.5864 71.4512 21.4442 68.3968 18.2351C66.657 16.4566 64.1438 16.9205 62.056 17.6552C61.94 17.6938 61.824 17.7325 61.708 17.7712C62.9453 18.2351 64.2598 18.8924 65.5744 20.0137C68.0875 22.1015 68.2421 26.0452 67.2755 29.7955ZM60.3935 41.0079C60.2775 42.4771 61.1668 44.101 62.6746 44.217C62.7133 44.1783 62.752 44.1396 62.7906 44.101C62.984 43.8303 63.3319 43.7916 63.5639 43.9076C65.6517 44.1783 67.0436 42.0905 67.5849 40.3506C68.0488 38.8041 68.5901 36.5615 67.3142 35.247C65.961 33.7778 64.1439 35.2857 63.1 36.3296C61.8241 37.6055 60.5095 39.1134 60.3935 41.0079ZM51.1529 51.2537C51.1916 51.2537 51.2303 51.2536 51.2689 51.215C51.2303 51.1763 51.1916 51.1376 51.1529 51.099C50.9209 50.9057 50.689 50.7897 50.4184 50.7123C49.9931 50.5963 49.5677 50.5577 49.1424 50.635C49.1424 50.6737 49.1424 50.7124 49.1424 50.7897C49.1424 51.099 48.8718 51.4084 48.5625 51.3697C48.4852 51.3697 48.5239 51.331 48.4852 51.3697C48.4465 51.3697 48.4465 51.3697 48.4079 51.447C48.3306 51.563 48.3305 51.6016 48.3692 51.6789C48.4078 51.7562 48.4852 51.8723 48.6012 51.9496C48.7172 52.027 48.8718 52.1043 49.0264 52.1043C49.4517 52.1816 49.8771 52.0656 50.3024 51.9882C50.457 51.9496 50.6116 51.9109 50.7663 51.8722C50.689 51.6016 50.7663 51.2923 51.1529 51.2537ZM63.4479 38.3014C64.1825 38.7267 64.9171 39.152 65.6517 39.5387C65.9223 39.6933 66.309 39.616 66.4637 39.3453C66.6183 39.0747 66.541 38.7267 66.2703 38.5334C65.5357 38.1081 64.8012 37.6828 64.0665 37.2962C63.7959 37.1415 63.4092 37.2188 63.2546 37.4895C63.0999 37.7988 63.1773 38.1468 63.4479 38.3014ZM62.52 40.1959C63.4866 40.6599 64.4145 41.1625 65.3811 41.6264C65.6517 41.7811 66.0384 41.7038 66.193 41.4331C66.3477 41.1625 66.2704 40.7759 65.9997 40.6213C65.0331 40.1573 64.1052 39.6547 63.1386 39.1907C62.8679 39.0361 62.4813 39.1134 62.3267 39.384C62.172 39.6547 62.2494 40.0413 62.52 40.1959ZM14.616 81.0631C14.5774 83.8855 14.4614 86.6693 14.3067 89.4917C14.2681 90.2263 15.428 90.2263 15.4666 89.4917C15.9692 79.6712 15.9306 69.8121 15.3893 59.9529C15.2347 57.1305 15.0413 54.3467 14.8094 51.5243C14.732 50.7897 13.5721 50.7897 13.6495 51.5243C14.5001 61.3448 14.8094 71.2039 14.616 81.0631ZM43.2269 91.193C40.4432 89.1825 38.2394 86.5147 35.649 84.2336C33.2518 82.1071 30.4294 80.3672 27.1816 79.9419C25.4418 79.7099 23.7019 79.9806 22.1554 80.7538C21.4981 81.1018 22.0781 82.0683 22.7353 81.759C25.4418 80.4058 28.6508 81.1018 31.2413 82.4937C34.0637 84.0016 36.2288 86.36 38.4713 88.6024C39.7859 89.917 41.1391 91.1543 42.647 92.2368C43.2656 92.6235 43.8455 91.6183 43.2269 91.193ZM29.0762 87.4425C26.911 86.0507 23.934 86.3213 22.0008 88.0225C21.4208 88.5251 22.2714 89.3371 22.8127 88.8345C24.3592 87.4812 26.7564 87.3652 28.4962 88.4478C29.1149 88.8731 29.7335 87.8678 29.0762 87.4425Z" fill="#3F4254"/>
</svg>
