<svg width="30" height="30" viewBox="0 0 30 30" fill="none" xmlns="http://www.w3.org/2000/svg">
<path opacity="0.3" d="M19.3125 7.49991C19.254 6.18685 18.6808 4.94964 17.717 4.056C16.7531 3.16236 15.4762 2.68417 14.1625 2.72491H8.74999C7.42778 2.67068 6.13799 3.14283 5.16328 4.03788C4.18857 4.93293 3.60843 6.17788 3.54999 7.49991V22.4999C3.60521 23.8241 4.18395 25.0723 5.15902 25.97C6.13409 26.8677 7.4257 27.3416 8.74999 27.2874H14.2125C15.5198 27.3147 16.7857 26.8289 17.739 25.934C18.6924 25.039 19.2572 23.8063 19.3125 22.4999V7.49991Z" fill="#A1A5B7"/>
<path d="M10.8625 14.0624H23.25L21.25 12.0124C21.0744 11.8366 20.9758 11.5984 20.9758 11.3499C20.9758 11.1015 21.0744 10.8632 21.25 10.6874C21.3362 10.599 21.4392 10.5287 21.553 10.4807C21.6668 10.4327 21.789 10.408 21.9125 10.408C22.036 10.408 22.1582 10.4327 22.272 10.4807C22.3858 10.5287 22.4888 10.599 22.575 10.6874L26.2375 14.3374C26.413 14.5132 26.5117 14.7515 26.5117 14.9999C26.5117 15.2484 26.413 15.4866 26.2375 15.6624L22.5 19.3124C22.4139 19.4006 22.3108 19.4705 22.1969 19.5177C22.083 19.565 21.9608 19.5887 21.8375 19.5874C21.7143 19.588 21.5923 19.564 21.4785 19.5168C21.3647 19.4695 21.2615 19.4001 21.175 19.3124C20.9994 19.1366 20.9008 18.8984 20.9008 18.6499C20.9008 18.4015 20.9994 18.1632 21.175 17.9874L23.2375 15.9374H10.8625C10.6138 15.9374 10.3754 15.8386 10.1996 15.6628C10.0238 15.487 9.92499 15.2486 9.92499 14.9999C9.92499 14.7513 10.0238 14.5128 10.1996 14.337C10.3754 14.1612 10.6138 14.0624 10.8625 14.0624Z" fill="#A1A5B7"/>
</svg>
