<svg width="26" height="26" viewBox="0 0 26 26" fill="none" xmlns="http://www.w3.org/2000/svg">
<path d="M7.6625 0.475006H4.0375C2.08379 0.475006 0.5 2.0588 0.5 4.01251V7.63751C0.5 9.59121 2.08379 11.175 4.0375 11.175H7.6625C9.61621 11.175 11.2 9.59121 11.2 7.63751V4.01251C11.2 2.0588 9.61621 0.475006 7.6625 0.475006Z" fill="white"/>
<path opacity="0.3" d="M21.9625 0.512512H18.3375C16.3838 0.512512 14.8 2.09631 14.8 4.05001V7.67501C14.8 9.62872 16.3838 11.2125 18.3375 11.2125H21.9625C23.9162 11.2125 25.5 9.62872 25.5 7.67501V4.05001C25.5 2.09631 23.9162 0.512512 21.9625 0.512512Z" fill="white"/>
<path opacity="0.3" d="M7.6625 14.7875H4.0375C2.08379 14.7875 0.5 16.3713 0.5 18.325V21.95C0.5 23.9037 2.08379 25.4875 4.0375 25.4875H7.6625C9.61621 25.4875 11.2 23.9037 11.2 21.95V18.325C11.2 16.3713 9.61621 14.7875 7.6625 14.7875Z" fill="white"/>
<path d="M21.9625 14.825H18.3375C16.3838 14.825 14.8 16.4088 14.8 18.3625V21.9875C14.8 23.9412 16.3838 25.525 18.3375 25.525H21.9625C23.9162 25.525 25.5 23.9412 25.5 21.9875V18.3625C25.5 16.4088 23.9162 14.825 21.9625 14.825Z" fill="white"/>
</svg>
