<svg width="18" height="18" viewBox="0 0 18 18" fill="none" xmlns="http://www.w3.org/2000/svg">
<g clip-path="url(#clip0_24_554)">
<path fill-rule="evenodd" clip-rule="evenodd" d="M9 0C13.9706 0 18 4.02943 18 9C18 13.9706 13.9706 18 9 18C4.02943 18 0 13.9706 0 9C0 4.02943 4.02943 0 9 0ZM5.17887 9.32541V9C5.17887 6.89836 6.89836 5.17887 9 5.17887C11.1016 5.17887 12.8211 6.89836 12.8211 9V9.32541H11.8844C11.5488 9.32541 11.2438 9.46245 11.0231 9.68326C10.8023 9.90408 10.6652 10.209 10.6652 10.5446V12.3327C10.6652 12.6683 10.8023 12.9732 11.0231 13.194C11.2439 13.4148 11.5488 13.5519 11.8844 13.5519H12.6632C12.9082 13.5519 13.1304 13.4521 13.2913 13.2912C13.4522 13.1304 13.5519 12.9081 13.5519 12.6632V9C13.5519 6.49649 11.5035 4.44814 9 4.44814C6.49649 4.44814 4.44814 6.49649 4.44814 9V12.6632C4.44814 12.9081 4.54788 13.1304 4.70876 13.2912C4.86963 13.4521 5.09186 13.5519 5.33682 13.5519H6.11564C6.45128 13.5519 6.75615 13.4148 6.97697 13.194C7.19775 12.9732 7.33482 12.6683 7.33482 12.3327V10.5446C7.33482 10.209 7.19775 9.90404 6.97697 9.68326C6.75615 9.46248 6.45128 9.32541 6.11564 9.32541H5.17887Z" fill="#3E97FF"/>
</g>
<defs>
<clipPath id="clip0_24_554">
<rect width="18" height="18" fill="white"/>
</clipPath>
</defs>
</svg>
