<svg width="162" height="163" viewBox="0 0 162 163" fill="none" xmlns="http://www.w3.org/2000/svg">
<path d="M49.4498 17.717C48.1718 17.717 46.9262 18.167 46.046 19.0454C45.164 19.9202 44.714 21.1748 44.714 22.4492V140.623C44.714 141.897 45.164 143.143 46.046 144.025C46.9262 144.907 48.1718 145.357 49.4498 145.357H112.666C113.94 145.357 115.197 144.907 116.068 144.025C116.952 143.143 117.4 141.897 117.4 140.623V22.4492C117.4 21.1748 116.95 19.9202 116.068 19.0454C115.197 18.1652 113.94 17.717 112.666 17.717H102.906C102.138 17.717 101.454 18.176 101.164 18.887L99.7094 22.4492C99.2396 23.6138 98.867 24.1844 98.273 24.5696C97.6934 24.9638 96.662 25.2914 94.637 25.2914H67.475C65.4518 25.2914 64.4204 24.962 63.839 24.5696C63.2486 24.1862 62.8724 23.6156 62.4044 22.4492L60.9518 18.887C60.6674 18.1832 59.9834 17.717 59.2256 17.717H49.4498Z" fill="#9EDCFF"/>
<path d="M49.1649 13.676H112.946C117.55 13.676 121.185 17.33 121.185 21.9254V141.147C121.185 145.74 117.549 149.398 112.946 149.398H49.1649C44.5641 149.398 40.9245 145.74 40.9245 141.147V21.9254C40.9263 17.3318 44.5641 13.676 49.1649 13.676ZM49.1649 9.94458C42.5589 9.94458 37.1841 15.3194 37.1841 21.9254V141.147C37.1841 147.756 42.5589 153.127 49.1649 153.127H112.946C119.556 153.127 124.936 147.756 124.936 141.147V21.9254C124.936 15.3194 119.556 9.94458 112.946 9.94458H49.1649Z" fill="#7E94B5"/>
<path d="M75.0235 17.717C73.9813 17.717 73.1497 18.5486 73.1497 19.5908C73.1497 20.6312 73.9813 21.4664 75.0235 21.4664H88.0357C89.0671 21.4664 89.9113 20.6312 89.9113 19.5908C89.9113 18.5486 89.0671 17.717 88.0357 17.717H75.0235Z" fill="#B5B5C3"/>
</svg>
