<svg width="22" height="22" viewBox="0 0 22 22" fill="none" xmlns="http://www.w3.org/2000/svg">
<path opacity="0.3" d="M10.9999 20.1666C16.0625 20.1666 20.1666 16.0625 20.1666 10.9999C20.1666 5.93731 16.0625 1.83325 10.9999 1.83325C5.93731 1.83325 1.83325 5.93731 1.83325 10.9999C1.83325 16.0625 5.93731 20.1666 10.9999 20.1666Z" fill="#3E97FF"/>
<path d="M14.8958 11.6875H11C10.8184 11.6851 10.6449 11.6119 10.5165 11.4835C10.3881 11.3551 10.3149 11.1816 10.3125 11V5.5C10.3125 5.31766 10.3849 5.1428 10.5139 5.01386C10.6428 4.88493 10.8177 4.8125 11 4.8125C11.1823 4.8125 11.3572 4.88493 11.4861 5.01386C11.6151 5.1428 11.6875 5.31766 11.6875 5.5V10.3308H14.8958C15.0782 10.3308 15.253 10.4033 15.382 10.5322C15.5109 10.6611 15.5833 10.836 15.5833 11.0183C15.5833 11.2007 15.5109 11.3755 15.382 11.5045C15.253 11.6334 15.0782 11.7058 14.8958 11.7058V11.6875Z" fill="#3E97FF"/>
</svg>
