<svg width="162" height="163" viewBox="0 0 162 163" fill="none" xmlns="http://www.w3.org/2000/svg">
<path d="M49.4498 17.7168C48.1718 17.7168 46.9262 18.1668 46.046 19.0452C45.164 19.92 44.714 21.1746 44.714 22.449V140.623C44.714 141.897 45.164 143.143 46.046 144.025C46.9262 144.907 48.1718 145.357 49.4498 145.357H112.666C113.94 145.357 115.197 144.907 116.068 144.025C116.952 143.143 117.4 141.897 117.4 140.623V22.449C117.4 21.1746 116.95 19.92 116.068 19.0452C115.197 18.165 113.94 17.7168 112.666 17.7168H102.906C102.138 17.7168 101.454 18.1758 101.164 18.8868L99.7094 22.449C99.2396 23.6136 98.867 24.1842 98.273 24.5694C97.6934 24.9636 96.662 25.2912 94.637 25.2912H67.475C65.4518 25.2912 64.4204 24.9618 63.839 24.5694C63.2486 24.186 62.8724 23.6154 62.4044 22.449L60.9518 18.8868C60.6674 18.183 59.9834 17.7168 59.2256 17.7168H49.4498Z" fill="#FE0000" fill-opacity="0.24"/>
<path d="M49.1649 13.6757H112.946C117.55 13.6757 121.185 17.3297 121.185 21.9251V141.146C121.185 145.74 117.549 149.398 112.946 149.398H49.1649C44.5641 149.398 40.9245 145.74 40.9245 141.146V21.9251C40.9263 17.3315 44.5641 13.6757 49.1649 13.6757ZM49.1649 9.94434C42.5589 9.94434 37.1841 15.3191 37.1841 21.9251V141.146C37.1841 147.756 42.5589 153.127 49.1649 153.127H112.946C119.556 153.127 124.936 147.756 124.936 141.146V21.9251C124.936 15.3191 119.556 9.94434 112.946 9.94434H49.1649Z" fill="#7E94B5"/>
<path d="M75.0235 17.7168C73.9813 17.7168 73.1497 18.5484 73.1497 19.5906C73.1497 20.631 73.9813 21.4662 75.0235 21.4662H88.0357C89.0671 21.4662 89.9113 20.631 89.9113 19.5906C89.9113 18.5484 89.0671 17.7168 88.0357 17.7168H75.0235Z" fill="#B5B5C3"/>
</svg>
