<svg width="680" height="374" viewBox="0 0 680 374" fill="none" xmlns="http://www.w3.org/2000/svg">
<rect width="680" height="374" rx="12" fill="white"/>
<path d="M31.0951 36V34.7628L34.3774 31.5451C34.6913 31.2281 34.9529 30.9465 35.1622 30.7003C35.3715 30.4541 35.5284 30.2156 35.6331 29.9847C35.7377 29.7539 35.79 29.5077 35.79 29.2461C35.79 28.9476 35.7223 28.6921 35.5869 28.4798C35.4515 28.2643 35.2653 28.0981 35.0283 27.9812C34.7913 27.8642 34.522 27.8058 34.2204 27.8058C33.9096 27.8058 33.6372 27.8704 33.4033 27.9996C33.1694 28.1258 32.9878 28.3059 32.8586 28.5398C32.7324 28.7737 32.6693 29.0522 32.6693 29.3754H31.0397C31.0397 28.7752 31.1766 28.2536 31.4506 27.8104C31.7245 27.3672 32.1015 27.024 32.5816 26.7809C33.0648 26.5378 33.6188 26.4162 34.2435 26.4162C34.8775 26.4162 35.4346 26.5347 35.9147 26.7717C36.3948 27.0086 36.7672 27.3333 37.0319 27.7457C37.2996 28.1581 37.4335 28.629 37.4335 29.1584C37.4335 29.5123 37.3658 29.8601 37.2304 30.2017C37.095 30.5433 36.8564 30.9219 36.5148 31.3374C36.1763 31.7528 35.7008 32.256 35.0883 32.8469L33.4587 34.5043V34.5689H37.5766V36H31.0951ZM42.664 36.18C41.9038 36.18 41.2513 35.9877 40.7066 35.603C40.1649 35.2152 39.7479 34.6566 39.4555 33.9272C39.1662 33.1947 39.0216 32.313 39.0216 31.282C39.0247 30.2509 39.1708 29.3738 39.4601 28.6506C39.7525 27.9242 40.1695 27.3703 40.7112 26.9886C41.2559 26.607 41.9069 26.4162 42.664 26.4162C43.4211 26.4162 44.072 26.607 44.6167 26.9886C45.1615 27.3703 45.5785 27.9242 45.8678 28.6506C46.1602 29.3769 46.3064 30.254 46.3064 31.282C46.3064 32.3161 46.1602 33.1993 45.8678 33.9318C45.5785 34.6612 45.1615 35.2183 44.6167 35.603C44.0751 35.9877 43.4242 36.18 42.664 36.18ZM42.664 34.7351C43.2549 34.7351 43.7211 34.4442 44.0628 33.8626C44.4075 33.2778 44.5798 32.4176 44.5798 31.282C44.5798 30.531 44.5013 29.9001 44.3444 29.3892C44.1874 28.8783 43.9658 28.4936 43.6796 28.2351C43.3934 27.9735 43.0548 27.8427 42.664 27.8427C42.0761 27.8427 41.6114 28.1351 41.2698 28.7198C40.9282 29.3015 40.7558 30.1555 40.7528 31.282C40.7497 32.036 40.8251 32.67 40.979 33.1839C41.1359 33.6979 41.3575 34.0857 41.6437 34.3473C41.93 34.6058 42.27 34.7351 42.664 34.7351Z" fill="#7E8299"/>
<path d="M37.2131 93.0455V102.5H35.5004V94.712H35.445L33.2337 96.1246V94.555L35.5835 93.0455H37.2131ZM42.9006 102.629C42.285 102.629 41.7341 102.514 41.2479 102.283C40.7616 102.049 40.3754 101.729 40.0891 101.323C39.806 100.917 39.6552 100.452 39.6367 99.9286H41.2987C41.3294 100.316 41.4972 100.633 41.8018 100.88C42.1065 101.123 42.4728 101.244 42.9006 101.244C43.236 101.244 43.5346 101.167 43.7962 101.013C44.0578 100.86 44.264 100.646 44.4148 100.372C44.5656 100.098 44.6394 99.7855 44.6364 99.4347C44.6394 99.0777 44.564 98.7607 44.4102 98.4837C44.2563 98.2067 44.0455 97.9897 43.7777 97.8327C43.5099 97.6727 43.2022 97.5927 42.8544 97.5927C42.5713 97.5896 42.2927 97.6419 42.0188 97.7496C41.7449 97.8574 41.5279 97.9989 41.3679 98.1744L39.8214 97.9205L40.3153 93.0455H45.7997V94.4766H41.7326L41.4602 96.9833H41.5156C41.6911 96.7771 41.9388 96.6063 42.2589 96.4709C42.579 96.3324 42.9298 96.2631 43.3114 96.2631C43.8839 96.2631 44.3948 96.3986 44.8441 96.6694C45.2934 96.9371 45.6474 97.3065 45.9059 97.7773C46.1644 98.2482 46.2937 98.7868 46.2937 99.3931C46.2937 100.018 46.149 100.575 45.8597 101.064C45.5735 101.551 45.175 101.934 44.6641 102.214C44.1562 102.491 43.5684 102.629 42.9006 102.629Z" fill="#7E8299"/>
<path d="M36.7687 159.545V169H35.056V161.212H35.0006L32.7893 162.625V161.055L35.1391 159.545H36.7687ZM42.664 169.18C41.9038 169.18 41.2513 168.988 40.7066 168.603C40.1649 168.215 39.7479 167.657 39.4555 166.927C39.1662 166.195 39.0216 165.313 39.0216 164.282C39.0247 163.251 39.1708 162.374 39.4601 161.651C39.7525 160.924 40.1695 160.37 40.7112 159.989C41.2559 159.607 41.9069 159.416 42.664 159.416C43.4211 159.416 44.072 159.607 44.6167 159.989C45.1615 160.37 45.5785 160.924 45.8678 161.651C46.1602 162.377 46.3064 163.254 46.3064 164.282C46.3064 165.316 46.1602 166.199 45.8678 166.932C45.5785 167.661 45.1615 168.218 44.6167 168.603C44.0751 168.988 43.4242 169.18 42.664 169.18ZM42.664 167.735C43.2549 167.735 43.7211 167.444 44.0628 166.863C44.4075 166.278 44.5798 165.418 44.5798 164.282C44.5798 163.531 44.5013 162.9 44.3444 162.389C44.1874 161.878 43.9658 161.494 43.6796 161.235C43.3934 160.973 43.0548 160.843 42.664 160.843C42.0761 160.843 41.6114 161.135 41.2698 161.72C40.9282 162.301 40.7558 163.156 40.7528 164.282C40.7497 165.036 40.8251 165.67 40.979 166.184C41.1359 166.698 41.3575 167.086 41.6437 167.347C41.93 167.606 42.27 167.735 42.664 167.735Z" fill="#7E8299"/>
<path d="M42.9006 235.629C42.285 235.629 41.7341 235.514 41.2479 235.283C40.7616 235.049 40.3754 234.729 40.0891 234.323C39.806 233.917 39.6552 233.452 39.6367 232.929H41.2987C41.3294 233.316 41.4972 233.633 41.8018 233.88C42.1065 234.123 42.4728 234.244 42.9006 234.244C43.236 234.244 43.5346 234.167 43.7962 234.013C44.0578 233.86 44.264 233.646 44.4148 233.372C44.5656 233.098 44.6394 232.786 44.6364 232.435C44.6394 232.078 44.564 231.761 44.4102 231.484C44.2563 231.207 44.0455 230.99 43.7777 230.833C43.5099 230.673 43.2022 230.593 42.8544 230.593C42.5713 230.59 42.2927 230.642 42.0188 230.75C41.7449 230.857 41.5279 230.999 41.3679 231.174L39.8214 230.92L40.3153 226.045H45.7997V227.477H41.7326L41.4602 229.983H41.5156C41.6911 229.777 41.9388 229.606 42.2589 229.471C42.579 229.332 42.9298 229.263 43.3114 229.263C43.8839 229.263 44.3948 229.399 44.8441 229.669C45.2934 229.937 45.6474 230.306 45.9059 230.777C46.1644 231.248 46.2937 231.787 46.2937 232.393C46.2937 233.018 46.149 233.575 45.8597 234.064C45.5735 234.551 45.175 234.934 44.6641 235.214C44.1562 235.491 43.5684 235.629 42.9006 235.629Z" fill="#7E8299"/>
<path d="M45.4396 292.545V302H43.7269V294.212H43.6715L41.4602 295.625V294.055L43.81 292.545H45.4396Z" fill="#7E8299"/>
<line x1="57.5" y1="33.5" x2="643.5" y2="33.5" stroke="#E1E3EA" stroke-linecap="square" stroke-dasharray="2 3"/>
<line x1="57.5" y1="99.75" x2="643.5" y2="99.75" stroke="#E1E3EA" stroke-linecap="square" stroke-dasharray="2 3"/>
<line x1="57.5" y1="166" x2="643.5" y2="166" stroke="#E1E3EA" stroke-linecap="square" stroke-dasharray="2 3"/>
<line x1="57.5" y1="232.25" x2="643.5" y2="232.25" stroke="#E1E3EA" stroke-linecap="square" stroke-dasharray="2 3"/>
<line x1="57.5" y1="298.5" x2="643.5" y2="298.5" stroke="#E1E3EA" stroke-linecap="square" stroke-dasharray="2 3"/>
<path d="M102.218 334.281V330.601H102.85C103.063 330.432 103.261 330.193 103.446 329.886C103.63 329.578 103.787 329.156 103.917 328.621C104.046 328.085 104.135 327.393 104.184 326.543L104.434 322.545H110.477V330.601H111.529V334.271H109.886V332H103.861V334.281H102.218ZM104.845 330.601H108.833V323.981H105.976L105.828 326.543C105.788 327.187 105.723 327.762 105.634 328.27C105.545 328.778 105.432 329.225 105.297 329.613C105.162 329.998 105.011 330.327 104.845 330.601ZM115.99 332.138C115.279 332.138 114.665 331.991 114.148 331.695C113.634 331.397 113.238 330.975 112.961 330.43C112.684 329.883 112.546 329.238 112.546 328.496C112.546 327.767 112.684 327.127 112.961 326.576C113.242 326.022 113.632 325.591 114.134 325.283C114.636 324.972 115.225 324.817 115.902 324.817C116.339 324.817 116.752 324.888 117.139 325.029C117.53 325.168 117.875 325.383 118.173 325.675C118.475 325.968 118.712 326.34 118.884 326.793C119.057 327.242 119.143 327.777 119.143 328.399V328.912H113.331V327.785H117.541C117.538 327.465 117.469 327.18 117.333 326.931C117.198 326.679 117.009 326.48 116.765 326.336C116.525 326.191 116.245 326.119 115.925 326.119C115.584 326.119 115.284 326.202 115.025 326.368C114.766 326.531 114.565 326.746 114.42 327.014C114.279 327.279 114.206 327.57 114.203 327.887V328.87C114.203 329.282 114.279 329.636 114.429 329.932C114.58 330.224 114.791 330.449 115.062 330.606C115.333 330.76 115.65 330.837 116.013 330.837C116.256 330.837 116.476 330.803 116.673 330.735C116.87 330.664 117.041 330.561 117.186 330.426C117.33 330.29 117.439 330.123 117.513 329.923L119.074 330.098C118.975 330.51 118.787 330.871 118.51 331.178C118.237 331.483 117.886 331.72 117.458 331.889C117.03 332.055 116.541 332.138 115.99 332.138ZM120.557 332V324.909H122.228V327.771H122.837L124.97 324.909H126.983L124.356 328.39L127.011 332H124.989L123.045 329.327H122.228V332H120.557ZM134.659 332.18C133.899 332.18 133.246 331.988 132.701 331.603C132.16 331.215 131.743 330.657 131.45 329.927C131.161 329.195 131.016 328.313 131.016 327.282C131.02 326.251 131.166 325.374 131.455 324.651C131.747 323.924 132.164 323.37 132.706 322.989C133.251 322.607 133.902 322.416 134.659 322.416C135.416 322.416 136.067 322.607 136.612 322.989C137.156 323.37 137.573 323.924 137.863 324.651C138.155 325.377 138.301 326.254 138.301 327.282C138.301 328.316 138.155 329.199 137.863 329.932C137.573 330.661 137.156 331.218 136.612 331.603C136.07 331.988 135.419 332.18 134.659 332.18ZM134.659 330.735C135.25 330.735 135.716 330.444 136.058 329.863C136.402 329.278 136.575 328.418 136.575 327.282C136.575 326.531 136.496 325.9 136.339 325.389C136.182 324.878 135.961 324.494 135.675 324.235C135.388 323.973 135.05 323.843 134.659 323.843C134.071 323.843 133.606 324.135 133.265 324.72C132.923 325.301 132.751 326.156 132.748 327.282C132.745 328.036 132.82 328.67 132.974 329.184C133.131 329.698 133.352 330.086 133.639 330.347C133.925 330.606 134.265 330.735 134.659 330.735ZM143.196 332.129C142.51 332.129 141.9 332.014 141.368 331.783C140.838 331.552 140.423 331.237 140.121 330.837C139.823 330.433 139.675 329.976 139.678 329.466C139.675 329.069 139.761 328.704 139.937 328.371C140.112 328.039 140.349 327.762 140.648 327.54C140.949 327.316 141.285 327.173 141.654 327.111V327.047C141.168 326.939 140.774 326.691 140.472 326.303C140.174 325.912 140.026 325.462 140.029 324.951C140.026 324.464 140.161 324.03 140.435 323.649C140.709 323.267 141.085 322.967 141.562 322.749C142.039 322.527 142.583 322.416 143.196 322.416C143.802 322.416 144.342 322.527 144.816 322.749C145.293 322.967 145.669 323.267 145.943 323.649C146.22 324.03 146.358 324.464 146.358 324.951C146.358 325.462 146.206 325.912 145.901 326.303C145.6 326.691 145.21 326.939 144.733 327.047V327.111C145.103 327.173 145.435 327.316 145.73 327.54C146.029 327.762 146.266 328.039 146.441 328.371C146.62 328.704 146.709 329.069 146.709 329.466C146.709 329.976 146.558 330.433 146.257 330.837C145.955 331.237 145.54 331.552 145.01 331.783C144.484 332.014 143.879 332.129 143.196 332.129ZM143.196 330.809C143.55 330.809 143.858 330.749 144.119 330.629C144.381 330.506 144.584 330.333 144.729 330.112C144.873 329.89 144.947 329.635 144.95 329.346C144.947 329.044 144.869 328.778 144.715 328.547C144.564 328.313 144.356 328.13 144.091 327.998C143.83 327.865 143.531 327.799 143.196 327.799C142.857 327.799 142.556 327.865 142.291 327.998C142.026 328.13 141.817 328.313 141.663 328.547C141.512 328.778 141.439 329.044 141.442 329.346C141.439 329.635 141.509 329.89 141.654 330.112C141.799 330.33 142.002 330.501 142.263 330.624C142.528 330.747 142.839 330.809 143.196 330.809ZM143.196 326.502C143.485 326.502 143.741 326.443 143.962 326.326C144.187 326.209 144.364 326.046 144.493 325.837C144.622 325.628 144.689 325.386 144.692 325.112C144.689 324.841 144.624 324.604 144.498 324.401C144.372 324.195 144.196 324.037 143.971 323.926C143.747 323.812 143.488 323.755 143.196 323.755C142.897 323.755 142.634 323.812 142.406 323.926C142.182 324.037 142.006 324.195 141.88 324.401C141.757 324.604 141.697 324.841 141.7 325.112C141.697 325.386 141.759 325.628 141.885 325.837C142.014 326.043 142.191 326.206 142.416 326.326C142.643 326.443 142.904 326.502 143.196 326.502Z" fill="#7E8299"/>
<path d="M177.484 334.281V330.601H178.117C178.329 330.432 178.528 330.193 178.712 329.886C178.897 329.578 179.054 329.156 179.183 328.621C179.313 328.085 179.402 327.393 179.451 326.543L179.7 322.545H185.743V330.601H186.796V334.271H185.152V332H179.128V334.281H177.484ZM180.111 330.601H184.1V323.981H181.242L181.094 326.543C181.054 327.187 180.99 327.762 180.901 328.27C180.811 328.778 180.699 329.225 180.564 329.613C180.428 329.998 180.277 330.327 180.111 330.601ZM191.257 332.138C190.546 332.138 189.932 331.991 189.415 331.695C188.901 331.397 188.505 330.975 188.228 330.43C187.951 329.883 187.813 329.238 187.813 328.496C187.813 327.767 187.951 327.127 188.228 326.576C188.508 326.022 188.899 325.591 189.401 325.283C189.902 324.972 190.492 324.817 191.169 324.817C191.606 324.817 192.018 324.888 192.406 325.029C192.797 325.168 193.142 325.383 193.44 325.675C193.742 325.968 193.979 326.34 194.151 326.793C194.323 327.242 194.41 327.777 194.41 328.399V328.912H188.597V327.785H192.808C192.805 327.465 192.735 327.18 192.6 326.931C192.464 326.679 192.275 326.48 192.032 326.336C191.792 326.191 191.512 326.119 191.192 326.119C190.85 326.119 190.55 326.202 190.292 326.368C190.033 326.531 189.832 326.746 189.687 327.014C189.545 327.279 189.473 327.57 189.47 327.887V328.87C189.47 329.282 189.545 329.636 189.696 329.932C189.847 330.224 190.058 330.449 190.329 330.606C190.599 330.76 190.916 330.837 191.28 330.837C191.523 330.837 191.743 330.803 191.94 330.735C192.137 330.664 192.308 330.561 192.452 330.426C192.597 330.29 192.706 330.123 192.78 329.923L194.34 330.098C194.242 330.51 194.054 330.871 193.777 331.178C193.503 331.483 193.152 331.72 192.725 331.889C192.297 332.055 191.807 332.138 191.257 332.138ZM195.823 332V324.909H197.495V327.771H198.104L200.237 324.909H202.249L199.623 328.39L202.277 332H200.255L198.312 329.327H197.495V332H195.823ZM209.926 332.18C209.165 332.18 208.513 331.988 207.968 331.603C207.426 331.215 207.009 330.657 206.717 329.927C206.428 329.195 206.283 328.313 206.283 327.282C206.286 326.251 206.432 325.374 206.722 324.651C207.014 323.924 207.431 323.37 207.973 322.989C208.518 322.607 209.168 322.416 209.926 322.416C210.683 322.416 211.334 322.607 211.878 322.989C212.423 323.37 212.84 323.924 213.129 324.651C213.422 325.377 213.568 326.254 213.568 327.282C213.568 328.316 213.422 329.199 213.129 329.932C212.84 330.661 212.423 331.218 211.878 331.603C211.337 331.988 210.686 332.18 209.926 332.18ZM209.926 330.735C210.516 330.735 210.983 330.444 211.324 329.863C211.669 329.278 211.841 328.418 211.841 327.282C211.841 326.531 211.763 325.9 211.606 325.389C211.449 324.878 211.227 324.494 210.941 324.235C210.655 323.973 210.316 323.843 209.926 323.843C209.338 323.843 208.873 324.135 208.531 324.72C208.19 325.301 208.017 326.156 208.014 327.282C208.011 328.036 208.087 328.67 208.241 329.184C208.397 329.698 208.619 330.086 208.905 330.347C209.192 330.606 209.532 330.735 209.926 330.735ZM218.384 322.416C218.836 322.419 219.277 322.499 219.704 322.656C220.135 322.81 220.523 323.062 220.868 323.413C221.212 323.761 221.486 324.227 221.689 324.812C221.893 325.397 221.994 326.12 221.994 326.982C221.997 327.794 221.911 328.521 221.736 329.161C221.563 329.798 221.316 330.337 220.992 330.777C220.669 331.217 220.28 331.552 219.824 331.783C219.369 332.014 218.856 332.129 218.287 332.129C217.69 332.129 217.161 332.012 216.699 331.778C216.24 331.545 215.87 331.224 215.586 330.818C215.303 330.412 215.129 329.947 215.065 329.424H216.75C216.836 329.799 217.011 330.098 217.276 330.32C217.544 330.538 217.881 330.647 218.287 330.647C218.943 330.647 219.447 330.363 219.801 329.793C220.155 329.224 220.332 328.433 220.332 327.42H220.268C220.117 327.691 219.921 327.925 219.681 328.122C219.441 328.316 219.169 328.465 218.864 328.57C218.563 328.675 218.243 328.727 217.904 328.727C217.35 328.727 216.851 328.595 216.408 328.33C215.968 328.065 215.619 327.702 215.36 327.24C215.105 326.779 214.976 326.251 214.973 325.657C214.973 325.041 215.114 324.489 215.397 324C215.683 323.507 216.082 323.119 216.593 322.836C217.104 322.55 217.701 322.41 218.384 322.416ZM218.389 323.801C218.056 323.801 217.756 323.883 217.488 324.046C217.224 324.206 217.015 324.424 216.861 324.701C216.71 324.975 216.634 325.281 216.634 325.62C216.638 325.955 216.713 326.26 216.861 326.534C217.011 326.808 217.216 327.025 217.475 327.185C217.736 327.345 218.035 327.425 218.37 327.425C218.62 327.425 218.852 327.377 219.067 327.282C219.283 327.187 219.47 327.054 219.631 326.885C219.794 326.713 219.92 326.517 220.009 326.299C220.101 326.08 220.146 325.849 220.143 325.606C220.143 325.283 220.066 324.984 219.912 324.711C219.761 324.437 219.554 324.217 219.289 324.05C219.027 323.884 218.727 323.801 218.389 323.801Z" fill="#7E8299"/>
<path d="M253.862 334.281V330.601H254.494C254.707 330.432 254.905 330.193 255.09 329.886C255.275 329.578 255.432 329.156 255.561 328.621C255.69 328.085 255.779 327.393 255.829 326.543L256.078 322.545H262.121V330.601H263.173V334.271H261.53V332H255.505V334.281H253.862ZM256.489 330.601H260.477V323.981H257.62L257.472 326.543C257.432 327.187 257.367 327.762 257.278 328.27C257.189 328.778 257.077 329.225 256.941 329.613C256.806 329.998 256.655 330.327 256.489 330.601ZM267.634 332.138C266.923 332.138 266.309 331.991 265.792 331.695C265.278 331.397 264.883 330.975 264.606 330.43C264.329 329.883 264.19 329.238 264.19 328.496C264.19 327.767 264.329 327.127 264.606 326.576C264.886 326.022 265.277 325.591 265.778 325.283C266.28 324.972 266.869 324.817 267.546 324.817C267.983 324.817 268.396 324.888 268.784 325.029C269.174 325.168 269.519 325.383 269.818 325.675C270.119 325.968 270.356 326.34 270.529 326.793C270.701 327.242 270.787 327.777 270.787 328.399V328.912H264.975V327.785H269.185C269.182 327.465 269.113 327.18 268.977 326.931C268.842 326.679 268.653 326.48 268.41 326.336C268.17 326.191 267.889 326.119 267.569 326.119C267.228 326.119 266.928 326.202 266.669 326.368C266.411 326.531 266.209 326.746 266.064 327.014C265.923 327.279 265.851 327.57 265.847 327.887V328.87C265.847 329.282 265.923 329.636 266.074 329.932C266.224 330.224 266.435 330.449 266.706 330.606C266.977 330.76 267.294 330.837 267.657 330.837C267.9 330.837 268.12 330.803 268.317 330.735C268.514 330.664 268.685 330.561 268.83 330.426C268.974 330.29 269.084 330.123 269.157 329.923L270.718 330.098C270.619 330.51 270.432 330.871 270.155 331.178C269.881 331.483 269.53 331.72 269.102 331.889C268.674 332.055 268.185 332.138 267.634 332.138ZM272.201 332V324.909H273.872V327.771H274.481L276.614 324.909H278.627L276 328.39L278.655 332H276.633L274.689 329.327H273.872V332H272.201ZM286.654 322.545V332H284.941V324.212H284.886L282.675 325.625V324.055L285.024 322.545H286.654ZM292.549 332.18C291.789 332.18 291.137 331.988 290.592 331.603C290.05 331.215 289.633 330.657 289.341 329.927C289.051 329.195 288.907 328.313 288.907 327.282C288.91 326.251 289.056 325.374 289.345 324.651C289.638 323.924 290.055 323.37 290.596 322.989C291.141 322.607 291.792 322.416 292.549 322.416C293.306 322.416 293.957 322.607 294.502 322.989C295.047 323.37 295.464 323.924 295.753 324.651C296.045 325.377 296.192 326.254 296.192 327.282C296.192 328.316 296.045 329.199 295.753 329.932C295.464 330.661 295.047 331.218 294.502 331.603C293.96 331.988 293.309 332.18 292.549 332.18ZM292.549 330.735C293.14 330.735 293.606 330.444 293.948 329.863C294.293 329.278 294.465 328.418 294.465 327.282C294.465 326.531 294.387 325.9 294.23 325.389C294.073 324.878 293.851 324.494 293.565 324.235C293.279 323.973 292.94 323.843 292.549 323.843C291.961 323.843 291.497 324.135 291.155 324.72C290.813 325.301 290.641 326.156 290.638 327.282C290.635 328.036 290.71 328.67 290.864 329.184C291.021 329.698 291.243 330.086 291.529 330.347C291.815 330.606 292.155 330.735 292.549 330.735Z" fill="#7E8299"/>
<path d="M330.36 334.281V330.601H330.992C331.205 330.432 331.403 330.193 331.588 329.886C331.773 329.578 331.93 329.156 332.059 328.621C332.188 328.085 332.277 327.393 332.327 326.543L332.576 322.545H338.619V330.601H339.671V334.271H338.028V332H332.004V334.281H330.36ZM332.987 330.601H336.975V323.981H334.118L333.97 326.543C333.93 327.187 333.865 327.762 333.776 328.27C333.687 328.778 333.575 329.225 333.439 329.613C333.304 329.998 333.153 330.327 332.987 330.601ZM344.132 332.138C343.421 332.138 342.807 331.991 342.29 331.695C341.776 331.397 341.381 330.975 341.104 330.43C340.827 329.883 340.688 329.238 340.688 328.496C340.688 327.767 340.827 327.127 341.104 326.576C341.384 326.022 341.775 325.591 342.276 325.283C342.778 324.972 343.367 324.817 344.044 324.817C344.481 324.817 344.894 324.888 345.282 325.029C345.673 325.168 346.017 325.383 346.316 325.675C346.617 325.968 346.854 326.34 347.027 326.793C347.199 327.242 347.285 327.777 347.285 328.399V328.912H341.473V327.785H345.683C345.68 327.465 345.611 327.18 345.476 326.931C345.34 326.679 345.151 326.48 344.908 326.336C344.668 326.191 344.388 326.119 344.068 326.119C343.726 326.119 343.426 326.202 343.167 326.368C342.909 326.531 342.707 326.746 342.563 327.014C342.421 327.279 342.349 327.57 342.346 327.887V328.87C342.346 329.282 342.421 329.636 342.572 329.932C342.723 330.224 342.933 330.449 343.204 330.606C343.475 330.76 343.792 330.837 344.155 330.837C344.398 330.837 344.618 330.803 344.815 330.735C345.012 330.664 345.183 330.561 345.328 330.426C345.472 330.29 345.582 330.123 345.656 329.923L347.216 330.098C347.117 330.51 346.93 330.871 346.653 331.178C346.379 331.483 346.028 331.72 345.6 331.889C345.172 332.055 344.683 332.138 344.132 332.138ZM348.699 332V324.909H350.37V327.771H350.98L353.112 324.909H355.125L352.498 328.39L355.153 332H353.131L351.187 329.327H350.37V332H348.699ZM363.152 322.545V332H361.439V324.212H361.384L359.173 325.625V324.055L361.522 322.545H363.152ZM369.398 322.545V332H367.685V324.212H367.63L365.419 325.625V324.055L367.769 322.545H369.398Z" fill="#7E8299"/>
<path d="M404.732 334.281V330.601H405.364C405.577 330.432 405.775 330.193 405.96 329.886C406.144 329.578 406.301 329.156 406.431 328.621C406.56 328.085 406.649 327.393 406.698 326.543L406.948 322.545H412.991V330.601H414.043V334.271H412.4V332H406.375V334.281H404.732ZM407.358 330.601H411.347V323.981H408.49L408.342 326.543C408.302 327.187 408.237 327.762 408.148 328.27C408.059 328.778 407.946 329.225 407.811 329.613C407.675 329.998 407.525 330.327 407.358 330.601ZM418.504 332.138C417.793 332.138 417.179 331.991 416.662 331.695C416.148 331.397 415.752 330.975 415.475 330.43C415.198 329.883 415.06 329.238 415.06 328.496C415.06 327.767 415.198 327.127 415.475 326.576C415.755 326.022 416.146 325.591 416.648 325.283C417.15 324.972 417.739 324.817 418.416 324.817C418.853 324.817 419.266 324.888 419.653 325.029C420.044 325.168 420.389 325.383 420.687 325.675C420.989 325.968 421.226 326.34 421.398 326.793C421.571 327.242 421.657 327.777 421.657 328.399V328.912H415.845V327.785H420.055C420.052 327.465 419.983 327.18 419.847 326.931C419.712 326.679 419.523 326.48 419.279 326.336C419.039 326.191 418.759 326.119 418.439 326.119C418.098 326.119 417.797 326.202 417.539 326.368C417.28 326.531 417.079 326.746 416.934 327.014C416.793 327.279 416.72 327.57 416.717 327.887V328.87C416.717 329.282 416.793 329.636 416.943 329.932C417.094 330.224 417.305 330.449 417.576 330.606C417.847 330.76 418.164 330.837 418.527 330.837C418.77 330.837 418.99 330.803 419.187 330.735C419.384 330.664 419.555 330.561 419.699 330.426C419.844 330.29 419.953 330.123 420.027 329.923L421.588 330.098C421.489 330.51 421.301 330.871 421.024 331.178C420.751 331.483 420.4 331.72 419.972 331.889C419.544 332.055 419.055 332.138 418.504 332.138ZM423.071 332V324.909H424.742V327.771H425.351L427.484 324.909H429.497L426.87 328.39L429.525 332H427.502L425.559 329.327H424.742V332H423.071ZM437.524 322.545V332H435.811V324.212H435.756L433.544 325.625V324.055L435.894 322.545H437.524ZM439.924 332V330.763L443.207 327.545C443.521 327.228 443.782 326.946 443.991 326.7C444.201 326.454 444.358 326.216 444.462 325.985C444.567 325.754 444.619 325.508 444.619 325.246C444.619 324.948 444.552 324.692 444.416 324.48C444.281 324.264 444.094 324.098 443.858 323.981C443.621 323.864 443.351 323.806 443.05 323.806C442.739 323.806 442.466 323.87 442.233 324C441.999 324.126 441.817 324.306 441.688 324.54C441.562 324.774 441.498 325.052 441.498 325.375H439.869C439.869 324.775 440.006 324.254 440.28 323.81C440.554 323.367 440.931 323.024 441.411 322.781C441.894 322.538 442.448 322.416 443.073 322.416C443.707 322.416 444.264 322.535 444.744 322.772C445.224 323.009 445.596 323.333 445.861 323.746C446.129 324.158 446.263 324.629 446.263 325.158C446.263 325.512 446.195 325.86 446.06 326.202C445.924 326.543 445.686 326.922 445.344 327.337C445.005 327.753 444.53 328.256 443.918 328.847L442.288 330.504V330.569H446.406V332H439.924Z" fill="#7E8299"/>
<path d="M479.821 334.281V330.601H480.453C480.665 330.432 480.864 330.193 481.049 329.886C481.233 329.578 481.39 329.156 481.52 328.621C481.649 328.085 481.738 327.393 481.787 326.543L482.037 322.545H488.08V330.601H489.132V334.271H487.489V332H481.464V334.281H479.821ZM482.447 330.601H486.436V323.981H483.578L483.431 326.543C483.391 327.187 483.326 327.762 483.237 328.27C483.148 328.778 483.035 329.225 482.9 329.613C482.764 329.998 482.614 330.327 482.447 330.601ZM493.593 332.138C492.882 332.138 492.268 331.991 491.751 331.695C491.237 331.397 490.841 330.975 490.564 330.43C490.287 329.883 490.149 329.238 490.149 328.496C490.149 327.767 490.287 327.127 490.564 326.576C490.844 326.022 491.235 325.591 491.737 325.283C492.239 324.972 492.828 324.817 493.505 324.817C493.942 324.817 494.354 324.888 494.742 325.029C495.133 325.168 495.478 325.383 495.776 325.675C496.078 325.968 496.315 326.34 496.487 326.793C496.66 327.242 496.746 327.777 496.746 328.399V328.912H490.934V327.785H495.144C495.141 327.465 495.072 327.18 494.936 326.931C494.801 326.679 494.611 326.48 494.368 326.336C494.128 326.191 493.848 326.119 493.528 326.119C493.186 326.119 492.886 326.202 492.628 326.368C492.369 326.531 492.168 326.746 492.023 327.014C491.882 327.279 491.809 327.57 491.806 327.887V328.87C491.806 329.282 491.882 329.636 492.032 329.932C492.183 330.224 492.394 330.449 492.665 330.606C492.936 330.76 493.253 330.837 493.616 330.837C493.859 330.837 494.079 330.803 494.276 330.735C494.473 330.664 494.644 330.561 494.788 330.426C494.933 330.29 495.042 330.123 495.116 329.923L496.677 330.098C496.578 330.51 496.39 330.871 496.113 331.178C495.839 331.483 495.489 331.72 495.061 331.889C494.633 332.055 494.144 332.138 493.593 332.138ZM498.16 332V324.909H499.831V327.771H500.44L502.573 324.909H504.586L501.959 328.39L504.613 332H502.591L500.648 329.327H499.831V332H498.16ZM512.613 322.545V332H510.9V324.212H510.845L508.633 325.625V324.055L510.983 322.545H512.613ZM518.406 332.129C517.742 332.129 517.151 332.015 516.634 331.788C516.12 331.56 515.713 331.243 515.415 330.837C515.116 330.43 514.958 329.961 514.939 329.429H516.675C516.691 329.684 516.775 329.907 516.929 330.098C517.083 330.286 517.288 330.432 517.543 330.537C517.798 330.641 518.085 330.694 518.402 330.694C518.74 330.694 519.04 330.635 519.302 330.518C519.564 330.398 519.768 330.232 519.916 330.02C520.064 329.807 520.136 329.562 520.133 329.286C520.136 328.999 520.062 328.747 519.911 328.528C519.76 328.31 519.542 328.139 519.256 328.016C518.973 327.893 518.631 327.831 518.231 327.831H517.395V326.511H518.231C518.56 326.511 518.848 326.454 519.094 326.34C519.343 326.226 519.539 326.066 519.68 325.86C519.822 325.651 519.891 325.409 519.888 325.135C519.891 324.868 519.831 324.635 519.708 324.438C519.588 324.238 519.417 324.083 519.196 323.972C518.977 323.861 518.72 323.806 518.425 323.806C518.135 323.806 517.868 323.858 517.622 323.963C517.375 324.067 517.177 324.217 517.026 324.411C516.875 324.601 516.795 324.829 516.786 325.094H515.138C515.15 324.564 515.303 324.1 515.595 323.7C515.89 323.296 516.284 322.982 516.777 322.758C517.269 322.53 517.822 322.416 518.434 322.416C519.065 322.416 519.613 322.535 520.077 322.772C520.545 323.006 520.907 323.321 521.162 323.718C521.418 324.115 521.546 324.554 521.546 325.034C521.549 325.566 521.392 326.012 521.075 326.373C520.761 326.733 520.348 326.968 519.837 327.079V327.153C520.502 327.245 521.012 327.491 521.365 327.891C521.722 328.288 521.899 328.782 521.896 329.373C521.896 329.903 521.746 330.377 521.444 330.795C521.145 331.211 520.733 331.537 520.207 331.774C519.684 332.011 519.083 332.129 518.406 332.129Z" fill="#7E8299"/>
<path d="M555.011 334.281V330.601H555.644C555.856 330.432 556.054 330.193 556.239 329.886C556.424 329.578 556.581 329.156 556.71 328.621C556.839 328.085 556.929 327.393 556.978 326.543L557.227 322.545H563.27V330.601H564.323V334.271H562.679V332H556.655V334.281H555.011ZM557.638 330.601H561.627V323.981H558.769L558.621 326.543C558.581 327.187 558.517 327.762 558.427 328.27C558.338 328.778 558.226 329.225 558.09 329.613C557.955 329.998 557.804 330.327 557.638 330.601ZM568.783 332.138C568.072 332.138 567.458 331.991 566.941 331.695C566.427 331.397 566.032 330.975 565.755 330.43C565.478 329.883 565.339 329.238 565.339 328.496C565.339 327.767 565.478 327.127 565.755 326.576C566.035 326.022 566.426 325.591 566.927 325.283C567.429 324.972 568.018 324.817 568.696 324.817C569.133 324.817 569.545 324.888 569.933 325.029C570.324 325.168 570.668 325.383 570.967 325.675C571.268 325.968 571.505 326.34 571.678 326.793C571.85 327.242 571.936 327.777 571.936 328.399V328.912H566.124V327.785H570.334C570.331 327.465 570.262 327.18 570.127 326.931C569.991 326.679 569.802 326.48 569.559 326.336C569.319 326.191 569.039 326.119 568.719 326.119C568.377 326.119 568.077 326.202 567.818 326.368C567.56 326.531 567.358 326.746 567.214 327.014C567.072 327.279 567 327.57 566.997 327.887V328.87C566.997 329.282 567.072 329.636 567.223 329.932C567.374 330.224 567.585 330.449 567.855 330.606C568.126 330.76 568.443 330.837 568.806 330.837C569.049 330.837 569.27 330.803 569.467 330.735C569.663 330.664 569.834 330.561 569.979 330.426C570.124 330.29 570.233 330.123 570.307 329.923L571.867 330.098C571.769 330.51 571.581 330.871 571.304 331.178C571.03 331.483 570.679 331.72 570.251 331.889C569.824 332.055 569.334 332.138 568.783 332.138ZM573.35 332V324.909H575.021V327.771H575.631L577.763 324.909H579.776L577.149 328.39L579.804 332H577.782L575.838 329.327H575.021V332H573.35ZM587.803 322.545V332H586.09V324.212H586.035L583.824 325.625V324.055L586.174 322.545H587.803ZM590.033 330.246V328.884L594.045 322.545H595.18V324.484H594.488L591.787 328.764V328.838H597.387V330.246H590.033ZM594.543 332V329.83L594.562 329.221V322.545H596.177V332H594.543Z" fill="#7E8299"/>
<path d="M123.182 128.488H118.646V130.882C118.842 130.639 119.122 130.443 119.486 130.294C119.85 130.135 120.237 130.056 120.648 130.056C121.395 130.056 122.006 130.219 122.482 130.546C122.958 130.873 123.303 131.293 123.518 131.806C123.733 132.31 123.84 132.851 123.84 133.43C123.84 134.503 123.532 135.367 122.916 136.02C122.309 136.673 121.441 137 120.312 137C119.248 137 118.399 136.734 117.764 136.202C117.129 135.67 116.77 134.975 116.686 134.116H118.59C118.674 134.489 118.861 134.788 119.15 135.012C119.449 135.236 119.827 135.348 120.284 135.348C120.835 135.348 121.25 135.175 121.53 134.83C121.81 134.485 121.95 134.027 121.95 133.458C121.95 132.879 121.805 132.441 121.516 132.142C121.236 131.834 120.821 131.68 120.27 131.68C119.878 131.68 119.551 131.778 119.29 131.974C119.029 132.17 118.842 132.431 118.73 132.758H116.854V126.766H123.182V128.488ZM125.108 135.012V133.472L129.686 126.92H131.968V133.304H133.2V135.012H131.968V137H130.008V135.012H125.108ZM130.134 129.02L127.264 133.304H130.134V129.02Z" fill="#3F4254"/>
<path d="M112.382 149C112.382 146.791 114.173 145 116.382 145H132.904C135.113 145 136.904 146.791 136.904 149V284H112.382V149Z" fill="#3E97FF"/>
<path d="M192.009 165.012V163.472L196.587 156.92H198.869V163.304H200.101V165.012H198.869V167H196.909V165.012H192.009ZM197.035 159.02L194.165 163.304H197.035V159.02ZM201.825 164.788C202.721 164.041 203.435 163.421 203.967 162.926C204.499 162.422 204.942 161.899 205.297 161.358C205.652 160.817 205.829 160.285 205.829 159.762C205.829 159.286 205.717 158.913 205.493 158.642C205.269 158.371 204.924 158.236 204.457 158.236C203.99 158.236 203.631 158.395 203.379 158.712C203.127 159.02 202.996 159.445 202.987 159.986H201.083C201.12 158.866 201.452 158.017 202.077 157.438C202.712 156.859 203.514 156.57 204.485 156.57C205.549 156.57 206.366 156.855 206.935 157.424C207.504 157.984 207.789 158.726 207.789 159.65C207.789 160.378 207.593 161.073 207.201 161.736C206.809 162.399 206.361 162.977 205.857 163.472C205.353 163.957 204.695 164.545 203.883 165.236H208.013V166.86H201.097V165.404L201.825 164.788Z" fill="#3F4254"/>
<path d="M187.667 179C187.667 176.791 189.458 175 191.667 175H208.19C210.399 175 212.19 176.791 212.19 179V284H187.667V179Z" fill="#3E97FF"/>
<path d="M274.182 88.278L270.458 97H268.47L272.222 88.502H267.434V86.822H274.182V88.278ZM282.076 88.488H277.54V90.882C277.736 90.6393 278.016 90.4433 278.38 90.294C278.744 90.1353 279.132 90.056 279.542 90.056C280.289 90.056 280.9 90.2193 281.376 90.546C281.852 90.8727 282.198 91.2927 282.412 91.806C282.627 92.31 282.734 92.8513 282.734 93.43C282.734 94.5033 282.426 95.3667 281.81 96.02C281.204 96.6733 280.336 97 279.206 97C278.142 97 277.293 96.734 276.658 96.202C276.024 95.67 275.664 94.9747 275.58 94.116H277.484C277.568 94.4893 277.755 94.788 278.044 95.012C278.343 95.236 278.721 95.348 279.178 95.348C279.729 95.348 280.144 95.1753 280.424 94.83C280.704 94.4847 280.844 94.0273 280.844 93.458C280.844 92.8793 280.7 92.4407 280.41 92.142C280.13 91.834 279.715 91.68 279.164 91.68C278.772 91.68 278.446 91.778 278.184 91.974C277.923 92.17 277.736 92.4313 277.624 92.758H275.748V86.766H282.076V88.488Z" fill="#3F4254"/>
<path d="M262.953 109C262.953 106.791 264.744 105 266.953 105H283.475C285.685 105 287.475 106.791 287.475 109V284H262.953V109Z" fill="#3E97FF"/>
<path d="M341.546 28.6V26.794H344.92V37H342.904V28.6H341.546ZM346.479 28.6V26.794H349.853V37H347.837V28.6H346.479ZM351.649 31.764C351.649 30.1493 351.938 28.8847 352.517 27.97C353.105 27.0553 354.076 26.598 355.429 26.598C356.782 26.598 357.748 27.0553 358.327 27.97C358.915 28.8847 359.209 30.1493 359.209 31.764C359.209 33.388 358.915 34.662 358.327 35.586C357.748 36.51 356.782 36.972 355.429 36.972C354.076 36.972 353.105 36.51 352.517 35.586C351.938 34.662 351.649 33.388 351.649 31.764ZM357.277 31.764C357.277 31.0733 357.23 30.4947 357.137 30.028C357.053 29.552 356.876 29.1647 356.605 28.866C356.344 28.5673 355.952 28.418 355.429 28.418C354.906 28.418 354.51 28.5673 354.239 28.866C353.978 29.1647 353.8 29.552 353.707 30.028C353.623 30.4947 353.581 31.0733 353.581 31.764C353.581 32.4733 353.623 33.0707 353.707 33.556C353.791 34.032 353.968 34.4193 354.239 34.718C354.51 35.0073 354.906 35.152 355.429 35.152C355.952 35.152 356.348 35.0073 356.619 34.718C356.89 34.4193 357.067 34.032 357.151 33.556C357.235 33.0707 357.277 32.4733 357.277 31.764Z" fill="#3F4254"/>
<path d="M338.239 49C338.239 46.7909 340.03 45 342.239 45H358.761C360.97 45 362.761 46.7909 362.761 49V284H338.239V49Z" fill="#3E97FF"/>
<path d="M419.004 184.788C419.9 184.041 420.614 183.421 421.146 182.926C421.678 182.422 422.121 181.899 422.476 181.358C422.83 180.817 423.008 180.285 423.008 179.762C423.008 179.286 422.896 178.913 422.672 178.642C422.448 178.371 422.102 178.236 421.636 178.236C421.169 178.236 420.81 178.395 420.558 178.712C420.306 179.02 420.175 179.445 420.166 179.986H418.262C418.299 178.866 418.63 178.017 419.256 177.438C419.89 176.859 420.693 176.57 421.664 176.57C422.728 176.57 423.544 176.855 424.114 177.424C424.683 177.984 424.968 178.726 424.968 179.65C424.968 180.378 424.772 181.073 424.38 181.736C423.988 182.399 423.54 182.977 423.036 183.472C422.532 183.957 421.874 184.545 421.062 185.236H425.192V186.86H418.276V185.404L419.004 184.788ZM426.315 179.482C426.362 178.549 426.688 177.83 427.295 177.326C427.911 176.813 428.718 176.556 429.717 176.556C430.398 176.556 430.982 176.677 431.467 176.92C431.952 177.153 432.316 177.475 432.559 177.886C432.811 178.287 432.937 178.745 432.937 179.258C432.937 179.846 432.783 180.345 432.475 180.756C432.176 181.157 431.817 181.428 431.397 181.568V181.624C431.938 181.792 432.358 182.091 432.657 182.52C432.965 182.949 433.119 183.5 433.119 184.172C433.119 184.732 432.988 185.231 432.727 185.67C432.475 186.109 432.097 186.454 431.593 186.706C431.098 186.949 430.501 187.07 429.801 187.07C428.746 187.07 427.888 186.804 427.225 186.272C426.562 185.74 426.212 184.956 426.175 183.92H428.079C428.098 184.377 428.252 184.746 428.541 185.026C428.84 185.297 429.246 185.432 429.759 185.432C430.235 185.432 430.599 185.301 430.851 185.04C431.112 184.769 431.243 184.424 431.243 184.004C431.243 183.444 431.066 183.043 430.711 182.8C430.356 182.557 429.806 182.436 429.059 182.436H428.653V180.826H429.059C430.384 180.826 431.047 180.383 431.047 179.496C431.047 179.095 430.926 178.782 430.683 178.558C430.45 178.334 430.109 178.222 429.661 178.222C429.222 178.222 428.882 178.343 428.639 178.586C428.406 178.819 428.27 179.118 428.233 179.482H426.315Z" fill="#3F4254"/>
<path d="M413.525 199C413.525 196.791 415.315 195 417.525 195H434.047C436.256 195 438.047 196.791 438.047 199V284H413.525V199Z" fill="#3E97FF"/>
<path d="M495.258 61.596C494.325 61.1107 493.858 60.3593 493.858 59.342C493.858 58.838 493.984 58.3807 494.236 57.97C494.498 57.55 494.885 57.2187 495.398 56.976C495.921 56.724 496.556 56.598 497.302 56.598C498.049 56.598 498.679 56.724 499.192 56.976C499.715 57.2187 500.102 57.55 500.354 57.97C500.616 58.3807 500.746 58.838 500.746 59.342C500.746 59.8553 500.62 60.308 500.368 60.7C500.116 61.0827 499.78 61.3813 499.36 61.596C499.874 61.82 500.275 62.1467 500.564 62.576C500.854 63.0053 500.998 63.514 500.998 64.102C500.998 64.7367 500.835 65.292 500.508 65.768C500.191 66.2347 499.752 66.594 499.192 66.846C498.632 67.098 498.002 67.224 497.302 67.224C496.602 67.224 495.972 67.098 495.412 66.846C494.862 66.594 494.423 66.2347 494.096 65.768C493.779 65.292 493.62 64.7367 493.62 64.102C493.62 63.514 493.765 63.0053 494.054 62.576C494.344 62.1373 494.745 61.8107 495.258 61.596ZM498.842 59.622C498.842 59.1647 498.702 58.81 498.422 58.558C498.152 58.306 497.778 58.18 497.302 58.18C496.836 58.18 496.462 58.306 496.182 58.558C495.912 58.81 495.776 59.1693 495.776 59.636C495.776 60.056 495.916 60.392 496.196 60.644C496.486 60.896 496.854 61.022 497.302 61.022C497.75 61.022 498.119 60.896 498.408 60.644C498.698 60.3827 498.842 60.042 498.842 59.622ZM497.302 62.45C496.77 62.45 496.336 62.5853 496 62.856C495.674 63.1267 495.51 63.514 495.51 64.018C495.51 64.4847 495.669 64.8673 495.986 65.166C496.313 65.4553 496.752 65.6 497.302 65.6C497.853 65.6 498.287 65.4507 498.604 65.152C498.922 64.8533 499.08 64.4753 499.08 64.018C499.08 63.5233 498.917 63.1407 498.59 62.87C498.264 62.59 497.834 62.45 497.302 62.45ZM508.903 58.278L505.179 67H503.191L506.943 58.502H502.155V56.822H508.903V58.278Z" fill="#3F4254"/>
<path d="M488.81 79C488.81 76.7909 490.601 75 492.81 75H509.333C511.542 75 513.333 76.7909 513.333 79V284H488.81V79Z" fill="#3E97FF"/>
<path d="M574.999 148.488H570.463V150.882C570.659 150.639 570.939 150.443 571.303 150.294C571.667 150.135 572.054 150.056 572.465 150.056C573.212 150.056 573.823 150.219 574.299 150.546C574.775 150.873 575.12 151.293 575.335 151.806C575.55 152.31 575.657 152.851 575.657 153.43C575.657 154.503 575.349 155.367 574.733 156.02C574.126 156.673 573.258 157 572.129 157C571.065 157 570.216 156.734 569.581 156.202C568.946 155.67 568.587 154.975 568.503 154.116H570.407C570.491 154.489 570.678 154.788 570.967 155.012C571.266 155.236 571.644 155.348 572.101 155.348C572.652 155.348 573.067 155.175 573.347 154.83C573.627 154.485 573.767 154.027 573.767 153.458C573.767 152.879 573.622 152.441 573.333 152.142C573.053 151.834 572.638 151.68 572.087 151.68C571.695 151.68 571.368 151.778 571.107 151.974C570.846 152.17 570.659 152.431 570.547 152.758H568.671V146.766H574.999V148.488ZM577.009 151.764C577.009 150.149 577.298 148.885 577.877 147.97C578.465 147.055 579.435 146.598 580.789 146.598C582.142 146.598 583.108 147.055 583.687 147.97C584.275 148.885 584.569 150.149 584.569 151.764C584.569 153.388 584.275 154.662 583.687 155.586C583.108 156.51 582.142 156.972 580.789 156.972C579.435 156.972 578.465 156.51 577.877 155.586C577.298 154.662 577.009 153.388 577.009 151.764ZM582.637 151.764C582.637 151.073 582.59 150.495 582.497 150.028C582.413 149.552 582.235 149.165 581.965 148.866C581.703 148.567 581.311 148.418 580.789 148.418C580.266 148.418 579.869 148.567 579.599 148.866C579.337 149.165 579.16 149.552 579.067 150.028C578.983 150.495 578.941 151.073 578.941 151.764C578.941 152.473 578.983 153.071 579.067 153.556C579.151 154.032 579.328 154.419 579.599 154.718C579.869 155.007 580.266 155.152 580.789 155.152C581.311 155.152 581.708 155.007 581.979 154.718C582.249 154.419 582.427 154.032 582.511 153.556C582.595 153.071 582.637 152.473 582.637 151.764Z" fill="#3F4254"/>
<path d="M564.096 169C564.096 166.791 565.887 165 568.096 165H584.618C586.827 165 588.618 166.791 588.618 169V284H564.096V169Z" fill="#3E97FF"/>
</svg>
