<svg width="38" height="38" viewBox="0 0 38 38" fill="none" xmlns="http://www.w3.org/2000/svg">
<rect width="38" height="38" rx="12" fill="#6C2222"/>
<g opacity="0.3">
<path d="M19 18.9333C21.2828 18.9333 23.1334 17.0827 23.1334 14.8C23.1334 12.5172 21.2828 10.6666 19 10.6666C16.7173 10.6666 14.8667 12.5172 14.8667 14.8C14.8667 17.0827 16.7173 18.9333 19 18.9333Z" fill="white"/>
</g>
<path d="M25.4167 27.3333C25.5529 27.341 25.6892 27.3193 25.8163 27.2697C25.9434 27.22 26.0583 27.1435 26.1532 27.0455C26.2481 26.9474 26.3207 26.8301 26.3662 26.7014C26.4117 26.5728 26.4289 26.4359 26.4167 26.3C25.8834 23.1666 22.7667 20.7583 19.0001 20.7583C15.2334 20.7583 12.1167 23.1666 11.5834 26.3C11.5712 26.4359 11.5884 26.5728 11.6339 26.7014C11.6794 26.8301 11.752 26.9474 11.8469 27.0455C11.9418 27.1435 12.0567 27.22 12.1838 27.2697C12.3109 27.3193 12.4472 27.341 12.5834 27.3333H25.4167Z" fill="white"/>
</svg>
